<svg xmlns="http://www.w3.org/2000/svg" height="48" viewBox="0 -960 960 960" width="48"><path fill="#FFF" d="M295.859-116.769q-23.477 0-39.457-16.269-15.979-16.269-15.979-40.064t16.033-40q16.033-16.206 39.497-16.206 23.463 0 39.851 16.269 16.388 16.269 16.388 40.064t-16.269 40.001q-16.269 16.205-40.064 16.205Zm374.347 0q-23.478 0-39.457-16.269-15.98-16.269-15.98-40.064t16.033-40q16.033-16.206 39.497-16.206t39.852 16.269q16.388 16.269 16.388 40.064t-16.269 40.001q-16.269 16.205-40.064 16.205ZM230.615-749.346l113.077 237.231h268.193q6.923 0 12.692-3.462 5.769-3.461 8.846-9.615l111.923-202.616q4.616-8.461.769-15-3.846-6.538-13.076-6.538H230.615Zm-15.882-30.193h519.4q25.684 0 38.525 21.608 12.842 21.608 1.727 43.469L663.969-512.827q-8.853 13.673-22.871 22.289-14.018 8.615-29.016 8.615H324.231l-54.577 100.385q-5.385 9.23 0 20 5.384 10.769 16.923 10.769h439.962v30.192H291.413q-33.836 0-48.413-24.047-14.577-24.048.077-51.526l64.769-116.378-150.085-316.357H86v-30.192h91.038l37.695 79.538Zm128.959 267.424H626.5 343.692Z"/></svg>