<svg xmlns="http://www.w3.org/2000/svg" height="48" viewBox="0 -960 960 960" width="48"><path fill="#FFF" d="M819.077-524.269v328.538q0 22.584-16.112 38.696t-38.696 16.112H194.615q-22.584 0-38.696-16.112-16.111-16.112-16.111-38.696v-330.077q-26.962-19.923-36.866-51.549-9.904-31.625.327-63.489l38.929-128.091q8.042-25.171 25.638-37.713 17.596-12.542 42.941-12.542h534.011q25.351 0 44.185 12.307 18.835 12.308 26.301 36.69l41.341 129.349q10.231 32.192-.173 64.231-10.403 32.038-37.365 52.346Zm-251.092-10.77q39.63 0 61.361-22.076 21.731-22.077 19-46.77L619.885-789H495.039v175.654q0 31.019 21.378 54.663 21.379 23.644 51.568 23.644Zm-182.602 0q34.229 0 56.846-23.144 22.617-23.144 22.617-55.163V-789H339.231l-27.577 188.192q-2.846 19.846 17.404 42.808 20.25 22.961 56.325 22.961Zm-179.423 0q28.463 0 49.617-19.718 21.154-19.718 24.923-48.166L307.769-789H205.885q-13.077 0-21.347 5.769-8.269 5.769-10.961 17.308l-40.346 132.038q-11.654 35.577 9.211 67.212 20.866 31.634 63.518 31.634Zm547.044 0q37.188 0 61.246-29.538t11.635-69.308l-40.116-133.577Q782.692-779 774.423-784t-20.961-5H652.231l26.431 186.077q4.492 28.615 25.17 48.25 20.678 19.634 49.172 19.634ZM194.615-171.115h569.654q10 0 17.308-6.923 7.308-6.924 7.308-17.693v-314.346q-6.308 2.923-16.089 4.077-9.781 1.154-20.001 1.154-25.744 0-47.071-11.269-21.327-11.27-40.858-35.577-14.712 20.769-37.956 33.807-23.244 13.039-57.644 13.039-25.228 0-46.093-10.808-20.865-10.807-43.173-33.115-19.615 21.846-44.154 32.884-24.538 11.039-48.045 11.039-26.263 0-50.263-9.789-24-9.788-41-37.057-30.653 29.192-54.311 38.019-23.657 8.827-36.079 8.827-10.719 0-19.741-1.154T170-510.077v314.346q0 10.769 7.308 17.693 7.307 6.923 17.307 6.923Zm569.654 0H194.615 764.269Z"/></svg>