<svg width="180" height="180" viewBox="0 0 180 180" fill="none" xmlns="http://www.w3.org/2000/svg">
<path fill-rule="evenodd" clip-rule="evenodd" d="M150 12H30C20.0589 12 12 20.0589 12 30V150C12 159.941 20.0589 168 30 168H150C159.941 168 168 159.941 168 150V30C168 20.0589 159.941 12 150 12ZM30 0C13.4315 0 0 13.4315 0 30V150C0 166.569 13.4315 180 30 180H150C166.569 180 180 166.569 180 150V30C180 13.4315 166.569 0 150 0H30Z" fill="white"/>
<path fill-rule="evenodd" clip-rule="evenodd" d="M28.5 41C28.5 37.4101 31.4101 34.5 35 34.5H88C91.5899 34.5 94.5 37.4101 94.5 41C94.5 44.5899 91.5899 47.5 88 47.5H35C31.4101 47.5 28.5 44.5899 28.5 41Z" fill="white"/>
<path fill-rule="evenodd" clip-rule="evenodd" d="M64.5 73.6667C64.5 70.0768 67.4101 67.1667 71 67.1667H144C147.59 67.1667 150.5 70.0768 150.5 73.6667C150.5 77.2565 147.59 80.1667 144 80.1667H71C67.4101 80.1667 64.5 77.2565 64.5 73.6667Z" fill="white"/>
<path fill-rule="evenodd" clip-rule="evenodd" d="M41.5 106.333C41.5 102.743 44.4101 99.8333 48 99.8333H121C124.59 99.8333 127.5 102.743 127.5 106.333C127.5 109.923 124.59 112.833 121 112.833H48C44.4101 112.833 41.5 109.923 41.5 106.333Z" fill="white"/>
<path fill-rule="evenodd" clip-rule="evenodd" d="M85.5 139C85.5 135.41 88.4101 132.5 92 132.5H145C148.59 132.5 151.5 135.41 151.5 139C151.5 142.59 148.59 145.5 145 145.5H92C88.4101 145.5 85.5 142.59 85.5 139Z" fill="white"/>
</svg>
