<svg width="1790" height="1792" viewBox="0 0 1790 1792" fill="none" xmlns="http://www.w3.org/2000/svg">
<path d="M1615 0C1661.67 0 1702.5 15.5 1737.5 46.5C1772.5 77.5 1790 116.333 1790 163C1790 205 1775 255.333 1745 314C1523.67 733.333 1368.67 984 1280 1066C1215.33 1126.67 1142.67 1157 1062 1157C978 1157 905.833 1126.17 845.5 1064.5C785.167 1002.83 755 929.667 755 845C755 759.667 785.667 689 847 633L1485 54C1524.33 18 1567.67 0 1615 0ZM706 1034C732 1084.67 767.5 1128 812.5 1164C857.5 1200 907.667 1225.33 963 1240L964 1311C966.667 1453 923.5 1568.67 834.5 1658C745.5 1747.33 629.333 1792 486 1792C404 1792 331.333 1776.5 268 1745.5C204.667 1714.5 153.833 1672 115.5 1618C77.1667 1564 48.3333 1503 29 1435C9.66667 1367 0 1293.67 0 1215C4.66667 1218.33 18.3333 1228.33 41 1245C63.6667 1261.67 84.3333 1276.5 103 1289.5C121.667 1302.5 141.333 1314.67 162 1326C182.667 1337.33 198 1343 208 1343C235.333 1343 253.667 1330.67 263 1306C279.667 1262 298.833 1224.5 320.5 1193.5C342.167 1162.5 365.333 1137.17 390 1117.5C414.667 1097.83 444 1082 478 1070C512 1058 546.333 1049.5 581 1044.5C615.667 1039.5 657.333 1036 706 1034Z" fill="#FFFFFF"/>
</svg>
