<svg width="180" height="180" viewBox="0 0 180 180" fill="none" xmlns="http://www.w3.org/2000/svg">
<g opacity="0.3">
<path fill-rule="evenodd" clip-rule="evenodd" d="M82.42 180H81.005L0 98.995V96.168L6.167 90L0 83.833V81.004L81.005 0H83.832L90 6.167L96.167 0H98.996L180 81.005V83.832L173.833 90L180 96.167V98.996L98.995 180H96.168L90 173.833L83.833 180H82.42ZM82.42 178.586L1.413 97.58L8.994 90L1.414 82.42L82.42 1.413L90 8.994L97.58 1.414L178.586 82.419L171.006 89.999L178.586 97.579L97.581 178.585L90.001 171.005L82.421 178.585L82.42 178.586ZM175.196 0H149.364C150.397 2.924 151.98 5.59 153.989 7.868C152.145 9.682 151 12.208 151 15C151 20.523 155.477 25 161 25C162.657 25 164 26.343 164 28V32H180V0H175.197C175.707 0.883 176 1.907 176 3C176 6.314 173.314 9 170 9C166.686 9 164 6.314 164 3C164 1.907 164.292 0.883 164.803 0H175.197H161.512C161.18 0.938 161 1.948 161 3V7C156.582 7 153 10.582 153 15C153 19.418 156.582 23 161 23C163.76 23 166 25.24 166 28V30H170V26H172V30H176V26H178V30H180V0H175.197H175.196ZM159.413 0C159.143 0.954 158.999 1.96 158.999 3V5.2C157.749 5.454 156.585 5.94 155.552 6.612C153.836 4.682 152.454 2.448 151.498 0H159.413ZM180 17H177L179.143 7H180V17ZM149.365 180C148.481 177.498 148 174.805 148 172C148 158.745 158.748 148 171.99 148H180V180H149.365ZM161.512 180C162.012 178.584 162.857 177.33 163.946 176.34L162.601 174.86C161.103 176.224 159.981 177.996 159.415 180H151.5C150.53 177.52 150 174.823 150 172C150 159.85 159.84 150 172 150H180V180H161.512ZM175.197 180C174.16 178.207 172.221 177 170 177C167.78 177 165.84 178.207 164.803 180H175.197ZM0 148H8.01C21.26 148 32 158.742 32 172C32 174.805 31.52 177.498 30.634 180H0V148ZM0 150H8C20.15 150 30 159.847 30 172C30 174.822 29.47 177.52 28.5 180H20.586C20.019 177.996 18.898 176.224 17.399 174.86L16.053 176.34C17.143 177.33 17.986 178.584 18.487 180H0V150ZM15.197 180C14.16 178.207 12.221 177 10 177C7.78 177 5.84 178.207 4.803 180H15.197ZM0 32H16V28C16 26.343 17.343 25 19 25C24.523 25 29 20.523 29 15C29 12.206 27.855 9.68 26.008 7.866C28.018 5.586 29.6 2.924 30.634 0H0V32ZM0 30H2V26H4V30H8V26H10V30H14V28C14 25.24 16.24 23 19 23C23.418 23 27 19.418 27 15C27 10.582 23.418 7 19 7V3C19 1.948 18.82 0.938 18.488 0H0V30ZM28.5 0C27.546 2.448 26.165 4.683 24.45 6.613C23.415 5.941 22.25 5.453 21 5.2V3C21 1.96 20.856 0.954 20.586 0H28.5ZM0 17H3L0.857 7H0V17ZM15.197 0C15.707 0.883 16 1.907 16 3C16 6.314 13.314 9 10 9C6.686 9 4 6.314 4 3C4 1.907 4.292 0.883 4.803 0H15.197Z" fill="#C0954F"/>
<path d="M73.4826 117.929C73.9016 118.064 74.1874 118.451 74.1874 118.891V124.819C74.1874 126.023 75.1622 127 76.3657 127H81.6755C82.8793 127 83.8539 126.023 83.8539 124.819V120.144C83.8539 119.643 84.2601 119.236 84.7612 119.236V119.236C85.2624 119.236 85.6686 119.643 85.6686 120.144V124.819C85.6686 126.023 86.6434 127 87.8435 127H93.1567C94.3605 127 95.3351 126.023 95.3351 124.819V120.142C95.3351 119.642 95.7405 119.236 96.2406 119.236V119.236C96.7407 119.236 97.1461 119.642 97.1461 120.142V124.819C97.1461 126.023 98.1209 127 99.3245 127H104.638C105.838 127 106.813 126.023 106.813 124.819V118.891C106.813 118.451 107.098 118.064 107.517 117.929C113.102 116.135 121.722 112.226 124.735 104.647C127.022 98.8961 126.127 91.3295 122.705 76.7399C119.279 62.1498 109.329 54 90.5017 54C71.6707 54 61.7205 62.15 58.2983 76.7399C54.8724 91.3298 53.9777 98.8964 56.2655 104.647C59.2777 112.225 67.8982 116.135 73.4826 117.929ZM103.638 80.3279C108.646 79.4709 113.53 83.6024 114.544 89.5573C115.559 95.5121 112.322 101.037 107.314 101.897C102.306 102.754 97.4224 98.6226 96.4078 92.6677C95.3933 86.7094 98.6299 81.1886 103.638 80.3279ZM89.7198 101.087C90.1202 100.585 90.8831 100.585 91.2833 101.087L94.0189 104.518C94.5412 105.173 94.0747 106.142 93.237 106.142H90.5017H87.7637C86.9258 106.142 86.4595 105.173 86.9821 104.518L89.7198 101.087ZM66.4556 89.5573C67.4739 83.6024 72.3545 79.4709 77.3622 80.3279C82.3736 81.1886 85.6104 86.7094 84.5921 92.6677C83.5776 98.6226 78.6933 102.754 73.6856 101.897C68.6777 101.036 65.441 95.5121 66.4556 89.5573Z" stroke="#C0954F" stroke-width="2"/>
</g>
</svg>
