<?xml version="1.0" encoding="utf-8"?>

<!DOCTYPE svg PUBLIC "-//W3C//DTD SVG 1.1//EN" "http://www.w3.org/Graphics/SVG/1.1/DTD/svg11.dtd">
<!-- Uploaded to: SVG Repo, www.svgrepo.com, Generator: SVG Repo Mixer Tools -->
<svg version="1.1" id="_x32_" xmlns="http://www.w3.org/2000/svg" xmlns:xlink="http://www.w3.org/1999/xlink" 
	 width="800px" height="800px" viewBox="0 0 512 512"  xml:space="preserve">
<style type="text/css">
<![CDATA[
	.st0{fill:#52390F;}
]]>
</style>
<g>
	<path class="st0" d="M133.234,478.948l-21.141-68.984c2.656-3.203,4.141-7.296,3.813-11.671
		c-0.688-9.375-9.25-16.438-19.156-15.797c-9.906,0.656-17.375,8.766-16.688,18.141c0.516,6.984,5.406,12.671,11.938,14.875
		l21.141,68.984c-2.656,3.188-4.141,7.281-3.813,11.672c0.688,9.359,9.266,16.438,19.156,15.797
		c9.906-0.656,17.375-8.781,16.688-18.141C144.656,486.839,139.781,481.151,133.234,478.948z"/>
	<path class="st0" d="M40.953,438.651c-7.078,1.844-11.234,8.781-9.297,15.484l7.984,27.422c1.938,6.703,9.266,10.641,16.344,8.797
		l38.016-9.5l-15.031-51.703L40.953,438.651z"/>
	<path class="st0" d="M192.125,401.527c-37.25,11.296-62.797,16.187-62.797,16.187L144,462.12c0,0,50.578-12.813,112-35.109
		c61.422,22.297,112,35.109,112,35.109l14.672-44.406c0,0-25.547-4.891-62.797-16.187c54.813-24.141,107.875-54.375,134.625-88.75
		c53.984-69.359,26.734-125.938,26.734-125.938s-4.125-9.469-9.656,8.75c-32.203,92.281-132,150.094-215.578,183.547
		c-83.578-33.453-183.375-91.266-215.578-183.547c-5.531-18.219-9.656-8.75-9.656-8.75S3.516,243.417,57.5,312.777
		C84.25,347.152,137.313,377.386,192.125,401.527z"/>
	<path class="st0" d="M420,415.511c6.531-2.203,11.422-7.89,11.938-14.875c0.688-9.375-6.781-17.484-16.688-18.141
		c-9.906-0.641-18.469,6.422-19.156,15.797c-0.328,4.375,1.156,8.469,3.813,11.671l-21.141,68.984
		c-6.547,2.203-11.422,7.891-11.938,14.875c-0.688,9.359,6.781,17.484,16.688,18.141c9.891,0.641,18.469-6.438,19.156-15.797
		c0.328-4.391-1.156-8.484-3.813-11.672L420,415.511z"/>
	<path class="st0" d="M471.047,438.651l-38.016-9.5L418,480.854l38.016,9.5c7.078,1.844,14.406-2.094,16.344-8.797l7.984-27.422
		C482.281,447.433,478.125,440.495,471.047,438.651z"/>
	<path class="st0" d="M187.141,274.871v28.578c0,5.156,4.188,9.344,9.359,9.344h22.813c5.172,0,9.359-4.188,9.359-9.344v-23.922
		h7.797v23.922c0,5.156,4.188,9.344,9.344,9.344h22.828c5.172,0,9.359-4.188,9.359-9.344v-23.922h7.781v23.922
		c0,5.156,4.188,9.344,9.359,9.344h22.828c5.156,0,9.344-4.188,9.344-9.344v-28.578c23.781-7.219,63.5-23.984,77-57.859
		c9.828-24.641,5.984-57.063-8.719-119.578C380.875,34.917,338.125-0.004,257.234-0.004c-80.906,0-123.656,34.922-138.359,97.438
		c-14.719,62.516-18.563,94.938-8.734,119.578C123.641,250.886,163.359,267.652,187.141,274.871z M313.672,112.808
		c21.516-3.672,42.5,14.031,46.859,39.547s-9.547,49.188-31.063,52.875c-21.516,3.672-42.5-14.031-46.859-39.547
		C278.25,140.152,292.156,116.496,313.672,112.808z M257.234,197.558l20.672,25.859h-20.672h-20.688L257.234,197.558z
		 M153.922,152.355c4.375-25.516,25.344-43.219,46.859-39.547c21.531,3.688,35.438,27.344,31.063,52.875
		c-4.359,25.516-25.344,43.219-46.859,39.547C163.469,201.542,149.563,177.871,153.922,152.355z"/>
</g>
</svg>