<svg width="2795" height="206" viewBox="0 0 2795 206" fill="none" xmlns="http://www.w3.org/2000/svg">
<path fill-rule="evenodd" clip-rule="evenodd" d="M649.222 185.925C685.696 187.359 722.221 186.776 758.631 184.179L759.983 203.131C722.875 205.778 685.649 206.372 648.475 204.91L649.222 185.925ZM1963.51 179.462C2002.47 182.844 2041.59 183.916 2080.68 182.672L2081.28 201.662C2041.45 202.93 2001.57 201.838 1961.86 198.391L1963.51 179.462ZM486.416 165.929C504.305 169.651 522.27 172.871 540.288 175.592L537.452 194.379C519.087 191.606 500.779 188.324 482.546 184.531L433.736 174.377L437.605 155.775L486.416 165.929ZM2197.41 172.017C2216.71 169.095 2235.95 165.6 2255.1 161.529L2300.28 151.926L2304.23 170.511L2259.05 180.114C2239.53 184.263 2219.93 187.825 2200.26 190.803L2197.41 172.017ZM867.179 170.375C885.102 167.082 902.955 163.289 920.716 158.999L977.771 145.217L982.232 163.686L925.178 177.468C907.076 181.84 888.88 185.705 870.614 189.062L867.179 170.375ZM1790.51 148.803C1809.41 153.916 1828.42 158.459 1847.53 162.433L1843.67 181.035C1824.19 176.985 1804.81 172.354 1785.54 167.143L1750.31 157.613L1755.28 139.272L1790.51 148.803ZM242.365 115.16L339.985 135.468L336.116 154.07L238.496 133.762L242.365 115.16ZM2390.64 132.721L2480.99 113.516L2484.94 132.1L2394.59 151.306L2390.64 132.721ZM1649.59 110.68L1684.82 120.211L1679.86 138.552L1644.63 129.021C1631.3 125.415 1617.91 122.093 1604.48 119.054L1608.67 100.522C1622.36 103.619 1636 107.005 1649.59 110.68ZM1091.88 117.654L1148.93 103.872C1162.61 100.568 1176.34 97.554 1190.12 94.8303L1193.8 113.469C1180.29 116.142 1166.82 119.099 1153.4 122.341L1096.34 136.123L1091.88 117.654ZM95.9348 84.699L144.745 94.8527L140.875 113.455L92.0652 103.301L95.9348 84.699ZM2571.35 94.3103L2616.52 84.7077L2620.48 103.292L2575.3 112.895L2571.35 94.3103ZM1441.83 77.1973C1469.87 78.7516 1497.87 81.4772 1525.74 85.3731L1523.11 104.19C1495.76 100.368 1468.3 97.6932 1440.78 96.1681L1441.83 77.1973ZM1273.43 81.9422C1301.39 78.8055 1329.45 76.8421 1357.53 76.051L1358.07 95.0434C1330.51 95.8197 1302.98 97.7462 1275.55 100.824L1273.43 81.9422Z" fill="#52390f"/>
<path d="M62 77.5C62 94.6208 48.1208 108.5 31 108.5C13.8792 108.5 0 94.6208 0 77.5C0 60.3792 13.8792 46.5 31 46.5C48.1208 46.5 62 60.3792 62 77.5Z" fill="#52390f"/>
<path fill-rule="evenodd" clip-rule="evenodd" d="M2768.06 156.935L2638.56 27.435L2665.43 0.564941L2794.93 130.065L2768.06 156.935Z" fill="#52390f"/>
<path fill-rule="evenodd" clip-rule="evenodd" d="M2638.56 130.065L2768.07 0.56494L2794.94 27.435L2665.44 156.935L2638.56 130.065Z" fill="#52390f"/>
</svg>
