<svg width="64" height="70" viewBox="0 0 64 70" fill="none" xmlns="http://www.w3.org/2000/svg">
<path d="M63.95 35.4C63.3833 43.2 60.2834 49.9167 54.65 55.55C48.3834 61.7834 40.8333 64.9 32 64.9C23.1333 64.9 15.5833 61.7834 9.35001 55.55C4.15001 50.35 1.11667 44.2167 0.25 37.15L0.100006 35.45L0 32.9C0 31.4667 0.0833333 30.0667 0.25 28.7C1.11667 21.6334 4.15001 15.5 9.35001 10.3C15.5833 4.03336 23.1333 0.900024 32 0.900024C40.8333 0.900024 48.3834 4.03336 54.65 10.3C60.8834 16.5334 64 24.0667 64 32.9L63.95 35.4ZM57.05 32.9C57.05 26 54.6333 20.1167 49.8 15.25C44.8667 10.3167 38.9333 7.85002 32 7.85002C25.1 7.85002 19.2 10.3167 14.3 15.25C9.39999 20.1167 6.95001 26 6.95001 32.9C6.95001 39.8667 9.39999 45.8 14.3 50.7C19.2 55.5334 25.1 57.95 32 57.95C38.9333 57.95 44.8667 55.5334 49.8 50.7C54.6333 45.8 57.05 39.8667 57.05 32.9Z" fill="white"/>
<path d="M57.05 32.9C57.05 39.8666 54.6333 45.8 49.8 50.7C44.8667 55.5333 38.9333 57.95 32 57.95C25.1 57.95 19.2 55.5333 14.3 50.7C9.39999 45.8 6.95001 39.8666 6.95001 32.9C6.95001 26 9.39999 20.1166 14.3 15.25C19.2 10.3166 25.1 7.84998 32 7.84998C38.9333 7.84998 44.8667 10.3166 49.8 15.25C54.6333 20.1166 57.05 26 57.05 32.9ZM45.85 18.05C43.3167 15.5166 40.5667 13.9833 37.6 13.45C34.5667 12.85 32.2 13.4 30.5 15.1L30.45 15.15C27.9167 17.6833 26.6667 20.7333 26.7 24.3C26.6667 27.9 27.9167 30.9666 30.45 33.5C33.0167 36.0666 36.1 37.3333 39.7 37.3C43.2333 37.3 46.2667 36.0333 48.8 33.5L48.85 33.45C50.5167 31.7166 51.1 29.3833 50.6 26.45C50 23.4166 48.4167 20.6166 45.85 18.05ZM18.55 48.4C20.15 50 21.8833 50.9833 23.75 51.35C25.65 51.75 27.1667 51.4 28.3 50.3C29.9 48.7 30.7 46.75 30.7 44.45C30.7 42.1833 29.9 40.2333 28.3 38.6C26.6667 37 24.7167 36.2 22.45 36.2C20.1833 36.2 18.25 37 16.65 38.6L16.6 38.65C15.5333 39.75 15.1833 41.25 15.55 43.15C15.9167 45.05 16.9167 46.8 18.55 48.4Z" fill="#33291E"/>
<path d="M18.55 48.4C16.9167 46.8 15.9167 45.05 15.55 43.15C15.1833 41.25 15.5333 39.75 16.6 38.65L16.65 38.6C18.25 37 20.1834 36.2 22.45 36.2C24.7167 36.2 26.6667 37 28.3 38.6C29.9 40.2333 30.7 42.1833 30.7 44.45C30.7 46.75 29.9 48.7 28.3 50.3C27.1667 51.4 25.65 51.75 23.75 51.35C21.8833 50.9833 20.15 50 18.55 48.4ZM45.85 18.05C48.4167 20.6167 50 23.4167 50.6 26.45C51.1 29.3833 50.5167 31.7167 48.85 33.45L48.8 33.5C46.2667 36.0333 43.2334 37.3 39.7 37.3C36.1 37.3333 33.0167 36.0667 30.45 33.5C27.9167 30.9667 26.6667 27.9 26.7 24.3C26.6667 20.7333 27.9167 17.6833 30.45 15.15L30.5 15.1C32.2 13.4 34.5667 12.85 37.6 13.45C40.5667 13.9833 43.3167 15.5167 45.85 18.05Z" fill="#4F3F2F"/>
<path d="M63.95 35.4L64 37.9C64 46.7667 60.8834 54.3167 54.65 60.55C48.3834 66.7834 40.8333 69.9 32 69.9C23.1333 69.9 15.5833 66.7834 9.35001 60.55C4.15001 55.35 1.11667 49.2167 0.25 42.15C0.0833333 40.7834 0 39.3667 0 37.9L0.100006 35.45L0.25 37.15C1.11667 44.2167 4.15001 50.35 9.35001 55.55C15.5833 61.7834 23.1333 64.9 32 64.9C40.8333 64.9 48.3834 61.7834 54.65 55.55C60.2834 49.9167 63.3833 43.2 63.95 35.4Z" fill="black" fill-opacity="0.101961"/>
</svg>
