<svg width="32" height="33" viewBox="0 0 32 33" fill="none" xmlns="http://www.w3.org/2000/svg">
<path d="M6.85 31.75C6.05 32.5167 5.1 32.9 4 32.9C2.9 32.9 1.96666 32.5167 1.2 31.75C0.399997 30.95 0 30 0 28.9C0 27.8 0.399997 26.8667 1.2 26.1L10.35 16.9L1.2 7.75C0.399997 6.95 0 5.99999 0 4.89999C0 3.79999 0.399997 2.86666 1.2 2.09999C1.96666 1.29999 2.9 0.899994 4 0.899994C5.1 0.899994 6.05 1.29999 6.85 2.09999L16 11.25L25.2 2.09999C25.9667 1.29999 26.9 0.899994 28 0.899994C29.1 0.899994 30.05 1.29999 30.85 2.09999C31.6167 2.86666 32 3.79999 32 4.89999C32 5.99999 31.6167 6.95 30.85 7.75L21.65 16.9L30.85 26.1C31.6167 26.8667 32 27.8 32 28.9C32 30 31.6167 30.95 30.85 31.75C30.05 32.5167 29.1 32.9 28 32.9C26.9 32.9 25.9667 32.5167 25.2 31.75L16 22.55L6.85 31.75Z" fill="#33291E"/>
</svg>
