<svg width="64" height="70" viewBox="0 0 64 70" fill="none" xmlns="http://www.w3.org/2000/svg">
<path d="M56.4 32.9C56.4 26.1667 54.0333 20.4167 49.3 15.65C44.5333 10.8834 38.7667 8.50002 32 8.50002C25.2667 8.50002 19.5333 10.8834 14.8 15.65C9.99999 20.4167 7.60001 26.1667 7.60001 32.9C7.60001 39.6667 9.99999 45.4167 14.8 50.15C19.5333 54.9167 25.2667 57.3 32 57.3C38.7667 57.3 44.5333 54.9167 49.3 50.15C54.0333 45.4167 56.4 39.6667 56.4 32.9ZM0.100006 35.4L0 32.9C0 24.0667 3.11667 16.5334 9.35001 10.3C15.5833 4.03336 23.1333 0.900024 32 0.900024C40.8333 0.900024 48.3833 4.03336 54.65 10.3C60.8833 16.5334 64 24.0667 64 32.9L63.95 35.4C63.3833 43.2 60.2833 49.9167 54.65 55.55C48.3833 61.7834 40.8333 64.9 32 64.9C23.1333 64.9 15.5833 61.7834 9.35001 55.55C3.71667 49.9167 0.633339 43.2 0.100006 35.4Z" fill="white"/>
<path d="M16.95 32.2L16.9 32.9C16.9 37.0667 18.3666 40.6167 21.3 43.55C24.2666 46.5167 27.8333 48 32 48C36.1666 48 39.75 46.5167 42.75 43.55C45.65 40.6167 47.1 37.0667 47.1 32.9C47.1 28.7 45.65 25.1333 42.75 22.2C39.75 19.2667 36.1666 17.8 32 17.8C29.6 17.8 27.4 18.3 25.4 19.3C24.0666 18.3 22.5333 17.8 20.8 17.8C18.6666 17.8 16.85 18.55 15.35 20.05C13.85 21.55 13.1 23.3667 13.1 25.5C13.1 27.6333 13.85 29.45 15.35 30.95L16.95 32.2ZM56.4 32.9C56.4 39.6667 54.0333 45.4167 49.3 50.15C44.5333 54.9167 38.7666 57.3 32 57.3C25.2666 57.3 19.5333 54.9167 14.8 50.15C9.99996 45.4167 7.59998 39.6667 7.59998 32.9C7.59998 26.1667 9.99996 20.4167 14.8 15.65C19.5333 10.8833 25.2666 8.5 32 8.5C38.7666 8.5 44.5333 10.8833 49.3 15.65C54.0333 20.4167 56.4 26.1667 56.4 32.9Z" fill="#FF4362"/>
<path d="M25.4 19.3C27.4 18.3 29.6 17.8 32 17.8C36.1667 17.8 39.75 19.2667 42.75 22.2C45.65 25.1333 47.1 28.7 47.1 32.9C47.1 37.0667 45.65 40.6167 42.75 43.55C39.75 46.5167 36.1667 48 32 48C27.8333 48 24.2667 46.5167 21.3 43.55C18.3667 40.6167 16.9 37.0667 16.9 32.9L16.95 32.2C18.0833 32.8667 19.3667 33.2 20.8 33.2C22.9333 33.2 24.7667 32.45 26.3 30.95C27.7667 29.45 28.5 27.6333 28.5 25.5C28.5 23.3667 27.7667 21.55 26.3 20.05L25.4 19.3Z" fill="#33291E"/>
<path d="M63.95 35.4L64 37.9C64 46.7667 60.8833 54.3167 54.65 60.55C48.3833 66.7834 40.8333 69.9 32 69.9C23.1333 69.9 15.5833 66.7834 9.35001 60.55C3.11667 54.3167 0 46.7667 0 37.9L0.100006 35.4C0.633339 43.2 3.71667 49.9167 9.35001 55.55C15.5833 61.7834 23.1333 64.9 32 64.9C40.8333 64.9 48.3833 61.7834 54.65 55.55C60.2833 49.9167 63.3833 43.2 63.95 35.4Z" fill="black" fill-opacity="0.101961"/>
<path d="M25.4 19.3L26.3 20.05C27.7667 21.55 28.5 23.3667 28.5 25.5C28.5 27.6333 27.7667 29.45 26.3 30.95C24.7667 32.45 22.9333 33.2 20.8 33.2C19.3667 33.2 18.0833 32.8667 16.95 32.2C17.0833 28.3 18.5333 24.9667 21.3 22.2C22.5667 20.9667 23.9333 20 25.4 19.3Z" fill="#4F3F2F"/>
<path d="M25.4 19.3C23.9333 20 22.5667 20.9667 21.3 22.2C18.5333 24.9667 17.0833 28.3 16.95 32.2L15.35 30.95C13.85 29.45 13.1 27.6333 13.1 25.5C13.1 23.3667 13.85 21.55 15.35 20.05C16.85 18.55 18.6667 17.8 20.8 17.8C22.5333 17.8 24.0667 18.3 25.4 19.3Z" fill="#FF6B83"/>
</svg>
