<svg width="64" height="70" viewBox="0 0 64 70" fill="none" xmlns="http://www.w3.org/2000/svg">
<path d="M63.95 35.4C63.3833 43.2 60.2833 49.9167 54.65 55.55C48.3833 61.7834 40.8333 64.9 32 64.9C23.1333 64.9 15.5833 61.7834 9.35001 55.55C3.71667 49.9167 0.633339 43.2 0.100006 35.4L0 32.9C0 24.0667 3.11667 16.5334 9.35001 10.3C15.5833 4.03336 23.1333 0.900024 32 0.900024C40.8333 0.900024 48.3833 4.03336 54.65 10.3C60.8833 16.5334 64 24.0667 64 32.9L63.95 35.4ZM59.6 32.9C59.6 25.3 56.9167 18.8167 51.55 13.45C49.65 11.55 47.6167 10 45.45 8.80003C41.45 6.50003 36.9667 5.35002 32 5.35002C27.1333 5.35002 22.7333 6.45002 18.8 8.65002C16.5333 9.88336 14.4333 11.4834 12.5 13.45C7.13333 18.8167 4.45001 25.3 4.45001 32.9C4.45001 40.5667 7.13333 47.0834 12.5 52.45C17.8667 57.8167 24.3667 60.5 32 60.5C39.6333 60.5 46.15 57.8167 51.55 52.45C56.9167 47.0834 59.6 40.5667 59.6 32.9Z" fill="#FFD52E"/>
<path d="M59.6 32.9C59.6 40.5666 56.9167 47.0833 51.55 52.45C46.15 57.8166 39.6333 60.5 32 60.5C24.3667 60.5 17.8667 57.8166 12.5 52.45C7.13333 47.0833 4.45001 40.5666 4.45001 32.9C4.45001 25.3 7.13333 18.8166 12.5 13.45C14.4333 11.4833 16.5333 9.88331 18.8 8.64998C22.7333 6.44998 27.1333 5.34998 32 5.34998C36.9667 5.34998 41.45 6.49998 45.45 8.79998C47.6167 9.99998 49.65 11.55 51.55 13.45C56.9167 18.8166 59.6 25.3 59.6 32.9ZM37.05 17.15C35.75 15.5166 34.3833 14.2 32.95 13.2C32.6833 13 32.3833 12.9 32.05 12.9C31.7167 12.9 31.4167 13 31.15 13.2C29.6833 14.2 28.3167 15.5166 27.05 17.15C23.6833 21.5166 22 26.7666 22 32.9C22 39.0333 23.6833 44.2666 27.05 48.6C28.3167 50.2333 29.6833 51.5666 31.15 52.6L32.05 52.9L32.95 52.6C34.3833 51.5666 35.75 50.2333 37.05 48.6C40.3833 44.2666 42.05 39.0333 42.05 32.9C42.05 26.7666 40.3833 21.5166 37.05 17.15Z" fill="#FFB600"/>
<path d="M37.05 17.15C40.3833 21.5167 42.05 26.7667 42.05 32.9C42.05 39.0334 40.3833 44.2667 37.05 48.6C35.75 50.2334 34.3833 51.5667 32.95 52.6L32.05 52.9L31.15 52.6C29.6833 51.5667 28.3167 50.2334 27.05 48.6C23.6833 44.2667 22 39.0334 22 32.9C22 26.7667 23.6833 21.5167 27.05 17.15C28.3167 15.5167 29.6833 14.2 31.15 13.2C31.4167 13 31.7167 12.9 32.05 12.9C32.3833 12.9 32.6833 13 32.95 13.2C34.3833 14.2 35.75 15.5167 37.05 17.15ZM26.25 27.6V27.75C26.2833 28.8834 27.1 29.85 28.7 30.65H28.75L30.75 31.4L32 31.6L33.3 31.4L33.25 31.45L35.3 30.65C36.9 29.85 37.7167 28.8834 37.75 27.75V27.6C37.75 24.6334 36.9333 22.1 35.3 20L35.25 19.95L33.25 18.05H33.3L32 17.65C31.4667 17.65 31.05 17.7834 30.75 18.05C30.0167 18.55 29.35 19.2 28.75 20C27.0833 22.1 26.25 24.6334 26.25 27.6Z" fill="#33291E"/>
<path d="M26.25 27.6C26.25 24.6334 27.0833 22.1 28.75 20C29.35 19.2 30.0167 18.55 30.75 18.05C31.05 17.7834 31.4667 17.65 32 17.65L33.3 18.05H33.25L35.25 19.95L35.3 20C36.9333 22.1 37.75 24.6334 37.75 27.6V27.75C37.7167 28.8834 36.9 29.85 35.3 30.65L33.25 31.45L33.3 31.4L32 31.6L30.75 31.4L28.75 30.65H28.7C27.1 29.85 26.2833 28.8834 26.25 27.75V27.6Z" fill="#4F3F2F"/>
<path d="M63.95 35.4L64 37.9C64 46.7667 60.8833 54.3167 54.65 60.55C48.3833 66.7834 40.8333 69.9 32 69.9C23.1333 69.9 15.5833 66.7834 9.35001 60.55C3.11667 54.3167 0 46.7667 0 37.9L0.100006 35.4C0.633339 43.2 3.71667 49.9167 9.35001 55.55C15.5833 61.7834 23.1333 64.9 32 64.9C40.8333 64.9 48.3833 61.7834 54.65 55.55C60.2833 49.9167 63.3833 43.2 63.95 35.4Z" fill="black" fill-opacity="0.101961"/>
</svg>
