<svg width="82" height="177" viewBox="0 0 82 177" fill="none" xmlns="http://www.w3.org/2000/svg">
<path d="M44.2364 45.55L48.7864 47.8C54.9864 50.2334 61.1531 50.1167 67.2864 47.45C73.4531 44.7833 77.7697 40.3334 80.2364 34.1C82.6697 27.9 82.5531 21.7334 79.8864 15.6C77.2197 9.43337 72.7697 5.11669 66.5364 2.65002C60.3364 0.21669 54.1531 0.333332 47.9864 3C41.8531 5.66667 37.5531 10.1167 35.0864 16.35C33.2197 21.0834 32.8364 25.8 33.9364 30.5C34.3031 31.9667 34.8031 33.4334 35.4364 34.9C37.4031 39.4334 40.3364 42.9834 44.2364 45.55ZM3.9864 99.4L5.1364 107.85C9.96973 103.65 15.6697 101 22.2364 99.9L22.0864 97.15C15.4531 96.0167 9.41974 96.7667 3.9864 99.4ZM54.0364 154.15L64.4864 157.35L67.5864 157.4C68.5531 157.1 69.4364 156.567 70.2364 155.8C70.9697 155.033 71.4531 154.133 71.6864 153.1C71.9864 151.9 72.2031 150.65 72.3364 149.35C73.3031 141.15 71.1697 133.767 65.9364 127.2C62.8697 123.367 59.2697 120.5 55.1364 118.6C55.1697 119.533 54.9697 120.45 54.5364 121.35C49.4364 132.017 49.2697 142.95 54.0364 154.15Z" fill="#DBDBDB"/>
<path d="M54.0364 154.15C49.2697 142.95 49.4364 132.017 54.5364 121.35C54.9697 120.45 55.1697 119.533 55.1364 118.6L55.0364 117.65C54.7364 116.317 54.0864 115.233 53.0864 114.4C47.9531 109.933 42.5697 106.417 36.9364 103.85C31.5031 101.383 26.6031 100.067 22.2364 99.9C15.6697 101 9.96973 103.65 5.13639 107.85C0.936395 113.217 -0.0969298 121.15 2.0364 131.65C4.20307 142.55 9.60307 153.517 18.2364 164.55L18.4364 164.7C23.6031 171.167 30.2864 174.867 38.4864 175.8H38.5864C45.5197 176.633 51.8197 175.25 57.4864 171.65C58.4197 171.117 59.1031 170.367 59.5364 169.4C60.0697 168.467 60.2864 167.467 60.1864 166.4C60.1531 165.333 59.8197 164.367 59.1864 163.5C57.0864 160.367 55.3697 157.25 54.0364 154.15ZM33.9364 30.5C11.8364 51.1333 1.85307 74.1 3.9864 99.4C9.41973 96.7667 15.4531 96.0167 22.0864 97.15C21.0531 78.3167 28.4364 61.1167 44.2364 45.55C40.3364 42.9834 37.4031 39.4334 35.4364 34.9C34.8031 33.4334 34.3031 31.9667 33.9364 30.5Z" fill="#EEECEC"/>
</svg>
