<svg width="72" height="150" viewBox="0 0 72 150" fill="none" xmlns="http://www.w3.org/2000/svg">
<path d="M63.7801 116.5C64.1134 112.567 63.5467 108.567 62.0801 104.5C54.8467 83 55.0301 60.55 62.6301 37.15C68.7967 17.7167 63.1467 5.80002 45.68 1.40002C35.8467 -0.633316 28.2968 3.64999 23.0301 14.25C0.696753 57.6167 -4.78659 94.3834 6.58007 124.55C8.38007 129.583 11.1634 133.7 14.93 136.9C15.4634 135.467 16.4968 134.35 18.0301 133.55C19.7634 132.65 21.6301 132.45 23.6301 132.95C24.8301 133.217 25.7301 134.083 26.3301 135.55C26.8967 136.917 26.9801 138.5 26.5801 140.3H26.6301L26.18 141.7L25.8301 142.8C30.3967 144.233 34.9801 144.483 39.5801 143.55L38.68 142.15L38.18 141.2V141.1C37.3467 139.567 37.2968 137.883 38.0301 136.05C38.7968 134.25 40.0967 132.883 41.93 131.95C43.0634 131.417 44.3134 131.5 45.68 132.2C47.0134 132.933 48.0967 134.083 48.93 135.65L48.98 135.7L49.5301 137L50.43 139.3C54.6967 136.6 58.03 132.95 60.43 128.35L58.8301 127.7L57.8801 127.15H57.8301C56.2634 126.317 55.2634 124.917 54.8301 122.95C54.4301 121.05 54.7134 119.217 55.68 117.45C56.28 116.35 57.3968 115.7 59.0301 115.5C60.4634 115.333 61.9634 115.65 63.5301 116.45L63.6301 116.4L63.7801 116.5Z" fill="#EEECEC"/>
<path d="M63.7801 116.5L63.63 116.4L63.5301 116.45C61.9634 115.65 60.4634 115.333 59.0301 115.5C57.3967 115.7 56.28 116.35 55.68 117.45C54.7134 119.217 54.4301 121.05 54.8301 122.95C55.2634 124.917 56.2634 126.317 57.8301 127.15H57.88L58.8301 127.7L60.43 128.35L65.5301 128.8C67.9967 128.433 69.7634 127.35 70.8301 125.55C71.3634 124.45 70.9301 123 69.5301 121.2C68.4301 119.733 66.8634 118.4 64.8301 117.2C64.5301 117 64.1801 116.767 63.7801 116.5ZM14.93 136.9L14.8301 137.5L14.7801 137.55L14.48 138.6C14.18 141.067 14.4134 143.3 15.18 145.3C16.1467 147.633 17.6467 149.083 19.68 149.65C20.88 149.883 22.1634 149.083 23.5301 147.25C24.4301 146.05 25.1967 144.567 25.8301 142.8L26.18 141.7L26.63 140.3H26.5801C26.9801 138.5 26.8967 136.917 26.3301 135.55C25.7301 134.083 24.83 133.217 23.63 132.95C21.63 132.45 19.7634 132.65 18.0301 133.55C16.4967 134.35 15.4634 135.467 14.93 136.9ZM39.5801 143.55C40.7134 144.983 41.9967 146.1 43.43 146.9C45.6967 148.067 47.7634 148.183 49.63 147.25C50.7967 146.683 51.2967 145.267 51.13 143C51.0634 141.8 50.83 140.567 50.43 139.3L49.5301 137L48.98 135.7L48.93 135.65C48.0967 134.083 47.0134 132.933 45.68 132.2C44.3134 131.5 43.0634 131.417 41.93 131.95C40.0967 132.883 38.7967 134.25 38.0301 136.05C37.2967 137.883 37.3467 139.567 38.18 141.1V141.2L38.68 142.15L39.5801 143.55Z" fill="#DBDBDB"/>
</svg>
