<svg width="92" height="197" viewBox="0 0 92 197" fill="none" xmlns="http://www.w3.org/2000/svg">
<path d="M58.0544 60.5L65.4044 61.2C69.0377 61.1334 72.7877 60.0001 76.6544 57.8001C83.9544 53.5667 88.7044 47.3834 90.9044 39.25C93.071 31.2167 92.021 23.55 87.7544 16.25C83.621 9.01669 77.5044 4.26669 69.4044 2.00003C61.2377 -0.133306 53.521 0.88341 46.2544 5.05008C38.9544 9.28341 34.2544 15.4334 32.1544 23.5C31.0877 27.3667 30.7544 31.1334 31.1544 34.8001C31.4544 37.6334 32.1877 40.4334 33.3544 43.2C37.1877 50.3 43.421 55.4501 52.0544 58.6501L58.0544 60.5ZM52.6544 149.15C53.3544 148.75 54.0877 148.467 54.8544 148.3C50.6544 142.167 47.7711 136.083 46.2044 130.05L46.0044 130.15L42.4544 131.85C44.9544 138.317 48.3544 144.083 52.6544 149.15Z" fill="#DBDBDB"/>
<path d="M52.6544 149.15C48.3544 144.083 44.9544 138.317 42.4544 131.85C34.3877 106.917 39.5877 83.1333 58.0544 60.5L52.0544 58.65C43.421 55.45 37.1877 50.3 33.3544 43.2C32.1877 40.4333 31.4544 37.6334 31.1544 34.8C-7.1123 79.1334 -9.54562 126.667 23.8544 177.4C28.8544 185.8 36.0044 192.083 45.3044 196.25L52.8544 196.5C55.421 195.5 57.271 193.767 58.4044 191.3C58.971 190 59.2544 188.717 59.2544 187.45L64.0044 187.2C66.771 186.9 69.021 185.717 70.7544 183.65C72.4544 181.517 73.1877 179.083 72.9544 176.35L72.9044 175.85L77.5044 174.45C80.071 173.45 81.9377 171.717 83.1044 169.25C84.271 166.75 84.371 164.217 83.4044 161.65C82.471 159.083 80.7544 157.233 78.2544 156.1C75.7877 154.967 73.271 154.867 70.7044 155.8C63.771 158.333 58.121 156.533 53.7544 150.4L52.6544 149.15ZM54.8544 148.3L57.2044 147.9L61.1044 148.15L63.0544 148.35C65.021 148.317 66.8544 147.717 68.5544 146.55C70.7877 145.017 72.171 142.9 72.7044 140.2C73.2044 137.5 72.6877 135.05 71.1544 132.85C69.621 130.583 67.5044 129.183 64.8044 128.65C58.8044 127.517 53.3044 127.733 48.3044 129.3C47.6044 129.5 46.9044 129.75 46.2044 130.05C47.7711 136.083 50.6544 142.167 54.8544 148.3Z" fill="#EEECEC"/>
</svg>
