<svg width="75" height="43" viewBox="0 0 75 43" fill="none" xmlns="http://www.w3.org/2000/svg">
<path d="M48.55 8.85L52.4 16.2C52.8334 17.0333 53.5167 17.6333 54.45 18C55.35 18.3333 56.25 18.3333 57.15 18C58.0834 17.6333 58.7667 17.0333 59.2 16.2L64.1 6.85C71 16.15 74.3167 26.25 74.05 37.15C73.9834 37.85 73.75 38.4667 73.35 39C72.85 39.6 72.2333 39.9667 71.5 40.1C70.7333 40.2 70.0167 40.0666 69.35 39.7L58.3 33.8L52.2 41.1V40.8C52.2 36.6 50.7167 33.0167 47.75 30.05C44.8167 27.1167 41.25 25.65 37.05 25.65C32.85 25.65 29.2667 27.1167 26.3 30.05C23.3667 33.0167 21.9 36.6 21.9 40.8L21.95 41.9H21.9L20.35 41.5L19.1 40.35L14.45 32.2L4.00002 34.9L1.85002 34.75C1.08335 34.3833 0.550017 33.85 0.250017 33.15C-0.0166495 32.45 -0.0333192 31.7333 0.200014 31C2.80001 23.3 6.60002 16.25 11.6 9.85L14.9 16.2C15.3334 17.0333 16.0167 17.6333 16.95 18C17.85 18.3333 18.75 18.3333 19.65 18C20.5834 17.6333 21.2667 17.0333 21.7 16.2L26.85 6.35L27.2 5.54999L29.9 8.14999L38.75 2.44998C39.3833 2.01665 40.0667 1.83332 40.8 1.89999C41.5667 1.99999 42.2334 2.31667 42.8 2.85L48.55 8.85Z" fill="#33291E"/>
<path d="M48.55 8.85001L48.75 9.04999L56.2 2.44998C56.6333 2.08332 57.1166 1.83332 57.65 1.69998H58.85L59.3 1.79999C59.8333 1.96665 60.3166 2.28333 60.75 2.75L64.1 6.85001L59.2 16.2C58.7666 17.0333 58.0833 17.6333 57.15 18C56.25 18.3333 55.35 18.3333 54.45 18C53.5166 17.6333 52.8333 17.0333 52.4 16.2L48.55 8.85001ZM27.2 5.54999L26.85 6.35001L21.7 16.2C21.2666 17.0333 20.5833 17.6333 19.65 18C18.75 18.3333 17.85 18.3333 16.95 18C16.0166 17.6333 15.3333 17.0333 14.9 16.2L11.6 9.85001C13.2333 7.71667 15 5.64999 16.9 3.64999L18.8 1.75C19.2666 1.31667 19.8333 1.04998 20.5 0.949982L21 0.899994C21.9 0.899994 22.6666 1.18333 23.3 1.75L27.2 5.54999Z" fill="white"/>
<path d="M21.95 41.9L21.9 40.8C21.9 36.6 23.3667 33.0167 26.3 30.05C29.2667 27.1167 32.85 25.65 37.05 25.65C41.25 25.65 44.8167 27.1167 47.75 30.05C50.7167 33.0167 52.2 36.6 52.2 40.8V41.1L51.6 41.8C51.0667 42.4 50.4 42.75 49.6 42.85C48.8 43.0167 48.0667 42.8667 47.4 42.4L34.7 34.3L23.55 41.35C23.05 41.6833 22.5167 41.8667 21.95 41.9Z" fill="#FF4362"/>
</svg>
