<svg width="79" height="39" viewBox="0 0 79 39" fill="none" xmlns="http://www.w3.org/2000/svg">
<path d="M24.15 36.7C17.2167 34.3667 10.9834 30.4 5.45003 24.8L5.40003 24.7L3.05004 22.1C0.783373 19.4 -0.216627 16.3 0.0500398 12.8C0.283373 9.26666 1.73336 6.35 4.40003 4.05C7.00003 1.75 10.0334 0.716658 13.5 0.949992L15.15 1.19999L13.05 9.00001C12.55 10.9 12.7834 12.7167 13.75 14.45C14.75 16.1833 16.2 17.3 18.1 17.8C20.0334 18.3 21.8167 18.05 23.45 17.05C25.1834 16.0833 26.3 14.6333 26.8 12.7L27.45 10.1C28.85 10.9333 30.3334 11.6167 31.9 12.15V18.75C31.9 20.75 32.5834 22.45 33.9501 23.85C35.3501 25.2833 37.0334 26 39 26C40.9667 26 42.6167 25.2833 43.9501 23.85C45.3834 22.45 46.1 20.75 46.1 18.75V12.15C47.6334 11.6167 49.1167 10.9333 50.55 10.1L51.25 12.75C51.7167 14.6833 52.8167 16.1333 54.55 17.1C56.2167 18.1333 58.0167 18.3833 59.9501 17.85C61.8167 17.35 63.2167 16.2333 64.15 14.5C65.15 12.7333 65.4167 10.9 64.9501 9.00001L62.9 1.19999L64.55 0.949992C67.9834 0.716658 71.0167 1.75 73.65 4.05C76.25 6.35 77.7 9.26666 78 12.8C78.2 16.3 77.1667 19.4 74.9 22.1L72.6 24.7V24.8C67 30.4333 60.75 34.4 53.85 36.7L53.6 36.45C49.5667 32.35 44.7 30.3 39 30.3C33.3 30.3 28.4167 32.35 24.35 36.45L24.15 36.7Z" fill="#33291E"/>
<path d="M46.1 12.15V18.75C46.1 20.75 45.3833 22.45 43.95 23.85C42.6167 25.2833 40.9667 26 39 26C37.0333 26 35.35 25.2833 33.95 23.85C32.5833 22.45 31.9 20.75 31.9 18.75V12.15C34.1 12.8833 36.4667 13.25 39 13.25C41.5 13.25 43.8667 12.8833 46.1 12.15ZM27.45 10.1L26.8 12.7C26.3 14.6333 25.1833 16.0833 23.45 17.05C21.8167 18.05 20.0333 18.3 18.1 17.8C16.2 17.3 14.75 16.1833 13.75 14.45C12.7833 12.7166 12.55 10.9 13.05 9L15.15 1.19998C17.8833 1.69998 20.1833 3.08334 22.05 5.35001L23.25 6.60001C24.55 8.00001 25.95 9.16667 27.45 10.1ZM62.9 1.19998L64.95 9C65.4167 10.9 65.15 12.7333 64.15 14.5C63.2167 16.2333 61.8167 17.35 59.95 17.85C58.0167 18.3833 56.2166 18.1333 54.55 17.1C52.8166 16.1333 51.7167 14.6833 51.25 12.75L50.55 10.1C52.0166 9.16667 53.4 8.00001 54.7 6.60001H54.8L55.9 5.35001C57.8 3.08334 60.1333 1.69998 62.9 1.19998Z" fill="white"/>
<path d="M24.15 36.7L24.35 36.45C28.4167 32.35 33.3 30.3 39 30.3C44.7 30.3 49.5667 32.35 53.6 36.45L53.85 36.7C49.1834 38.1666 44.2334 38.9 39 38.9C33.7 38.9 28.75 38.1666 24.15 36.7Z" fill="#FF4362"/>
</svg>
