<svg width="73" height="49" viewBox="0 0 73 49" fill="none" xmlns="http://www.w3.org/2000/svg">
<path d="M16.35 6.39999C21.75 2.93333 27.9 1.09999 34.8 0.899994H37.3C44.1333 1.09999 50.3167 2.94998 55.85 6.44998C55.3833 7.38332 54.6 8.15 53.5 8.75L51.8 9.64999L49.3 14.6L48.65 15.15H47.55L46.85 14.6L45.05 10.95C39.05 11.7166 33.1 11.75 27.2 11.05L25.4 14.6L24.7 15.15H23.7L23 14.6L20.5 9.69998L19 8.89999C17.7 8.29999 16.8167 7.46666 16.35 6.39999Z" fill="white"/>
<path d="M16.35 6.39999C16.8167 7.46666 17.7 8.29999 19 8.89999L20.5 9.69998L23 14.6L23.7 15.15H24.7L25.4 14.6L27.2 11.05C33.1 11.75 39.05 11.7166 45.05 10.95L46.85 14.6L47.55 15.15H48.65L49.3 14.6L51.8 9.64999L53.5 8.75C54.6 8.15 55.3833 7.38332 55.85 6.44998C57.7833 7.74998 59.65 9.26667 61.45 11C68.35 17.6 71.8833 25.5167 72.05 34.75V35.05C72.05 38.5167 69.1333 41.5333 63.3 44.1C62.5 42.9333 61.5167 41.8167 60.35 40.75C56.5833 37.0833 51.9833 35.25 46.55 35.25C42.6167 35.25 39.1167 36.2167 36.05 38.15C32.95 36.2167 29.4167 35.25 25.45 35.25C20.05 35.25 15.4333 37.0833 11.6 40.75C10.5 41.8167 9.55 42.9333 8.75 44.1C6.48333 43.1 4.65 42.0167 3.25 40.85C1.11667 39.0833 0.0499878 37.15 0.0499878 35.05V34.75C0.149988 29.75 1.21667 25.15 3.25 20.95C4.98333 17.35 7.41665 14.0333 10.55 11C12.3833 9.23333 14.3167 7.69999 16.35 6.39999Z" fill="#33291E"/>
<path d="M63.3 44.1L61.45 44.85C56.45 46.7833 50.75 48.0167 44.35 48.55L36.05 48.9L27.85 48.55C21.3167 48.0167 15.55 46.7833 10.55 44.85L8.75 44.1C9.55 42.9333 10.5 41.8167 11.6 40.75C15.4333 37.0833 20.05 35.25 25.45 35.25C29.4167 35.25 32.95 36.2167 36.05 38.15C39.1167 36.2167 42.6167 35.25 46.55 35.25C51.9833 35.25 56.5833 37.0833 60.35 40.75C61.5167 41.8167 62.5 42.9333 63.3 44.1Z" fill="#FF4362"/>
</svg>
