<svg width="67" height="27" viewBox="0 0 67 27" fill="none" xmlns="http://www.w3.org/2000/svg">
<path d="M25.95 1.39999L33 0.899994C37.0667 0.899994 40.9333 1.38334 44.6 2.35001C51.5667 4.11667 57.8333 7.58333 63.4 12.75C65.0667 14.2833 65.9333 16.1833 66 18.45C66.1 20.7166 65.35 22.6667 63.75 24.3C62.1833 25.9667 60.2667 26.85 58 26.95C55.7 27.0166 53.7167 26.2666 52.05 24.7L48.55 21.95V15.65C48.55 14.4833 47.95 13.9 46.75 13.9H41.9H41.7C39.2667 11.2333 36.3667 9.89999 33 9.89999C29.3333 9.89999 26.2167 11.4833 23.65 14.65C22.3167 16.3167 21.35 18.1333 20.75 20.1C18.3167 21.2667 16.0667 22.8 14 24.7C12.3 26.2666 10.3333 27.0166 8.10001 26.95C5.76668 26.85 3.83333 25.9667 2.29999 24.3C0.733325 22.6667 -0.0333293 20.7166 4.0849e-06 18.45C0.0666708 16.1833 0.933344 14.2833 2.60001 12.75C7.10001 8.61667 12.05 5.56667 17.45 3.60001V6.85001C17.45 8.05001 18.05 8.64999 19.25 8.64999H24.1C25.3333 8.64999 25.95 8.05001 25.95 6.85001V1.39999Z" fill="#33291E"/>
<path d="M25.95 1.39999V6.85001C25.95 8.05001 25.3333 8.64999 24.1 8.64999H19.25C18.05 8.64999 17.45 8.05001 17.45 6.85001V3.60001C18.7167 3.10001 20.0333 2.68334 21.4 2.35001L25.95 1.39999ZM41.7 13.9H41.9H46.75C47.95 13.9 48.55 14.4833 48.55 15.65V21.95L45.35 20.1C43.6833 19.2333 41.9333 18.6 40.1 18.2V15.65C40.1 14.55 40.6333 13.9667 41.7 13.9Z" fill="white"/>
<path d="M41.7 13.9C40.6333 13.9667 40.1 14.55 40.1 15.65V18.2L33 17.4C28.5333 17.4 24.45 18.3 20.75 20.1C21.35 18.1333 22.3167 16.3167 23.65 14.65C26.2167 11.4833 29.3333 9.89999 33 9.89999C36.3667 9.89999 39.2667 11.2333 41.7 13.9Z" fill="#FF4362"/>
</svg>
