<svg width="82" height="177" viewBox="0 0 82 177" fill="none" xmlns="http://www.w3.org/2000/svg">
<path d="M38.7 45.55L34.15 47.8C27.95 50.2334 21.7833 50.1167 15.65 47.45C9.48334 44.7833 5.16666 40.3334 2.7 34.1C0.266663 27.9 0.383336 21.7334 3.05 15.6C5.71667 9.43337 10.1667 5.11669 16.4 2.65002C22.6 0.21669 28.7833 0.333332 34.95 3C41.0833 5.66667 45.3833 10.1167 47.85 16.35C49.7167 21.0834 50.1 25.8 49 30.5C48.6333 31.9667 48.1333 33.4334 47.5 34.9C45.5333 39.4334 42.6 42.9834 38.7 45.55ZM78.95 99.4L77.8 107.85C72.9667 103.65 67.2667 101 60.7 99.9L60.85 97.15C67.4833 96.0167 73.5167 96.7667 78.95 99.4ZM28.9 154.15L18.45 157.35L15.35 157.4C14.3833 157.1 13.5 156.567 12.7 155.8C11.9667 155.033 11.4833 154.133 11.25 153.1C10.95 151.9 10.7333 150.65 10.6 149.35C9.63333 141.15 11.7667 133.767 17 127.2C20.0667 123.367 23.6667 120.5 27.8 118.6C27.7667 119.533 27.9667 120.45 28.4 121.35C33.5 132.017 33.6667 142.95 28.9 154.15Z" fill="#DBDBDB"/>
<path d="M28.9 154.15C33.6667 142.95 33.5 132.017 28.4 121.35C27.9667 120.45 27.7667 119.533 27.8 118.6L27.9 117.65C28.2 116.317 28.85 115.233 29.85 114.4C34.9833 109.933 40.3667 106.417 46 103.85C51.4333 101.383 56.3333 100.067 60.7 99.9C67.2667 101 72.9667 103.65 77.8 107.85C82 113.217 83.0333 121.15 80.9 131.65C78.7333 142.55 73.3333 153.517 64.7 164.55L64.5 164.7C59.3333 171.167 52.65 174.867 44.45 175.8H44.35C37.4167 176.633 31.1167 175.25 25.45 171.65C24.5167 171.117 23.8333 170.367 23.4 169.4C22.8667 168.467 22.65 167.467 22.75 166.4C22.7833 165.333 23.1167 164.367 23.75 163.5C25.85 160.367 27.5667 157.25 28.9 154.15ZM49 30.5C71.1 51.1333 81.0833 74.1 78.95 99.4C73.5167 96.7667 67.4833 96.0167 60.85 97.15C61.8833 78.3167 54.5 61.1167 38.7 45.55C42.6 42.9834 45.5333 39.4334 47.5 34.9C48.1333 33.4334 48.6333 31.9667 49 30.5Z" fill="#EEECEC"/>
</svg>
