<svg width="72" height="150" viewBox="0 0 72 150" fill="none" xmlns="http://www.w3.org/2000/svg">
<path d="M8.09995 116.5C7.76662 112.567 8.33329 108.567 9.79996 104.5C17.0333 83 16.85 60.55 9.24997 37.15C3.08331 17.7167 8.73332 5.80002 26.2 1.40002C36.0333 -0.633316 43.5833 3.64999 48.8499 14.25C71.1833 57.6167 76.6666 94.3834 65.3 124.55C63.5 129.583 60.7167 133.7 56.95 136.9C56.4167 135.467 55.3833 134.35 53.8499 133.55C52.1166 132.65 50.25 132.45 48.25 132.95C47.05 133.217 46.15 134.083 45.55 135.55C44.9833 136.917 44.9 138.5 45.3 140.3H45.25L45.7 141.7L46.05 142.8C41.4833 144.233 36.9 144.483 32.3 143.55L33.2 142.15L33.7 141.2V141.1C34.5333 139.567 34.5833 137.883 33.8499 136.05C33.0833 134.25 31.7833 132.883 29.95 131.95C28.8167 131.417 27.5667 131.5 26.2 132.2C24.8667 132.933 23.7833 134.083 22.95 135.65L22.9 135.7L22.3499 137L21.45 139.3C17.1833 136.6 13.85 132.95 11.45 128.35L13.05 127.7L14 127.15H14.05C15.6166 126.317 16.6166 124.917 17.05 122.95C17.45 121.05 17.1667 119.217 16.2 117.45C15.6 116.35 14.4833 115.7 12.8499 115.5C11.4166 115.333 9.91662 115.65 8.34995 116.45L8.24997 116.4L8.09995 116.5Z" fill="#EEECEC"/>
<path d="M8.09996 116.5L8.24999 116.4L8.34996 116.45C9.91663 115.65 11.4166 115.333 12.85 115.5C14.4833 115.7 15.6 116.35 16.2 117.45C17.1667 119.217 17.45 121.05 17.05 122.95C16.6166 124.917 15.6166 126.317 14.05 127.15H14L13.05 127.7L11.45 128.35L6.34996 128.8C3.8833 128.433 2.11664 127.35 1.04998 125.55C0.516643 124.45 0.949964 123 2.34996 121.2C3.44996 119.733 5.01664 118.4 7.04998 117.2C7.34998 117 7.69996 116.767 8.09996 116.5ZM56.95 136.9L57.05 137.5L57.1 137.55L57.4 138.6C57.7 141.067 57.4667 143.3 56.7 145.3C55.7333 147.633 54.2333 149.083 52.2 149.65C51 149.883 49.7166 149.083 48.35 147.25C47.45 146.05 46.6833 144.567 46.05 142.8L45.7 141.7L45.25 140.3H45.3C44.9 138.5 44.9833 136.917 45.55 135.55C46.15 134.083 47.05 133.217 48.25 132.95C50.25 132.45 52.1166 132.65 53.85 133.55C55.3833 134.35 56.4167 135.467 56.95 136.9ZM32.3 143.55C31.1666 144.983 29.8833 146.1 28.45 146.9C26.1833 148.067 24.1167 148.183 22.25 147.25C21.0833 146.683 20.5833 145.267 20.75 143C20.8167 141.8 21.05 140.567 21.45 139.3L22.35 137L22.9 135.7L22.95 135.65C23.7833 134.083 24.8667 132.933 26.2 132.2C27.5667 131.5 28.8167 131.417 29.95 131.95C31.7833 132.883 33.0833 134.25 33.85 136.05C34.5833 137.883 34.5333 139.567 33.7 141.1V141.2L33.2 142.15L32.3 143.55Z" fill="#DBDBDB"/>
</svg>
