<svg width="92" height="197" viewBox="0 0 92 197" fill="none" xmlns="http://www.w3.org/2000/svg">
<path d="M34.45 60.5L27.1 61.2C23.4667 61.1334 19.7167 60.0001 15.85 57.8001C8.54999 53.5667 3.79999 47.3834 1.59999 39.25C-0.566673 31.2167 0.48332 23.55 4.74999 16.25C8.88332 9.01669 15 4.26669 23.1 2.00003C31.2667 -0.133306 38.9833 0.88341 46.25 5.05008C53.55 9.28341 58.25 15.4334 60.35 23.5C61.4167 27.3667 61.75 31.1334 61.35 34.8001C61.05 37.6334 60.3166 40.4334 59.15 43.2C55.3166 50.3 49.0833 55.4501 40.45 58.6501L34.45 60.5ZM39.85 149.15C39.15 148.75 38.4166 148.467 37.65 148.3C41.85 142.167 44.7333 136.083 46.3 130.05L46.5 130.15L50.05 131.85C47.55 138.317 44.15 144.083 39.85 149.15Z" fill="#DBDBDB"/>
<path d="M39.85 149.15C44.15 144.083 47.55 138.317 50.05 131.85C58.1166 106.917 52.9167 83.1333 34.45 60.5L40.45 58.65C49.0833 55.45 55.3167 50.3 59.15 43.2C60.3167 40.4333 61.05 37.6334 61.35 34.8C99.6167 79.1334 102.05 126.667 68.65 177.4C63.65 185.8 56.5 192.083 47.2 196.25L39.65 196.5C37.0833 195.5 35.2333 193.767 34.1 191.3C33.5333 190 33.25 188.717 33.25 187.45L28.5 187.2C25.7333 186.9 23.4833 185.717 21.75 183.65C20.05 181.517 19.3166 179.083 19.55 176.35L19.6 175.85L15 174.45C12.4333 173.45 10.5667 171.717 9.39999 169.25C8.23332 166.75 8.13333 164.217 9.1 161.65C10.0333 159.083 11.75 157.233 14.25 156.1C16.7167 154.967 19.2333 154.867 21.8 155.8C28.7333 158.333 34.3833 156.533 38.75 150.4L39.85 149.15ZM37.65 148.3L35.3 147.9L31.4 148.15L29.45 148.35C27.4833 148.317 25.65 147.717 23.95 146.55C21.7167 145.017 20.3333 142.9 19.8 140.2C19.3 137.5 19.8167 135.05 21.35 132.85C22.8833 130.583 25 129.183 27.7 128.65C33.7 127.517 39.2 127.733 44.2 129.3C44.9 129.5 45.6 129.75 46.3 130.05C44.7333 136.083 41.85 142.167 37.65 148.3Z" fill="#EEECEC"/>
</svg>
