<svg width="2855" height="1092" viewBox="0 0 2855 1092" fill="none" xmlns="http://www.w3.org/2000/svg">
<path d="M1382.38 743.671C1361.72 729.906 1303.49 685.933 1303.49 627.174C1303.49 570.179 1335.42 511.831 1340.61 502.721L1405.69 437.637L1386.94 418.886L1321.36 484.461C1315.18 488.85 1267.95 521.087 1210.66 521.087C1138.83 521.087 1082.36 439.48 1067.25 415.345L1051.36 320L1025.2 324.35L1037.97 400.944C988.941 579.501 827.185 658.974 809.31 667.248L708.501 653.802L705 680.085L811.551 694.287C828.313 702.84 892.402 741.058 892.402 826.087C892.402 893.995 875.448 923.139 872 929L741 897V927L881.5 960C887.375 956.42 928.843 932.173 985.228 932.173C1068.44 932.173 1126.6 1004.33 1142.12 1025.89L1147.5 1041.5L1171.99 1049.5L1171.11 1038.47C1209.38 828.089 1388.69 775.629 1399.4 772.685L1492.5 788L1488.5 759.915L1382.38 743.671ZM1331.53 736.881L1279.92 729.999C1244.15 687.935 1238.3 624.389 1237.37 605.943L1289.6 553.709C1282.54 575.788 1276.97 601.355 1276.97 627.174C1276.97 674.064 1305.15 711.765 1331.53 736.881ZM1244.03 725.225L1192.48 718.342C1186.61 699.989 1184.64 673.468 1184.23 659.093L1212.97 630.357C1216.25 655.513 1224.36 692.431 1244.03 725.225ZM1210.66 547.609C1230.85 547.609 1249.73 544.161 1266.53 539.295L1218.59 587.232C1198.25 586.848 1178.86 584.395 1160.97 579.74L1154.26 605.413C1166.78 608.675 1179.95 610.903 1193.54 612.282L1165.48 640.342C1150.25 639.918 1121.5 637.69 1103.17 630.967L1094.6 579.581C1103.14 585.137 1113.41 590.879 1126.06 596.051L1136.11 571.518C1108.32 560.127 1093.12 545.819 1088.09 540.528L1076.83 473.004C1106.96 507.906 1153.67 547.609 1210.66 547.609ZM1043.58 799.751C1059.69 800.652 1091.5 805.638 1108.12 821.923L1115.77 867.805C1078.96 849.956 1032.52 843.313 1002.49 840.82L1043.58 799.751ZM983.385 822.44C977.895 774.873 960.669 736.364 947.05 712.362L991.938 718.356C996.685 721.87 1022.52 742.795 1024.77 781.053L983.385 822.44ZM1076.22 729.601L1047.91 757.913C1044.4 744.281 1038.71 732.916 1032.58 723.793L1076.22 729.601ZM1043.79 698.517C1055.64 690.216 1068.8 678.772 1081.7 663.389L1088.54 704.485L1043.79 698.517ZM1095.73 747.596L1102.24 786.636C1090.48 781.225 1078.08 777.963 1067.33 776L1095.73 747.596ZM1113.42 692.404L1108.02 660.061C1118.87 662.66 1130.34 664.291 1140.53 665.299L1113.42 692.404ZM1132.93 710.399L1159.29 684.037C1160.23 693.598 1161.7 704.299 1164.04 714.55L1132.93 710.399ZM1152.99 739.838C1141.84 747.821 1132.7 756.825 1125.55 765.206L1120.61 735.515L1152.99 739.838ZM1075.64 627.055C1046.17 672.168 1010.74 688.32 999.152 692.563L952.209 686.304C982.244 663.217 1031.11 618.966 1063.67 555.141L1075.64 627.055ZM1047.13 456.016L1055.55 506.5C1019.53 610.492 926.483 672.95 913.593 681.172L854.489 673.295C905.875 642.848 998.409 574.502 1047.13 456.016ZM866.305 701.607L912.943 707.827C924.812 725.079 956.903 778.149 958.521 847.304L912.015 893.81C915.993 875.47 918.924 852.953 918.924 826.087C918.924 766.466 892.243 726.511 866.305 701.607ZM985.228 905.652C965.045 905.652 947.249 908.012 931.986 911.341L977.338 865.989C998.608 866.638 1078.6 871.16 1121.44 901.872L1133.6 974.86C1102.32 943.153 1051.44 905.652 985.228 905.652ZM1160.43 974.489L1144.98 881.769C1157.74 859.623 1172.99 839.586 1190.59 822.281L1171.99 803.371C1159.77 815.398 1148.65 828.712 1138.52 842.928L1131.69 801.992C1138.28 790.839 1161.65 755.963 1200.48 746.164L1244.76 752.065C1232.45 757.939 1218.95 765.538 1204.99 775.497L1220.4 797.098C1260.13 768.747 1296.1 761.254 1303.67 759.915L1346.73 765.657C1291.77 792.775 1202.24 853.629 1160.43 974.489Z" fill="black"/>
<path d="M957.477 480.841C946.269 473.374 914.68 449.519 914.68 417.642C914.68 386.722 932.003 355.068 934.816 350.126L970.124 314.818L959.952 304.646L924.377 340.22C921.025 342.601 895.4 360.09 864.322 360.09C825.352 360.09 794.72 315.818 786.519 302.725L777.9 251L763.706 253.36L770.634 294.912C744.038 391.779 656.286 434.893 646.588 439.382L572.399 432.677L570.5 446.936L647.804 454.051C656.897 458.691 691.666 479.424 691.666 525.552C691.666 562.393 680.652 582.636 678.781 585.816L647.804 621L657.976 631.172L688.982 595.96C692.169 594.017 711.435 583.104 742.024 583.104C787.166 583.104 818.719 622.247 827.136 633.944L835.646 685L849.84 682.64L842.862 640.771C863.624 526.638 960.901 498.179 966.714 496.582L1021.65 503.905L1023.54 489.647L957.477 480.841ZM929.895 477.158L901.896 473.424C882.487 450.605 879.314 416.131 878.811 406.124L907.148 377.787C903.313 389.765 900.292 403.635 900.292 417.642C900.292 443.08 915.579 463.532 929.895 477.158ZM882.422 470.834L854.459 467.101C851.272 457.144 850.207 442.756 849.984 434.958L865.574 419.368C867.35 433.016 871.753 453.044 882.422 470.834ZM864.322 374.478C875.271 374.478 885.515 372.607 894.63 369.967L868.624 395.974C857.588 395.765 847.071 394.434 837.366 391.909L833.726 405.837C840.517 407.606 847.661 408.815 855.034 409.563L839.812 424.786C831.546 424.555 815.949 423.347 806.007 419.699L801.36 391.823C805.993 394.837 811.561 397.952 818.424 400.758L823.877 387.449C808.798 381.269 800.554 373.507 797.828 370.636L791.72 334.004C808.065 352.939 833.402 374.478 864.322 374.478ZM773.677 511.265C782.418 511.754 799.676 514.459 808.691 523.293L812.841 548.184C792.871 538.501 767.678 534.897 751.39 533.545L773.677 511.265ZM741.024 523.574C738.045 497.769 728.7 476.877 721.312 463.856L745.664 467.108C748.239 469.014 762.253 480.366 763.476 501.121L741.024 523.574ZM791.389 473.208L776.03 488.568C774.123 481.172 771.037 475.007 767.714 470.057L791.389 473.208ZM773.792 456.346C780.224 451.842 787.36 445.634 794.36 437.289L798.072 459.583L773.792 456.346ZM801.971 482.971L805.504 504.15C799.123 501.215 792.396 499.445 786.562 498.38L801.971 482.971ZM811.568 453.029L808.64 435.483C814.525 436.893 820.748 437.778 826.273 438.325L811.568 453.029ZM822.151 462.792L836.452 448.49C836.963 453.677 837.762 459.482 839.028 465.043L822.151 462.792ZM833.035 478.762C826.985 483.093 822.028 487.978 818.151 492.524L815.467 476.417L833.035 478.762ZM791.072 417.577C775.087 442.051 755.865 450.813 749.577 453.116L724.111 449.72C740.405 437.195 766.915 413.189 784.576 378.564L791.072 417.577ZM775.605 324.789L780.174 352.176C760.635 408.592 710.154 442.476 703.162 446.936L671.098 442.663C698.975 426.145 749.175 389.067 775.605 324.789ZM677.508 458.022L702.809 461.396C709.248 470.755 726.657 499.546 727.535 537.062L702.306 562.292C704.464 552.342 706.054 540.127 706.054 525.552C706.054 493.208 691.579 471.532 677.508 458.022ZM742.024 568.716C731.074 568.716 721.42 569.997 713.14 571.802L737.743 547.199C749.282 547.551 792.677 550.004 815.921 566.666L822.517 606.262C805.547 589.061 777.943 568.716 742.024 568.716ZM837.071 606.06L828.69 555.76C835.611 543.746 843.884 532.876 853.43 523.487L843.344 513.229C836.711 519.754 830.683 526.976 825.186 534.688L821.481 512.48C825.057 506.43 837.733 487.51 858.797 482.194L882.818 485.395C876.142 488.582 868.818 492.704 861.243 498.107L869.602 509.826C891.155 494.445 910.673 490.381 914.781 489.654L938.139 492.769C908.32 507.481 859.754 540.494 837.071 606.06Z" fill="black"/>
<path d="M2213.78 305.38C2209.82 307.36 2197.85 312.481 2188.75 307.276C2179.93 302.228 2173.72 292.116 2172.77 290.506L2168.46 274.664L2163.9 275.907L2168.24 291.868C2168.37 293.213 2169.18 303.382 2164.11 312.252C2157.74 323.374 2140.11 324.888 2135.03 325.091L2118.86 319.106L2117.22 323.542L2130.21 328.349C2153.51 351.755 2151.49 383.839 2151.19 387.34L2137.16 407.419L2140.92 410.289L2155.57 389.388C2158.38 387.55 2169.98 381.012 2183.14 388.543C2193.65 394.558 2197.63 401.007 2198.24 402.06L2203.22 416.645L2207.78 415.403L2202.8 400.804C2202.76 399.578 2202.79 392.298 2207.79 383.567C2215.16 370.684 2231.48 368.069 2236.19 367.577L2252.15 373.484L2253.8 369.048L2240.71 364.203C2211.53 339.643 2219.29 307.234 2219.78 305.314L2230.84 290.832L2227.08 287.964L2213.78 305.38ZM2208.22 312.651L2202.59 320.032C2192.91 321.846 2182.55 317.123 2179.61 315.633L2176.15 302.919C2178.94 305.969 2182.41 309.096 2186.4 311.383C2193.66 315.536 2202 314.512 2208.22 312.651ZM2198.67 325.167L2193.04 332.538C2189.68 331.822 2185.4 329.777 2183.13 328.568L2181.23 321.573C2185.41 323.294 2191.85 325.308 2198.67 325.167ZM2168.21 314.601C2170 311.476 2171.14 308.247 2171.87 305.215L2175.05 316.883C2173.19 319.998 2171.09 322.783 2168.79 325.14L2172.17 328.453C2173.78 326.804 2175.29 324.962 2176.71 322.98L2178.57 329.81C2177.15 332.132 2174.26 336.386 2171.6 338.628L2162.88 335.402C2164.5 334.572 2166.3 333.492 2168.22 331.991L2165.31 328.262C2161.09 331.556 2157.52 332.642 2156.26 332.951L2144.81 328.714C2152.88 327.14 2163.16 323.426 2168.21 314.601ZM2192.45 362.804C2194.02 360.39 2197.61 355.906 2201.6 354.775L2209.38 357.655C2203.36 361.773 2198.22 368.375 2195.17 372.803L2192.45 362.804ZM2190.63 374.133C2182.78 370.77 2175.3 370.026 2170.37 370.009L2175.28 363.59C2176.24 363.166 2181.77 361.02 2187.89 364.06L2190.63 374.133ZM2184.48 351.536L2186.36 358.427C2183.94 357.764 2181.67 357.638 2179.72 357.779L2184.48 351.536ZM2176.8 353.805C2176.56 351.234 2175.96 348.184 2174.72 344.823L2181.69 347.404L2176.8 353.805ZM2189 350.11L2195.62 352.559C2193.74 353.901 2192.14 355.532 2190.88 357.023L2189 350.11ZM2182.02 342.482L2176.53 340.453C2177.9 339.004 2179.16 337.372 2180.22 335.885L2182.02 342.482ZM2186.53 341.056L2184.79 334.639C2186.35 335.34 2188.14 336.06 2189.93 336.607L2186.53 341.056ZM2192.87 340.557C2193.12 342.991 2193.7 345.203 2194.37 347.052L2189.33 345.188L2192.87 340.557ZM2168.55 342.543C2172.93 351.101 2172.29 358.018 2171.92 360.188L2166.79 366.902C2165.88 360.207 2163.36 348.722 2156.36 338.028L2168.55 342.543ZM2139.55 331.808L2148.11 334.976C2161.02 349.763 2162.45 369.703 2162.58 372.427L2156.13 380.88C2155.96 370.227 2153.58 349.846 2139.55 331.808ZM2161.56 381.558L2166.65 374.888C2170.37 374.579 2181.43 374.311 2192.28 380.185L2195.36 391.505C2192.88 389.265 2189.65 386.817 2185.49 384.437C2176.26 379.156 2167.71 379.748 2161.56 381.558ZM2203.68 381.218C2201.89 384.343 2200.68 387.308 2199.85 389.966L2196.84 378.927C2198.83 375.691 2206.61 363.707 2215.16 359.793L2227.54 364.375C2219.86 366.41 2209.55 370.967 2203.68 381.218ZM2229.86 360.189L2214.13 354.368C2211.83 350.432 2210.08 346.296 2208.96 342.038L2204.39 343.242C2205.17 346.2 2206.24 349.1 2207.55 351.928L2200.6 349.359C2199.46 347.351 2196.13 340.644 2198.05 333.765L2202.89 327.432C2202.71 329.857 2202.69 332.621 2202.99 335.665L2207.7 335.192C2206.83 326.53 2208.86 320.296 2209.32 319.005L2214.03 312.847C2213.36 323.759 2214.85 343.01 2229.86 360.189Z" fill="black"/>
<path d="M1532.24 626.347C1524.99 621.202 1504.57 604.767 1504.57 582.806C1504.57 561.504 1515.77 539.697 1517.59 536.292L1540.42 511.967L1533.84 504.959L1510.84 529.467C1508.67 531.108 1492.1 543.156 1472 543.156C1446.8 543.156 1426.99 512.656 1421.69 503.635L1416.12 468L1406.94 469.626L1411.42 498.253C1394.22 564.989 1337.47 594.691 1331.2 597.784L1283.23 593.165L1282 602.988L1331.99 607.89C1337.87 611.087 1360.35 625.37 1360.35 657.15C1360.35 682.531 1353.23 696.478 1352.02 698.668L1331.99 722.908L1338.57 729.916L1358.62 705.657C1360.68 704.318 1373.14 696.8 1392.92 696.8C1422.11 696.8 1442.51 723.767 1447.96 731.826L1453.46 767L1462.64 765.374L1458.12 736.529C1471.55 657.898 1534.46 638.291 1538.21 637.191L1573.74 642.237L1574.96 632.413L1532.24 626.347ZM1514.4 623.809L1496.3 621.237C1483.75 605.516 1481.7 581.765 1481.37 574.871L1499.7 555.349C1497.22 563.601 1495.26 573.156 1495.26 582.806C1495.26 600.332 1505.15 614.422 1514.4 623.809ZM1483.71 619.453L1465.62 616.88C1463.56 610.021 1462.87 600.109 1462.73 594.736L1472.81 583.996C1473.96 593.398 1476.81 607.196 1483.71 619.453ZM1472 553.069C1479.08 553.069 1485.71 551.78 1491.6 549.961L1474.78 567.878C1467.65 567.734 1460.85 566.817 1454.57 565.078L1452.22 574.673C1456.61 575.892 1461.23 576.725 1466 577.24L1456.15 587.728C1450.81 587.569 1440.72 586.737 1434.29 584.224L1431.29 565.018C1434.28 567.095 1437.88 569.241 1442.32 571.174L1445.85 562.005C1436.1 557.748 1430.77 552.4 1429 550.422L1425.05 525.185C1435.62 538.23 1452.01 553.069 1472 553.069ZM1413.39 647.307C1419.04 647.644 1430.2 649.507 1436.03 655.594L1438.71 672.742C1425.8 666.071 1409.51 663.588 1398.97 662.656L1413.39 647.307ZM1392.27 655.787C1390.34 638.009 1384.3 623.616 1379.52 614.645L1395.27 616.885C1396.94 618.199 1406 626.02 1406.79 640.318L1392.27 655.787ZM1424.84 621.088L1414.91 631.67C1413.67 626.575 1411.68 622.327 1409.53 618.917L1424.84 621.088ZM1413.46 609.471C1417.62 606.368 1422.23 602.091 1426.76 596.342L1429.16 611.701L1413.46 609.471ZM1431.68 627.814L1433.97 642.405C1429.84 640.383 1425.49 639.164 1421.72 638.43L1431.68 627.814ZM1437.89 607.186L1435.99 595.098C1439.8 596.069 1443.82 596.679 1447.4 597.055L1437.89 607.186ZM1444.73 613.912L1453.98 604.059C1454.31 607.632 1454.83 611.632 1455.64 615.463L1444.73 613.912ZM1451.77 624.914C1447.86 627.898 1444.65 631.263 1442.14 634.396L1440.41 623.299L1451.77 624.914ZM1424.63 582.762C1414.3 599.623 1401.87 605.66 1397.8 607.246L1381.33 604.906C1391.87 596.277 1409.01 579.738 1420.43 555.884L1424.63 582.762ZM1414.63 518.836L1417.59 537.705C1404.95 576.571 1372.31 599.915 1367.79 602.988L1347.05 600.044C1365.08 588.665 1397.54 563.12 1414.63 518.836ZM1351.2 610.626L1367.56 612.95C1371.72 619.398 1382.98 639.233 1383.55 665.08L1367.23 682.461C1368.63 675.607 1369.66 667.191 1369.66 657.15C1369.66 634.867 1360.3 619.933 1351.2 610.626ZM1392.92 686.887C1385.84 686.887 1379.59 687.77 1374.24 689.014L1390.15 672.063C1397.61 672.306 1425.67 673.996 1440.7 685.475L1444.97 712.754C1433.99 700.904 1416.14 686.887 1392.92 686.887ZM1454.38 712.615L1448.96 677.961C1453.44 669.684 1458.78 662.195 1464.96 655.727L1458.44 648.66C1454.15 653.155 1450.25 658.131 1446.69 663.444L1444.3 648.144C1446.61 643.976 1454.81 630.941 1468.43 627.279L1483.96 629.484C1479.64 631.68 1474.91 634.52 1470.01 638.242L1475.42 646.316C1489.35 635.719 1501.97 632.919 1504.63 632.418L1519.74 634.564C1500.45 644.7 1469.05 667.444 1454.38 712.615Z" fill="black"/>
<path d="M2653.67 871.941C2651.04 865.251 2644.48 845.085 2654.2 830.216C2663.62 815.793 2680.86 805.985 2683.59 804.485L2709.82 798.119L2708.46 790.463L2682.04 796.877C2679.85 797.029 2663.3 797.854 2649.69 788.961C2632.63 777.81 2632.72 748.394 2633.12 739.94L2645.11 713.347L2638.18 710.386L2628.54 731.751C2587.37 769.324 2535.81 764.324 2530.19 763.643L2499.75 739.287L2494.58 745.394L2526.25 770.833C2528.82 775.6 2537.72 795.22 2523.66 816.736C2512.43 833.92 2501.43 840.211 2499.64 841.159L2475.36 848.707L2476.71 856.362L2501.02 848.81C2503.01 848.816 2514.77 849.238 2528.16 857.991C2547.92 870.908 2549.81 898.195 2549.93 906.06L2538.09 932.31L2545.02 935.271L2554.73 913.744C2598.61 866.448 2649.88 881.008 2652.91 881.927L2674.73 901.062L2679.91 894.952L2653.67 871.941ZM2642.71 862.331L2631.59 852.578C2630.05 836.38 2639.17 819.391 2642 814.58L2663.05 809.47C2657.72 813.96 2652.17 819.565 2647.9 826.099C2640.14 837.964 2640.6 851.879 2642.71 862.331ZM2623.86 845.797L2612.75 836.054C2614.39 830.498 2618.31 823.482 2620.59 819.781L2632.17 816.97C2628.79 823.844 2624.61 834.446 2623.86 845.797ZM2645.31 795.672C2650.1 798.805 2655.16 800.864 2659.95 802.241L2640.64 806.93C2635.87 803.675 2631.67 800.044 2628.19 796.09L2622.35 801.545C2624.78 804.313 2627.54 806.921 2630.54 809.38L2619.24 812.125C2615.69 809.652 2609.23 804.626 2605.99 800.079L2612.45 785.746C2613.56 788.478 2615.05 791.524 2617.2 794.797L2623.64 790.149C2618.93 782.952 2617.68 776.972 2617.36 774.853L2625.86 756.019C2627.24 769.528 2631.77 786.825 2645.31 795.672ZM2563.92 833.539C2567.6 836.268 2574.33 842.468 2575.58 849.168L2569.81 861.967C2564.02 851.736 2554.09 842.845 2547.37 837.554L2563.92 833.539ZM2545.87 829.937C2552.43 817.048 2554.71 804.629 2555.45 796.441L2565.12 804.926C2565.66 806.552 2568.34 815.857 2562.55 825.888L2545.87 829.937ZM2583.28 820.856L2571.87 823.625C2573.29 819.63 2573.82 815.871 2573.87 812.611L2583.28 820.856ZM2580.71 807.955C2584.9 807.695 2589.92 806.841 2595.53 804.951L2590.36 816.412L2580.71 807.955ZM2584.93 828.437L2580.02 839.327C2578.12 836.132 2575.72 833.382 2573.49 831.216L2584.93 828.437ZM2598.26 817.217L2602.33 808.195C2604.48 810.537 2606.93 812.73 2609.18 814.566L2598.26 817.217ZM2599.92 824.799L2610.54 822.22C2609.18 824.786 2607.76 827.722 2606.62 830.679L2599.92 824.799ZM2599.82 835.363C2595.85 835.652 2592.19 836.512 2589.1 837.523L2592.84 829.242L2599.82 835.363ZM2600.1 794.816C2585.64 801.658 2574.55 800.244 2571.1 799.519L2560.98 790.648C2571.93 789.468 2590.86 785.856 2609.15 774.759L2600.1 794.816ZM2621.61 747.109L2615.26 761.191C2589.51 781.915 2557.08 783.275 2552.66 783.355L2539.92 772.187C2557.16 772.459 2590.44 769.529 2621.61 747.109ZM2538.05 781.185L2548.1 789.999C2548.06 796.207 2546.91 814.618 2535.85 832.369L2517.12 836.918C2521.09 832.894 2525.51 827.652 2529.96 820.853C2539.82 805.766 2540.09 791.514 2538.05 781.185ZM2532.55 851.28C2527.75 848.146 2523.14 845.981 2518.96 844.454L2537.23 840.018C2542.18 843.484 2560.43 857.046 2565.53 871.468L2556.34 891.826C2554.16 878.946 2548.27 861.558 2532.55 851.28ZM2562.78 895.896L2574.44 870.035C2581.13 866.412 2588.07 863.709 2595.11 862.061L2593.82 854.39C2588.93 855.535 2584.09 857.179 2579.33 859.204L2584.48 847.785C2587.89 845.986 2599.21 840.788 2610.05 844.335L2619.59 852.702C2615.7 852.278 2611.23 852.106 2606.27 852.458L2606.36 860.316C2620.48 859.309 2630.27 862.998 2632.29 863.835L2641.56 871.972C2624.02 870.301 2592.7 871.803 2562.78 895.896Z" fill="black"/>
<path d="M860.284 861.435C857.014 854.449 848.634 833.48 858.114 818.975C867.31 804.906 885.21 796.048 888.057 794.7L915.854 789.938L913.896 782.052L885.89 786.85C883.539 786.86 865.785 786.614 850.561 776.664C831.471 764.188 829.632 734.235 829.508 725.651L840.669 699.355L833.014 695.885L824.05 717.011C782.214 752.574 726.405 744.097 720.319 743.035L685.97 716.231L680.8 722.112L716.552 750.099C719.627 755.122 730.493 775.688 716.775 796.677C705.818 813.441 694.402 819.127 692.541 819.975L666.902 826.067L668.86 833.952L694.521 827.856C696.66 827.993 709.343 829.195 724.328 838.988C746.441 853.441 750.257 881.355 750.902 889.372L739.887 915.329L747.542 918.8L756.575 897.514C800.688 852.226 856.805 870.421 860.128 871.555L884.86 892.475L890.027 886.593L860.284 861.435ZM847.868 850.929L835.262 840.265C832.541 823.667 841.239 806.965 843.968 802.25L866.277 798.428C860.837 802.651 855.232 807.995 851.066 814.369C843.501 825.944 844.907 840.145 847.868 850.929ZM826.493 832.852L813.905 822.2C815.305 816.649 819.062 809.761 821.272 806.141L833.545 804.039C830.357 810.818 826.558 821.341 826.493 832.852ZM846.282 783.211C851.646 786.717 857.221 789.146 862.471 790.862L841.997 794.37C836.653 790.742 831.897 786.769 827.894 782.513L821.968 787.685C824.769 790.664 827.909 793.502 831.298 796.203L819.314 798.256C815.334 795.505 808.053 789.961 804.267 785.119L810.281 770.946C811.654 773.801 813.455 777.001 815.983 780.475L822.612 776.165C817.064 768.525 815.333 762.353 814.851 760.174L822.754 741.55C825.129 755.399 831.136 773.312 846.282 783.211ZM761.198 816.433C765.335 819.454 772.985 826.211 774.773 833.116L769.404 845.772C762.501 834.972 751.231 825.266 743.655 819.436L761.198 816.433ZM741.542 811.58C747.757 798.884 749.392 786.386 749.646 778.095L760.608 787.371C761.302 789.063 764.791 798.716 759.218 808.552L741.542 811.58ZM781.193 804.787L769.101 806.858C770.366 802.883 770.688 799.089 770.532 795.773L781.193 804.787ZM777.588 791.48C782.078 791.49 787.42 790.95 793.331 789.393L788.519 800.727L777.588 791.48ZM783.473 812.617L778.905 823.385C776.652 820.007 773.883 817.048 771.342 814.695L783.473 812.617ZM797.079 802.065L800.863 793.144C803.326 795.669 806.112 798.064 808.655 800.082L797.079 802.065ZM799.36 809.895L810.619 807.967C809.327 810.49 807.991 813.388 806.958 816.324L799.36 809.895ZM799.942 820.648C795.69 820.681 791.81 821.317 788.558 822.144L792.034 813.956L799.942 820.648ZM797.582 779.371C782.473 785.39 770.451 783.223 766.686 782.257L755.221 772.559C766.928 772.076 787.053 769.64 806.002 759.539L797.582 779.371ZM817.6 732.197L811.693 746.122C785.344 765.538 750.538 764.794 745.786 764.585L731.35 752.375C749.918 753.784 785.537 752.984 817.6 732.197ZM729.922 761.416L741.313 771.052C741.684 777.372 741.65 796.047 730.923 813.399L711.06 816.802C715.077 812.966 719.488 807.916 723.823 801.284C733.442 786.566 732.798 772.069 729.922 761.416ZM728.607 832.441C723.243 828.936 718.133 826.428 713.539 824.598L732.909 821.28C738.457 825.135 758.985 840.144 765.416 855.167L756.872 875.297C753.674 862.037 746.202 843.941 728.607 832.441ZM764.061 879.865L774.915 854.293C781.878 851.042 789.163 848.744 796.632 847.529L794.742 839.632C789.552 840.477 784.451 841.834 779.465 843.583L784.255 832.292C787.805 830.683 799.642 826.132 811.541 830.457L822.356 839.604C818.138 838.917 813.325 838.448 808.007 838.481L808.617 846.49C823.749 846.392 834.519 850.791 836.747 851.776L847.264 860.672C828.281 857.819 794.672 857.292 764.061 879.865Z" fill="black"/>
<path d="M2265.52 711.239C2264.13 708.266 2260.56 699.342 2264.59 693.168C2268.51 687.181 2276.13 683.411 2277.34 682.837L2289.17 680.81L2288.33 677.454L2276.42 679.496C2275.41 679.501 2267.86 679.396 2261.38 675.161C2253.26 669.851 2252.47 657.104 2252.42 653.451L2257.17 642.26L2253.91 640.783L2250.1 649.774C2232.29 664.909 2208.54 661.301 2205.95 660.849L2191.33 649.442L2189.13 651.944L2204.35 663.856C2205.66 665.993 2210.28 674.746 2204.44 683.679C2199.78 690.813 2194.92 693.233 2194.13 693.594L2183.22 696.186L2184.05 699.542L2194.97 696.948C2195.88 697.006 2201.28 697.518 2207.66 701.686C2217.07 707.837 2218.69 719.716 2218.97 723.128L2214.28 734.175L2217.54 735.652L2221.38 726.593C2240.15 707.32 2264.04 715.063 2265.45 715.546L2275.98 724.449L2278.18 721.946L2265.52 711.239ZM2260.23 706.767L2254.87 702.229C2253.71 695.165 2257.41 688.057 2258.57 686.05L2268.07 684.424C2265.75 686.221 2263.37 688.495 2261.59 691.208C2258.37 696.134 2258.97 702.178 2260.23 706.767ZM2251.14 699.074L2245.78 694.541C2246.38 692.179 2247.97 689.247 2248.91 687.707L2254.14 686.812C2252.78 689.697 2251.16 694.175 2251.14 699.074ZM2259.56 677.948C2261.84 679.44 2264.21 680.473 2266.45 681.204L2257.73 682.697C2255.46 681.153 2253.44 679.462 2251.73 677.65L2249.21 679.852C2250.4 681.12 2251.74 682.327 2253.18 683.477L2248.08 684.351C2246.39 683.18 2243.29 680.82 2241.68 678.759L2244.24 672.728C2244.82 673.943 2245.59 675.305 2246.66 676.783L2249.49 674.949C2247.12 671.697 2246.39 669.071 2246.18 668.143L2249.55 660.217C2250.56 666.111 2253.11 673.735 2259.56 677.948ZM2223.35 692.087C2225.11 693.372 2228.36 696.248 2229.13 699.187L2226.84 704.573C2223.9 699.976 2219.11 695.846 2215.88 693.364L2223.35 692.087ZM2214.98 690.021C2217.63 684.618 2218.32 679.299 2218.43 675.77L2223.1 679.718C2223.39 680.438 2224.88 684.546 2222.51 688.732L2214.98 690.021ZM2231.86 687.13L2226.71 688.012C2227.25 686.32 2227.39 684.705 2227.32 683.294L2231.86 687.13ZM2230.32 681.467C2232.23 681.471 2234.51 681.241 2237.02 680.579L2234.98 685.402L2230.32 681.467ZM2232.83 690.462L2230.88 695.045C2229.92 693.607 2228.75 692.348 2227.66 691.347L2232.83 690.462ZM2238.62 685.972L2240.23 682.175C2241.28 683.25 2242.46 684.269 2243.55 685.128L2238.62 685.972ZM2239.59 689.304L2244.38 688.483C2243.83 689.557 2243.26 690.79 2242.82 692.04L2239.59 689.304ZM2239.84 693.88C2238.03 693.894 2236.38 694.165 2234.99 694.517L2236.47 691.032L2239.84 693.88ZM2238.83 676.313C2232.4 678.875 2227.29 677.953 2225.68 677.542L2220.8 673.414C2225.79 673.209 2234.35 672.172 2242.42 667.873L2238.83 676.313ZM2247.35 656.237L2244.84 662.163C2233.62 670.426 2218.81 670.11 2216.79 670.021L2210.65 664.824C2218.55 665.424 2233.71 665.083 2247.35 656.237ZM2210.04 668.672L2214.89 672.773C2215.04 675.463 2215.03 683.41 2210.46 690.795L2202.01 692.243C2203.72 690.611 2205.6 688.462 2207.44 685.639C2211.54 679.376 2211.26 673.206 2210.04 668.672ZM2209.48 698.899C2207.19 697.408 2205.02 696.34 2203.06 695.561L2211.31 694.149C2213.67 695.79 2222.41 702.178 2225.14 708.571L2221.51 717.138C2220.15 711.495 2216.97 703.794 2209.48 698.899ZM2224.57 719.082L2229.19 708.199C2232.15 706.816 2235.25 705.838 2238.43 705.32L2237.62 701.96C2235.42 702.319 2233.24 702.897 2231.12 703.641L2233.16 698.836C2234.67 698.151 2239.71 696.214 2244.77 698.055L2249.38 701.948C2247.58 701.655 2245.53 701.456 2243.27 701.47L2243.53 704.878C2249.97 704.837 2254.55 706.709 2255.5 707.128L2259.98 710.914C2251.9 709.7 2237.59 709.476 2224.57 719.082Z" fill="black"/>
<path d="M510.518 678.239C509.126 675.266 505.56 666.342 509.594 660.168C513.508 654.181 521.126 650.411 522.338 649.837L534.168 647.81L533.334 644.454L521.415 646.496C520.415 646.501 512.859 646.396 506.38 642.161C498.255 636.851 497.473 624.104 497.42 620.451L502.17 609.26L498.912 607.783L495.097 616.774C477.292 631.909 453.54 628.301 450.95 627.849L436.332 616.442L434.131 618.944L449.347 630.856C450.656 632.993 455.28 641.746 449.442 650.679C444.779 657.813 439.921 660.233 439.128 660.594L428.217 663.186L429.05 666.542L439.971 663.948C440.881 664.006 446.279 664.518 452.656 668.686C462.068 674.837 463.692 686.716 463.966 690.128L459.278 701.175L462.536 702.652L466.38 693.593C485.155 674.32 509.037 682.063 510.451 682.546L520.977 691.449L523.176 688.946L510.518 678.239ZM505.234 673.767L499.869 669.229C498.711 662.165 502.412 655.057 503.574 653.05L513.068 651.424C510.753 653.221 508.367 655.495 506.595 658.208C503.375 663.134 503.973 669.178 505.234 673.767ZM496.137 666.074L490.779 661.541C491.375 659.179 492.974 656.247 493.915 654.707L499.138 653.812C497.781 656.697 496.164 661.175 496.137 666.074ZM504.559 644.948C506.842 646.44 509.214 647.473 511.448 648.204L502.735 649.697C500.461 648.153 498.436 646.462 496.733 644.65L494.211 646.852C495.403 648.12 496.739 649.327 498.182 650.477L493.082 651.351C491.387 650.18 488.289 647.82 486.678 645.759L489.237 639.728C489.821 640.943 490.588 642.305 491.664 643.783L494.485 641.949C492.124 638.697 491.387 636.071 491.182 635.143L494.545 627.217C495.556 633.111 498.113 640.735 504.559 644.948ZM468.348 659.087C470.109 660.372 473.364 663.248 474.125 666.187L471.84 671.573C468.902 666.976 464.106 662.846 460.882 660.364L468.348 659.087ZM459.983 657.021C462.628 651.618 463.324 646.299 463.431 642.77L468.097 646.718C468.392 647.438 469.877 651.546 467.505 655.732L459.983 657.021ZM476.857 654.13L471.711 655.012C472.25 653.32 472.387 651.705 472.32 650.294L476.857 654.13ZM475.323 648.467C477.234 648.471 479.508 648.241 482.023 647.579L479.975 652.402L475.323 648.467ZM477.828 657.462L475.884 662.045C474.925 660.607 473.747 659.348 472.665 658.347L477.828 657.462ZM483.618 652.972L485.229 649.175C486.277 650.25 487.463 651.269 488.545 652.128L483.618 652.972ZM484.589 656.304L489.381 655.483C488.831 656.557 488.263 657.79 487.823 659.04L484.589 656.304ZM484.837 660.88C483.027 660.894 481.376 661.165 479.992 661.517L481.471 658.032L484.837 660.88ZM483.833 643.313C477.402 645.875 472.286 644.953 470.684 644.542L465.804 640.414C470.786 640.209 479.352 639.172 487.416 634.873L483.833 643.313ZM492.352 623.237L489.838 629.163C478.624 637.426 463.811 637.11 461.789 637.021L455.645 631.824C463.548 632.424 478.706 632.083 492.352 623.237ZM455.037 635.672L459.885 639.773C460.043 642.463 460.029 650.41 455.463 657.795L447.01 659.243C448.719 657.611 450.597 655.462 452.442 652.639C456.535 646.376 456.261 640.206 455.037 635.672ZM454.477 665.899C452.195 664.408 450.02 663.34 448.065 662.561L456.308 661.149C458.67 662.79 467.406 669.178 470.143 675.571L466.507 684.138C465.146 678.495 461.966 670.794 454.477 665.899ZM469.566 686.082L474.186 675.199C477.149 673.816 480.25 672.838 483.428 672.32L482.624 668.96C480.415 669.319 478.244 669.897 476.122 670.641L478.161 665.836C479.672 665.151 484.709 663.214 489.773 665.055L494.376 668.948C492.581 668.655 490.532 668.456 488.269 668.47L488.529 671.878C494.969 671.837 499.552 673.709 500.501 674.128L504.976 677.914C496.898 676.7 482.594 676.476 469.566 686.082Z" fill="black"/>
<path d="M2240.48 886.841C2229.27 879.374 2197.68 855.519 2197.68 823.642C2197.68 792.722 2215 761.068 2217.82 756.126L2227.99 747.172L2217.82 737L2207.38 746.22C2204.02 748.601 2178.4 766.09 2147.32 766.09C2108.35 766.09 2080.7 717.093 2072.5 704L2079.5 676L2046.48 691.5L2053.63 700.912C2027.04 797.779 1939.29 840.893 1929.59 845.382L1841.4 826.699L1827 836.5L1930.8 860.051C1939.9 864.691 1974.67 885.424 1974.67 931.552C1974.67 968.393 1963.65 988.636 1961.78 991.816H1958L1968.17 1001.99L1971.98 1001.96C1975.17 1000.02 1994.43 989.104 2025.02 989.104C2070.17 989.104 2101.72 1028.25 2110.14 1039.94L2111.69 1046.77L2125.88 1050.64L2125.86 1046.77C2146.62 932.638 2243.9 904.179 2249.71 902.582L2251.23 902.452L2253.12 888.194L2240.48 886.841ZM2212.9 883.158L2184.9 879.424C2165.49 856.605 2162.31 822.131 2161.81 812.124L2190.15 783.787C2186.31 795.765 2183.29 809.635 2183.29 823.642C2183.29 849.08 2198.58 869.532 2212.9 883.158ZM2165.42 876.834L2137.46 873.101C2134.27 863.144 2133.21 848.756 2132.98 840.958L2148.57 825.368C2150.35 839.016 2154.75 859.044 2165.42 876.834ZM2147.32 780.478C2158.27 780.478 2168.52 778.607 2177.63 775.967L2151.62 801.974C2140.59 801.765 2130.07 800.434 2120.37 797.909L2116.73 811.837C2123.52 813.606 2130.66 814.815 2138.03 815.563L2122.81 830.786C2114.55 830.555 2098.95 829.347 2089.01 825.699L2084.36 797.823C2088.99 800.837 2094.56 803.952 2101.42 806.758L2106.88 793.449C2091.8 787.269 2083.55 779.507 2080.83 776.636L2074.72 740.004C2091.06 758.939 2116.4 780.478 2147.32 780.478ZM2056.68 917.265C2065.42 917.754 2082.68 920.459 2091.69 929.293L2095.84 954.184C2075.87 944.501 2050.68 940.897 2034.39 939.545L2056.68 917.265ZM2024.02 929.574C2021.05 903.769 2011.7 882.877 2004.31 869.856L2028.66 873.108C2031.24 875.014 2045.25 886.366 2046.48 907.121L2024.02 929.574ZM2074.39 879.208L2059.03 894.568C2057.12 887.172 2054.04 881.007 2050.71 876.057L2074.39 879.208ZM2056.79 862.346C2063.22 857.842 2070.36 851.634 2077.36 843.289L2081.07 865.583L2056.79 862.346ZM2084.97 888.971L2088.5 910.15C2082.12 907.215 2075.4 905.445 2069.56 904.38L2084.97 888.971ZM2094.57 859.029L2091.64 841.483C2097.52 842.893 2103.75 843.778 2109.27 844.325L2094.57 859.029ZM2105.15 868.792L2119.45 854.49C2119.96 859.677 2120.76 865.482 2122.03 871.043L2105.15 868.792ZM2116.04 884.762C2109.98 889.093 2105.03 893.978 2101.15 898.524L2098.47 882.417L2116.04 884.762ZM2074.07 823.577C2058.09 848.051 2038.86 856.813 2032.58 859.116L2007.11 855.72C2023.4 843.195 2049.91 819.189 2067.58 784.564L2074.07 823.577ZM2058.61 730.789L2063.17 758.176C2043.63 814.592 1993.15 848.476 1986.16 852.936L1954.1 848.663C1981.97 832.145 2032.17 795.067 2058.61 730.789ZM1960.51 864.022L1985.81 867.396C1992.25 876.755 2009.66 905.546 2010.53 943.062L1985.31 968.292C1987.46 958.342 1989.05 946.127 1989.05 931.552C1989.05 899.208 1974.58 877.532 1960.51 864.022ZM2025.02 974.716C2014.07 974.716 2004.42 975.997 1996.14 977.802L2020.74 953.199C2032.28 953.551 2075.68 956.004 2098.92 972.666L2105.52 1012.26C2088.55 995.061 2060.94 974.716 2025.02 974.716ZM2120.07 1012.06L2111.69 961.76C2118.61 949.746 2126.88 938.876 2136.43 929.487L2126.34 919.229C2119.71 925.754 2113.68 932.976 2108.19 940.688L2104.48 918.481C2108.06 912.43 2120.73 893.51 2141.8 888.194L2165.82 891.395C2159.14 894.582 2151.82 898.704 2144.24 904.107L2152.6 915.826C2174.16 900.445 2193.67 896.381 2197.78 895.654L2221.14 898.769C2191.32 913.481 2142.75 946.494 2120.07 1012.06Z" fill="black"/>
<path d="M1834.72 809.126C1835.43 787.457 1841.06 724.452 1881.96 702.505C1921.64 681.217 1975.97 684.968 1984.53 685.713L2057.78 713.469L2062.78 691.465L1988.99 663.5C1983.28 660.196 1940.56 634.451 1915.98 588.623C1885.15 531.158 1917.72 455.507 1928.04 434.399L1987.6 386.078L1973.34 366.772L1925.5 405.597C1780.15 433.071 1655.4 333.354 1641.96 322.145L1608.06 236.479L1588.26 243.495L1624.1 334.037C1625.34 350.641 1626.24 416.185 1567.05 447.944C1519.77 473.309 1485.08 471.005 1479.52 470.436L1391.23 436.98L1386.23 458.984L1474.57 492.463C1479.59 495.825 1508.83 516.72 1533.03 561.827C1568.75 628.393 1543.48 701.871 1535.13 722.336L1476.34 770.038L1490.6 789.343L1538.81 750.226C1701.7 702.262 1815.18 826.113 1821.83 833.585L1829.5 837L1849.29 829.973L1834.72 809.126ZM1817.62 765.918L1800.26 722.06C1814.19 677.728 1855.92 649.315 1868.37 641.682L1927.15 663.958C1908.74 666.551 1888.55 671.645 1870.58 681.289C1837.94 698.803 1823.78 735.427 1817.62 765.918ZM1788.18 691.56L1770.85 647.755C1781.11 636.201 1798.73 624.725 1808.56 619.027L1840.9 631.282C1824.79 643.298 1802.57 663.579 1788.18 691.56ZM1897.51 598.529C1906.18 614.675 1916.68 628.493 1927.28 640.116L1873.33 619.672C1864.87 603.256 1858.26 586.83 1853.82 570.781L1833.07 575.002C1836.17 586.235 1840.27 597.601 1845.14 608.99L1813.56 597.023C1807.32 584.676 1796.53 560.845 1793.35 543.673L1825.44 517.627C1825.24 526.534 1825.65 536.89 1827.48 548.942L1848.87 547.819C1844.87 521.33 1848.31 503.828 1849.84 497.832L1892.01 463.604C1880.65 500.743 1873.05 552.934 1897.51 598.529ZM1650.27 559.042C1656.55 572.268 1666.74 599.579 1662.53 618.954L1633.87 642.212C1630.5 606.097 1615.19 566.465 1604.04 541.517L1650.27 559.042ZM1608.64 519.366C1639.39 497.207 1658.81 469.043 1669.68 449.184L1684.77 487.331C1684.36 492.442 1680.88 520.923 1655.21 537.015L1608.64 519.366ZM1713.11 558.958L1681.25 546.884C1689.24 538.981 1694.71 530.185 1698.43 521.877L1713.11 558.958ZM1720.83 521.4C1731.7 527.783 1745.31 534.032 1761.56 538.608L1735.89 559.432L1720.83 521.4ZM1708.96 581.284L1684.57 601.074C1683.29 589.644 1680.24 578.507 1676.99 569.17L1708.96 581.284ZM1754.97 574.821L1775.17 558.423C1778.02 568.071 1781.81 577.856 1785.48 586.38L1754.97 574.821ZM1750.82 597.147L1780.49 608.389C1774.23 612.714 1767.42 617.888 1761.28 623.584L1750.82 597.147ZM1738.94 624.193C1728.59 618.253 1718.4 614.307 1709.5 611.719L1728.05 596.673L1738.94 624.193ZM1784.25 520.189C1740.2 513.468 1713.75 491.155 1705.82 483.469L1690.03 443.577C1718.99 458.982 1770.77 481.545 1829.18 483.749L1784.25 520.189ZM1891.09 433.497L1859.56 459.089C1771.7 469.119 1688.28 418.01 1677.03 410.769L1657.15 360.546C1700.4 390.281 1787.69 438.778 1891.09 433.497ZM1642.51 380.573L1658.19 420.205C1651.28 436.143 1628.1 481.638 1580.65 508.762L1528.32 488.929C1542.79 485.261 1559.73 479.196 1578.43 469.161C1619.94 446.892 1636.3 410.624 1642.51 380.573ZM1551.5 551.92C1542.83 535.775 1533.55 522.42 1524.69 511.453L1575.72 530.794C1584.4 548.052 1615.58 613.73 1612.59 659.477L1567 696.466C1575.65 659.599 1579.91 604.888 1551.5 551.92ZM1578.77 717.788L1636.69 670.798C1657.58 672.731 1678.08 677.447 1697.68 685.06L1702.86 663.125C1689.24 657.836 1675.2 653.919 1660.96 651.124L1686.53 630.371C1697.12 631.478 1731.43 637.143 1754.91 664.544L1769.81 702.169C1760.44 694.519 1749.35 686.557 1736.43 679.107L1728 699.502C1764.79 720.695 1785.45 746.677 1789.63 752.234L1804.11 788.823C1761.64 754.981 1680.86 706.094 1578.77 717.788Z" fill="black"/>
<path d="M3.07188 349L92.3531 461.662C88.0953 537.587 55.2469 595.712 10.4938 649.213L0 646.463V676.65L3.99531 677.7C27.9797 748.114 18.1953 819.617 6.83906 893.784L0.00156462 896.983V929.217L14.3453 922.508C24.5266 939.237 35.6859 964.769 44.1266 987.086C50.8188 1004.79 55.8047 1019.87 58.5844 1028.55L0.00156462 1087.44V1091.23H37.4109L82.0203 1046.39C96.5047 1045.82 147.286 1044.09 211.239 1045.22C284.277 1046.51 371.57 1051.94 428.505 1066.57L436.442 1091.24H467.117L455.508 1055.16C511.664 990.302 567.87 929.341 661.342 895.255L742.239 927.264V895.863L675.078 869.287C665.119 808.022 695.008 749.498 722.922 686.975L742.239 682.936V653.105L732.359 655.172L723.844 650.792C636.206 605.744 604.572 528.931 578.063 443.447L647.1 349H610.928L550.616 431.516C459.564 433.475 374.873 427.667 309.294 372.469L305.741 349H276.209L280.644 378.297C238.244 423.594 190.7 453.225 117.231 446.041L40.325 349H3.06875H3.07188ZM315.442 413.069C378.892 454.169 453.72 461.341 529.12 460.928L477.339 531.772C420.17 532.391 368.189 527.031 327.581 493.275L315.442 413.069ZM286.014 413.756L298.967 499.342C271.131 528.43 240.695 546.498 192.725 541.302L141.044 476.087C201.345 474.931 247.853 449.3 286.013 413.756H286.014ZM556.833 472.494C581.108 545.88 614.723 617.322 688.942 664.247L608.055 681.153L606.78 680.502C548.545 650.588 527.959 599.814 510.006 541.705L508.888 538.087L556.83 472.494H556.833ZM118.177 494.241L171.916 562.05C167.973 608.273 147.847 644.331 120.134 677.998L41.3781 657.322C78.4313 610.8 108.003 558.27 118.178 494.239L118.177 494.241ZM333.564 532.819C370.964 554.216 413.33 560.006 456.07 560.863L404.648 631.219C381.12 621.275 363.809 603.48 344.383 583.836L340.722 580.133L333.563 532.82L333.564 532.819ZM304.223 534.084L312.961 591.827C295.498 603.545 274.78 610.811 251.952 616.033L216.167 570.881C251.652 568.702 280.378 554.194 304.223 534.084ZM487.63 567.167C502.858 612.722 523.795 657.819 566.661 689.808L479.273 708.073C458.966 690.602 448.059 669.427 436.842 645.745L434.233 640.23L487.63 567.167ZM196.33 592.859L226.239 630.6L226.117 631.709C223.102 658.842 212.247 678.006 200.102 698.995L150.827 686.058C171.47 658.939 188.233 628.514 196.327 592.859H196.33ZM317.695 623.098L327.089 685.195C321.438 686.273 316.064 688.125 311.073 690.633L271.734 640.997C287.656 636.7 303.188 631.083 317.694 623.1L317.695 623.098ZM347.945 627.853C359.438 638.131 372.195 647.731 387.245 655.025L362.505 688.872C360.667 688.102 358.791 687.403 356.869 686.813L347.947 627.852L347.945 627.853ZM249.898 660.453L288.82 709.563C286.331 712.995 284.195 716.697 282.445 720.609L229.455 706.7C237.197 693.017 244.814 678.18 249.898 660.453ZM414.781 666.831C422.781 683.105 432.131 699.792 445.489 715.133L396.828 725.302C394.359 718.277 390.667 711.827 385.989 706.223L414.781 666.831ZM37.0125 686.369L113.377 706.416C127.794 750.502 122.431 795.603 115.252 843.053L38.5766 878.931C47.8734 816.202 54.6531 751.722 37.0125 686.369ZM687.234 694.434C663.902 745.427 640.181 798.705 644.37 857.137L576.027 830.095C570.402 791.008 589.739 752.838 608.409 710.911L687.238 694.436L687.234 694.434ZM145.709 714.903L188.856 726.228L189.734 728.416C199.266 752.061 198.145 778.059 194.266 806.084L146.894 828.248C151.916 791.511 154.669 753.541 145.709 714.903ZM572.733 718.367C558.603 749.331 544.925 782.122 545.777 818.128L488.609 795.508C488.603 774.964 490.789 759.82 502.859 742.508L510.641 731.345L572.734 718.366L572.733 718.367ZM222.17 734.973L277.228 749.43C277.572 755.111 278.697 760.578 280.475 765.742L225.366 791.528C227.006 772.934 226.813 753.953 222.17 734.973ZM470.858 739.661C463.631 754.4 460.889 769.177 460.002 784.189L398.63 759.908C399.045 758.15 399.364 756.356 399.63 754.548L470.856 739.661H470.858ZM385.239 786.008L442.277 808.575C428.355 815.731 415.22 825.037 403.719 833.825C397.614 838.491 392.614 842.578 388.272 846.234L372.488 797.177C377.238 794.052 381.528 790.289 385.241 786.008H385.239ZM294.427 791.452L235.588 850.603C231.591 840.916 226.184 833.186 220.606 826.798L220.744 825.93L294.422 791.452H294.427ZM322.13 805.002C327.406 806.47 332.958 807.275 338.703 807.275C340.813 807.275 342.9 807.17 344.956 806.962L361.32 857.806C340.517 857.556 302.55 857.925 264.925 862.509L322.128 805.003L322.13 805.002ZM483.827 825.017L523.456 840.695C477.519 864.008 444.744 896.783 415.25 930.07L397.994 876.447C403.547 871.487 411.634 864.525 421.447 857.03C439.291 843.394 462.397 829.373 477.205 826.362L483.827 825.017ZM192.423 839.181L194.794 841.564C203.931 850.744 210.377 857.662 212.33 873.986L163.669 922.905C163.122 919.358 162.516 915.67 161.794 911.745C158.653 894.636 154.844 875.898 147.223 860.333L192.423 839.184V839.181ZM561.061 855.577L622.339 879.823C545.116 914.98 492.784 968.392 445.073 1022.75L425.644 962.359C463.305 918.862 500.133 878.584 561.063 855.578L561.061 855.577ZM120.458 872.853C125.148 883.536 130.18 901.244 133.077 917.019C135.548 930.472 136.983 942.144 137.733 948.972L81.6672 1005.34C79.0422 997.558 75.7656 988.214 71.4328 976.761C63.0359 954.548 52.6938 929.867 40.7922 910.136L120.458 872.855V872.853ZM356.181 887.147C362.381 887.138 366.828 887.194 370.791 887.248L387.034 937.717C346.008 931.233 295.42 931.17 251.008 932.741C226.672 933.6 207.252 934.814 191.856 935.967L229.525 898.097L231.009 897.737C268.113 888.691 324.541 887.197 356.181 887.147ZM290.256 961.194C329.2 961.111 368.953 963.172 397.156 969.167L418.138 1034.37C357.656 1021.51 279.1 1017.21 211.753 1016.02C169.219 1015.27 134.82 1015.73 111.956 1016.3L160.081 967.916C172.214 966.733 208.066 963.475 252.039 961.922C264.383 961.484 277.273 961.219 290.255 961.192L290.256 961.194Z" fill="black"/>
<path d="M1892.95 435L1920.62 469.911C1919.3 493.438 1909.12 511.45 1895.25 528.028L1892 527.176V536.53L1893.24 536.856C1900.67 558.675 1897.64 580.832 1894.12 603.815L1892 604.806V614.794L1896.45 612.715C1899.6 617.9 1903.06 625.811 1905.67 632.727C1907.75 638.212 1909.29 642.887 1910.15 645.574L1892 663.823V664.999H1903.59L1917.42 651.104C1921.9 650.928 1937.64 650.39 1957.46 650.74C1980.09 651.14 2007.14 652.822 2024.78 657.358L2027.24 665H2036.75L2033.15 653.821C2050.55 633.723 2067.97 614.833 2096.93 604.27L2122 614.189V604.459L2101.19 596.224C2098.1 577.239 2107.36 559.104 2116.01 539.73L2122 538.478V529.234L2118.94 529.875L2116.3 528.518C2089.14 514.558 2079.34 490.756 2071.13 464.267L2092.52 435H2081.31L2062.62 460.569C2034.41 461.177 2008.16 459.377 1987.84 442.272L1986.74 435H1977.59L1978.96 444.078C1965.83 458.115 1951.09 467.297 1928.33 465.07L1904.5 435H1892.95H1892.95ZM1989.75 454.853C2009.41 467.589 2032.6 469.811 2055.96 469.684L2039.91 491.636C2022.2 491.828 2006.09 490.167 1993.51 479.707L1989.75 454.853ZM1980.63 455.066L1984.64 481.587C1976.02 490.601 1966.59 496.2 1951.72 494.589L1935.71 474.381C1954.39 474.023 1968.8 466.08 1980.63 455.066H1980.63ZM2064.55 473.268C2072.07 496.008 2082.49 518.146 2105.48 532.687L2080.42 537.926L2080.02 537.724C2061.98 528.454 2055.6 512.721 2050.04 494.714L2049.69 493.593L2064.55 473.268H2064.55ZM1928.62 480.006L1945.27 501.019C1944.05 515.342 1937.81 526.516 1929.23 536.948L1904.82 530.541C1916.3 516.125 1925.47 499.848 1928.62 480.006L1928.62 480.006ZM1995.36 491.961C2006.95 498.591 2020.08 500.385 2033.32 500.651L2017.39 522.452C2010.1 519.371 2004.73 513.857 1998.72 507.77L1997.58 506.622L1995.36 491.961L1995.36 491.961ZM1986.27 492.353L1988.98 510.246C1983.57 513.877 1977.15 516.129 1970.07 517.747L1958.98 503.755C1969.98 503.08 1978.88 498.584 1986.27 492.353ZM2043.1 502.604C2047.82 516.721 2054.31 530.695 2067.59 540.608L2040.51 546.268C2034.22 540.854 2030.84 534.292 2027.37 526.954L2026.56 525.245L2043.1 502.604ZM1952.84 510.566L1962.11 522.261L1962.07 522.604C1961.13 531.012 1957.77 536.951 1954.01 543.455L1938.74 539.446C1945.13 531.042 1950.33 521.614 1952.84 510.566H1952.84ZM1990.45 519.936L1993.36 539.178C1991.6 539.512 1989.94 540.086 1988.39 540.863L1976.2 525.482C1981.14 524.151 1985.95 522.41 1990.44 519.937L1990.45 519.936ZM1999.82 521.409C2003.38 524.594 2007.33 527.569 2012 529.829L2004.33 540.318C2003.76 540.079 2003.18 539.862 2002.58 539.679L1999.82 521.409L1999.82 521.409ZM1969.44 531.511L1981.5 546.729C1980.73 547.793 1980.06 548.94 1979.52 550.152L1963.1 545.842C1965.5 541.602 1967.86 537.004 1969.44 531.511ZM2020.53 533.488C2023.01 538.53 2025.91 543.702 2030.05 548.455L2014.97 551.606C2014.2 549.429 2013.06 547.431 2011.61 545.694L2020.53 533.488ZM1903.47 539.542L1927.13 545.754C1931.6 559.415 1929.94 573.391 1927.71 588.094L1903.95 599.212C1906.83 579.774 1908.94 559.793 1903.47 539.542ZM2104.96 542.041C2097.73 557.842 2090.38 574.352 2091.67 592.459L2070.5 584.079C2068.75 571.967 2074.74 560.139 2080.53 547.147L2104.96 542.042L2104.96 542.041ZM1937.15 548.384L1950.52 551.893L1950.79 552.571C1953.75 559.898 1953.4 567.955 1952.2 576.639L1937.52 583.507C1939.07 572.123 1939.93 560.357 1937.15 548.384ZM2069.47 549.457C2065.1 559.052 2060.86 569.213 2061.12 580.371L2043.41 573.361C2043.41 566.995 2044.08 562.303 2047.82 556.938L2050.23 553.479L2069.48 549.457L2069.47 549.457ZM1960.84 554.603L1977.91 559.083C1978.01 560.843 1978.36 562.538 1978.91 564.138L1961.83 572.128C1962.34 566.366 1962.28 560.485 1960.84 554.603ZM2037.91 556.056C2035.67 560.623 2034.82 565.202 2034.54 569.854L2015.52 562.33C2015.65 561.785 2015.75 561.229 2015.83 560.669L2037.91 556.056H2037.91ZM2011.38 570.418L2029.05 577.411C2024.74 579.628 2020.67 582.512 2017.1 585.235C2015.21 586.681 2013.66 587.947 2012.32 589.08L2007.42 573.878C2008.9 572.91 2010.23 571.744 2011.38 570.418H2011.38ZM1983.23 572.104L1965 590.434C1963.76 587.432 1962.09 585.037 1960.36 583.058L1960.4 582.788L1983.23 572.104H1983.23ZM1991.82 576.303C1993.45 576.758 1995.17 577.008 1996.96 577.008C1997.61 577.008 1998.26 576.975 1998.89 576.911L2003.96 592.666C1997.52 592.589 1985.75 592.703 1974.09 594.123L1991.82 576.304L1991.82 576.303ZM2041.92 582.506L2054.21 587.364C2039.97 594.588 2029.81 604.744 2020.67 615.059L2015.33 598.442C2017.05 596.906 2019.55 594.748 2022.6 592.425C2028.12 588.2 2035.28 583.855 2039.87 582.922L2041.92 582.506ZM1951.63 586.895L1952.36 587.633C1955.19 590.478 1957.19 592.622 1957.8 597.68L1942.72 612.838C1942.55 611.739 1942.36 610.597 1942.14 609.38C1941.16 604.079 1939.98 598.272 1937.62 593.449L1951.63 586.896V586.895ZM2065.86 591.975L2084.85 599.489C2060.92 610.383 2044.7 626.934 2029.92 643.776L2023.9 625.064C2035.57 611.586 2046.98 599.105 2065.86 591.976L2065.86 591.975ZM1929.33 597.329C1930.78 600.639 1932.34 606.126 1933.24 611.014C1934 615.183 1934.45 618.8 1934.68 620.916L1917.31 638.383C1916.49 635.971 1915.48 633.076 1914.14 629.527C1911.53 622.644 1908.33 614.996 1904.64 608.882L1929.33 597.329V597.329ZM2002.37 601.758C2004.29 601.755 2005.67 601.772 2006.9 601.789L2011.93 617.428C1999.22 615.419 1983.54 615.4 1969.78 615.886C1962.24 616.153 1956.22 616.529 1951.45 616.886L1963.12 605.151L1963.58 605.04C1975.08 602.236 1992.57 601.773 2002.37 601.758ZM1981.94 624.703C1994.01 624.678 2006.33 625.316 2015.07 627.174L2021.57 647.377C2002.83 643.393 1978.49 642.062 1957.62 641.694C1944.44 641.461 1933.78 641.603 1926.69 641.778L1941.6 626.786C1945.36 626.42 1956.47 625.41 1970.1 624.929C1973.93 624.793 1977.92 624.711 1981.94 624.703L1981.94 624.703Z" fill="black"/>
<path d="M1698.64 985.946L1677.39 946.799C1682.73 923.848 1695.85 907.855 1712.36 893.907L1715.42 895.305L1717.03 886.09L1715.86 885.557C1712.29 862.784 1719.09 841.478 1726.51 819.442L1728.76 818.83L1730.48 808.99L1725.74 810.274C1723.53 804.625 1721.48 796.237 1720.09 788.975C1718.99 783.214 1718.27 778.344 1717.89 775.548L1738.91 760.692L1739.11 759.532L1727.69 757.54L1711.68 768.853C1707.23 768.255 1691.64 766.08 1672.18 762.329C1649.95 758.045 1623.59 751.738 1606.99 744.238L1605.88 736.287L1596.52 734.653L1598.14 746.284C1577.54 763.092 1557.14 778.708 1526.79 784.134L1503.8 770.055L1502.13 779.64L1521.21 791.33C1520.99 810.562 1508.75 826.835 1496.9 844.435L1490.79 844.639L1489.2 853.745L1492.32 853.64L1494.69 855.431C1519.04 873.85 1524.61 898.983 1528.15 926.49L1502.04 951.644L1513.08 953.571L1535.89 931.594C1563.79 935.846 1589.33 942.129 1606.41 962.472L1606.25 969.825L1615.26 971.398L1615.47 962.219C1630.82 950.65 1646.91 944.136 1668.96 950.243L1687.27 983.962L1698.64 985.946ZM1606.7 949.751C1589.52 933.825 1567.06 927.65 1544.02 923.76L1563.6 904.892C1581.08 907.748 1596.67 912.153 1607.26 924.62L1606.7 949.751ZM1615.72 951.108L1616.32 924.292C1626.37 916.895 1636.62 913.001 1650.99 917.142L1663.29 939.802C1644.82 936.943 1629.26 942.29 1615.72 951.108ZM1536.17 918.754C1532.67 895.059 1526.22 871.46 1506.06 853.183L1531.65 852.33L1532.01 852.597C1548.19 864.83 1551.77 881.426 1554.16 900.12L1554.3 901.284L1536.17 918.754ZM1671.24 935.479L1658.45 911.917C1662.11 898.016 1670.17 888.081 1680.43 879.28L1703.37 889.786C1689.58 902.014 1677.75 916.474 1671.24 935.479ZM1607.54 912.23C1597.27 903.707 1584.64 899.683 1571.64 897.145L1591.08 878.407C1597.74 882.695 1602.07 889.049 1606.96 896.081L1607.88 897.406L1607.54 912.23ZM1616.57 913.407L1616.98 895.315C1622.93 892.668 1629.64 891.553 1636.89 891.175L1645.41 906.864C1634.46 905.639 1624.92 908.538 1616.57 913.407ZM1562.34 893.539C1560.12 878.822 1556.13 863.941 1544.75 851.893L1572.4 850.971C1577.67 857.386 1579.87 864.431 1582.03 872.257L1582.53 874.08L1562.34 893.539ZM1652.63 901.211L1645.51 888.098L1645.61 887.765C1647.98 879.643 1652.31 874.371 1657.13 868.611L1671.49 875.185C1663.74 882.364 1657 890.758 1652.63 901.211ZM1617.2 885.517L1617.64 866.06C1619.42 866.032 1621.16 865.753 1622.81 865.253L1632.18 882.501C1627.09 882.964 1622.05 883.852 1617.2 885.517ZM1608.21 882.454C1605.25 878.704 1601.87 875.094 1597.67 872.066L1607.02 863.052C1607.54 863.385 1608.08 863.698 1608.63 863.981L1608.21 882.454ZM1639.88 877.724L1630.62 860.66C1631.56 859.745 1632.41 858.729 1633.15 857.627L1648.58 864.696C1645.49 868.46 1642.38 872.584 1639.88 877.724ZM1589.89 866.996C1588.31 861.602 1586.35 856.01 1583.09 850.615L1598.48 850.103C1598.86 852.379 1599.65 854.545 1600.78 856.504L1589.89 866.996ZM1706.25 881.152L1684 870.965C1681.95 856.739 1685.99 843.257 1690.71 829.155L1716.03 822.286C1709.85 840.94 1704.34 860.262 1706.25 881.152ZM1508.19 844.058C1518.03 829.735 1528.11 814.735 1529.94 796.674L1549.36 808.569C1549 820.801 1541.06 831.423 1533.13 843.227L1508.19 844.058L1508.19 844.058ZM1674.59 866.652L1662.02 860.897L1661.87 860.182C1660.22 852.457 1661.94 844.58 1664.62 836.232L1680.26 831.989C1676.77 842.936 1673.91 854.38 1674.59 866.652ZM1544.42 842.851C1550.38 834.151 1556.3 824.87 1557.96 813.833L1574.2 823.783C1573.11 830.055 1571.64 834.561 1567.03 839.203L1564.06 842.196L1544.42 842.851ZM1652.31 856.453L1636.28 849.108C1636.47 847.355 1636.42 845.626 1636.15 843.955L1654.35 839.019C1652.86 844.607 1651.91 850.412 1652.31 856.453ZM1576.65 841.777C1579.64 837.662 1581.26 833.298 1582.33 828.762L1599.78 839.443C1599.56 839.958 1599.36 840.488 1599.19 841.026L1576.65 841.777ZM1605.25 832.189L1589.04 822.262C1593.68 820.819 1598.18 818.678 1602.16 816.608C1604.27 815.509 1606.02 814.527 1607.54 813.642L1609.74 829.459C1608.12 830.16 1606.62 831.08 1605.25 832.189ZM1633.27 835.364L1654.38 820.441C1655.08 823.611 1656.32 826.258 1657.68 828.505L1657.59 828.763L1633.27 835.364L1633.27 835.364ZM1625.53 829.752C1624 829.023 1622.35 828.481 1620.59 828.175C1619.95 828.063 1619.31 827.984 1618.67 827.938L1616.38 811.545C1622.72 812.73 1634.33 814.639 1646.06 815.244L1625.53 829.752ZM1577.24 815.03L1565.97 808.133C1581.24 803.464 1592.99 795.204 1603.77 786.614L1606.18 803.902C1604.22 805.12 1601.38 806.815 1597.98 808.58C1591.81 811.792 1584.01 814.842 1579.33 814.972L1577.24 815.03ZM1666.95 826.226L1666.35 825.373C1664.05 822.084 1662.45 819.629 1662.72 814.542L1680.18 802.2C1680.16 803.312 1680.15 804.47 1680.16 805.707C1680.21 811.097 1680.37 817.02 1681.87 822.177L1666.95 826.226ZM1555.29 801.588L1537.87 790.922C1563.32 784.303 1582.14 770.786 1599.6 756.735L1602.31 776.203C1588.5 787.475 1575.11 797.81 1555.29 801.588ZM1690.71 819.781C1689.84 816.27 1689.25 810.596 1689.21 805.626C1689.17 801.388 1689.35 797.749 1689.49 795.624L1709.6 781.404C1709.99 783.919 1710.49 786.946 1711.21 790.673C1712.59 797.9 1714.43 805.986 1717.01 812.643L1690.71 819.781ZM1619.51 802.863C1617.62 802.535 1616.26 802.281 1615.06 802.053L1612.79 785.782C1624.96 789.947 1640.4 792.66 1654.04 794.546C1661.52 795.58 1667.51 796.244 1672.27 796.712L1658.76 806.266L1658.29 806.296C1646.48 807.082 1629.17 804.532 1619.51 802.863ZM1643.58 783.77C1631.69 781.721 1619.66 778.975 1611.37 775.642L1608.44 754.622C1626.22 761.769 1649.97 767.263 1670.46 771.213C1683.41 773.708 1693.93 775.4 1700.94 776.446L1683.67 788.651C1679.91 788.366 1668.79 787.451 1655.28 785.583C1651.49 785.059 1647.54 784.453 1643.58 783.77Z" fill="black"/>
<path d="M2216.5 873L2248.05 810.142C2318.5 781.571 2384 784.451 2449.96 799.249L2451.57 809.192L2478.92 796.416L2478.31 792.629C2532.73 742.762 2601.34 720.686 2672.98 698.797L2678.55 703.163L2707.75 689.521L2696.07 680.361C2707.25 664.763 2726.02 644.621 2742.94 628.115C2756.36 615.024 2768.08 604.468 2774.85 598.472L2851.1 622.558L2854.54 620.951L2839.92 589.654L2781.86 571.314C2775.69 559.436 2754.27 517.687 2730.3 463.706C2702.93 402.058 2673.73 326.731 2664.74 272.906L2683.99 255.827L2672 230.165L2643.85 255.145C2563.14 235.615 2485.94 214.394 2418.53 150.622L2415.92 69.3974L2387.47 82.6874L2389.64 150.121C2338.02 184.382 2273.32 184.146 2205.76 187.255L2194.55 172.804L2167.53 185.429L2173.26 192.819L2172.62 201.797C2166.05 294.18 2108.82 353.154 2041.73 411.511L1929.18 393.727L1943.32 423.988L2041.65 439.522C2079 514.866 2106.84 588.176 2082.46 666.401L2062.58 679.306L2074.12 704.011L2098.93 687.902C2156.54 704.203 2201.97 731.437 2224.17 795.941L2198 848L2206 869.5L2216.5 873ZM2116.84 644.074C2129.28 573.597 2106.53 507.961 2076.69 445.057L2161.12 458.394C2184.02 505.959 2199.48 551.714 2184.76 599.973L2116.84 644.074ZM2128.96 668.402L2201.44 621.343C2238.67 632.32 2266.94 650.135 2280.98 692.466L2242.09 763.303C2217.47 713.345 2176.08 685.284 2128.96 668.404L2128.96 668.402ZM2076.34 416.978C2133.35 365.611 2184.94 307.252 2198.45 225.301L2245.38 285.816L2245.28 287.158C2240.94 348.537 2202.98 387.248 2157.35 426.861L2154.51 429.328L2076.34 416.981L2076.34 416.978ZM2267.47 774.751L2307.91 701.094C2351.33 684.829 2391.86 686.406 2433.2 695.341L2445.24 769.979C2388.61 758.67 2329.46 756.163 2267.47 774.75L2267.47 774.751ZM2218.25 578.232C2223.02 537.887 2211.71 499.994 2195.79 463.875L2279.63 477.117C2279.81 501.009 2270.45 523.023 2260.25 547.589L2258.32 552.219L2218.25 578.232L2218.25 578.232ZM2230.86 602.242L2279.77 570.494C2297.21 580.144 2311.89 594.402 2325.54 611.29L2298.62 660.336C2282.77 631.573 2258.4 613.68 2230.86 602.242ZM2189.16 434.804C2224.49 402.785 2257.16 366.182 2269.39 316.783L2320.09 382.16C2312.2 406.544 2297.28 424.63 2280.21 444.036L2276.23 448.554L2189.16 434.804ZM2326.28 667.63L2348.79 626.635L2349.84 626.268C2375.6 617.307 2397.21 618.277 2420.97 619.555L2428.5 666.254C2395.87 660.461 2361.75 659.314 2326.28 667.633L2326.28 667.63ZM2306.25 553.299L2358.84 519.159C2362.02 523.431 2365.8 527.142 2370.02 530.256L2340.43 584.174C2330.31 572.672 2319.15 562.056 2306.25 553.299L2306.25 553.299ZM2298.74 525.979C2303.56 512.015 2307.27 497.279 2308 481.601L2348.33 487.974C2348.35 489.838 2348.45 491.703 2348.67 493.561L2298.73 525.979L2298.74 525.979ZM2366.59 594.207L2395.87 540.861C2399.95 541.491 2404.14 541.711 2408.37 541.519L2416.48 591.738C2401.06 591.051 2384.64 590.959 2366.59 594.207ZM2307.93 453.568C2319.55 439.988 2331.01 425.103 2339.69 407.436L2367.92 443.842C2362.52 448.88 2358.12 454.699 2354.87 460.984L2307.93 453.568ZM2473.26 761.338L2461.58 688.968C2495.89 658.248 2538.85 643.646 2584.65 629.571L2647.12 678.532C2586.65 697.303 2525.58 718.921 2473.26 761.338ZM2226.47 213.954C2281.79 211.892 2339.33 209.188 2390.63 180.953L2392.84 249.574C2359.62 270.823 2317.48 270.8 2272.2 272.925L2226.47 213.95L2226.47 213.954ZM2456.64 658.326L2450.04 617.437L2451.67 615.777C2469.37 597.796 2493.37 587.73 2520.27 579.114L2558.87 609.365C2523.62 620.712 2488.14 634.479 2456.64 658.326ZM2292.9 299.616C2326.47 298.332 2361.53 295.897 2393.82 279.946L2395.66 337.345C2377.05 346.045 2362.48 350.625 2342.08 347.854L2328.92 346.069L2292.9 299.615L2292.9 299.616ZM2444.94 585.866L2436.52 533.686C2441.54 530.994 2446.05 527.739 2450.03 524.066L2494.93 559.257C2477.44 565.754 2460.32 573.949 2444.94 585.866ZM2352 375.832C2368.18 375.639 2382.64 371.68 2396.59 366.068L2398.57 427.688C2396.82 428.084 2395.07 428.577 2393.33 429.12L2352 375.833L2352 375.832ZM2427.45 427.844L2425.61 370.576C2437.53 379.194 2451.1 386.244 2463.55 392.147C2470.17 395.279 2475.82 397.732 2480.83 399.818L2442.56 433.785C2437.87 431.134 2432.78 429.137 2427.45 427.843L2427.45 427.844ZM2467.87 501.513L2544.46 525.703C2537.25 533.147 2532.35 540.941 2528.75 548.311L2527.91 548.564L2467.88 501.517L2467.87 501.513ZM2469.32 472.602C2468.59 467.566 2467.15 462.582 2464.91 457.775C2464.08 456.01 2463.17 454.308 2462.18 452.676L2501.85 417.468C2509.75 434.977 2524.93 466.584 2543.78 496.121L2469.33 472.603L2469.32 472.602ZM2424.27 328.857L2422.99 289.068C2462.06 317.632 2504.56 331.18 2546.25 341.766L2504.41 378.898C2497.74 376.351 2488.28 372.532 2477.65 367.495C2458.32 358.338 2436.59 344.941 2428.08 333.827L2424.27 328.857ZM2550.98 566.648L2552.21 563.657C2556.96 552.127 2560.71 543.807 2574.73 535.264L2638.07 555.27C2635.07 557.229 2631.97 559.296 2628.69 561.561C2614.42 571.43 2598.93 582.547 2587.81 595.51L2550.98 566.647L2550.98 566.648ZM2421.77 251.31L2419.79 189.783C2481.83 239.508 2550.67 260.683 2618.56 277.594L2571.44 319.405C2517.31 306.307 2466.43 292.544 2421.77 251.308L2421.77 251.31ZM2609.61 612.603C2617.46 604.158 2631.53 592.454 2644.7 583.354C2655.92 575.592 2665.93 569.453 2671.83 565.935L2744.81 588.983C2738.78 594.473 2731.6 601.168 2722.91 609.64C2706.07 626.066 2687.75 645.164 2674.52 663.472L2609.61 612.602L2609.61 612.603ZM2530.44 409.349C2528.01 404.166 2526.32 400.422 2524.83 397.084L2564.2 362.135C2574.36 399.202 2594.07 441.549 2612.85 478.04C2623.14 498.035 2631.83 513.768 2638.89 526.16L2589.86 510.674L2588.95 509.585C2566.26 482.373 2542.85 435.798 2530.44 409.349ZM2623.29 433.163C2608 400.618 2594.33 366.488 2588.74 340.356L2639.61 295.21C2651.6 351.251 2678.41 418.787 2703.65 475.632C2719.59 511.534 2733.45 540.118 2742.9 559.007L2680.26 539.221C2674.44 529.572 2657.48 500.957 2638.89 464.827C2633.67 454.685 2628.39 444.013 2623.29 433.165L2623.29 433.163Z" fill="black"/>
</svg>
