<?xml version="1.0" encoding="iso-8859-1"?>
<!-- Uploaded to: SVG Repo, www.svgrepo.com, Generator: SVG Repo Mixer Tools -->
<svg fill="#000000" height="800px" width="800px" version="1.1" id="Layer_1" xmlns="http://www.w3.org/2000/svg" xmlns:xlink="http://www.w3.org/1999/xlink" 
	 viewBox="0 0 482.624 482.624" xml:space="preserve">
<g>
	<g>
		<path d="M408.904,255.592c-12.464-8.304-47.592-34.832-47.592-70.28c0-34.384,19.264-69.584,22.392-75.08l39.264-39.264
			l-11.312-11.312l-39.56,39.56c-3.728,2.648-32.224,22.096-66.784,22.096c-43.336,0-77.4-49.232-86.52-63.792L209.208,0
			l-15.784,2.624l7.704,46.208c-29.576,107.72-127.16,155.664-137.944,160.656l-60.816-8.112l-2.112,15.856l64.28,8.568
			c10.112,5.16,48.776,28.216,48.776,79.512c0,40.968-12.248,63.48-14.328,67.016l-47.328,47.328l11.312,11.312l47.36-47.36
			c3.544-2.16,24.968-14.296,58.984-14.296c50.2,0,85.288,43.528,94.648,56.536l9.464,56.776L289.208,480l-7.76-46.56
			c23.088-126.92,131.264-158.568,137.728-160.344l61.088,8.144l2.104-15.856L408.904,255.592z M378.232,251.496l-31.136-4.152
			c-21.584-25.376-25.112-63.712-25.672-74.84l31.512-31.512c-4.264,13.32-7.624,28.744-7.624,44.32
			C345.312,213.6,362.312,236.344,378.232,251.496z M325.44,244.464l-31.096-4.152c-3.544-11.072-4.728-27.072-4.976-35.744
			l17.336-17.336C308.68,202.408,313.576,224.68,325.44,244.464z M305.312,137.312c12.176,0,23.568-2.08,33.704-5.016l-28.92,28.92
			c-12.272-0.232-23.968-1.712-34.76-4.52l-4.048,15.488c7.552,1.968,15.496,3.312,23.696,4.144l-16.928,16.928
			c-9.192-0.256-26.536-1.6-37.592-5.656l-5.168-31c5.152,3.352,11.344,6.816,18.976,9.936l6.064-14.8
			c-16.768-6.872-25.936-15.504-28.968-18.696l-6.792-40.736C242.752,113.36,270.928,137.312,305.312,137.312z M204.512,289.424
			c9.72,0.544,28.912,3.552,38.936,13.376l4.616,27.68c-22.208-10.768-50.224-14.776-68.336-16.28L204.512,289.424z M168.2,303.112
			c-3.312-28.696-13.704-51.928-21.92-66.408l27.08,3.616c2.864,2.12,18.448,14.744,19.808,37.824L168.2,303.112z M224.208,247.104
			l-17.08,17.08c-2.12-8.224-5.552-15.08-9.248-20.584L224.208,247.104z M204.64,228.352c7.152-5.008,15.088-11.912,22.872-21.192
			l4.128,24.792L204.64,228.352z M235.976,257.96l3.928,23.552c-7.096-3.264-14.576-5.232-21.064-6.416L235.976,257.96z
			 M246.648,224.664l-3.256-19.512c6.544,1.568,13.464,2.552,19.608,3.16L246.648,224.664z M258.416,235.52l15.904-15.904
			c0.568,5.768,1.456,12.224,2.864,18.408L258.416,235.52z M270.52,253.28c-6.728,4.816-12.24,10.248-16.552,15.304l-2.984-17.912
			L270.52,253.28z M223.856,185.24c-17.776,27.216-39.152,36.96-46.144,39.52l-28.32-3.776c18.12-13.928,47.6-40.624,67.24-79.128
			L223.856,185.24z M206.656,82.056l5.08,30.456c-21.728,62.736-77.864,100.416-85.64,105.376l-35.656-4.752
			C121.44,194.768,177.264,153.536,206.656,82.056z M97.568,230.216l28.136,3.752c7.16,10.408,26.52,42.424,27.496,84.144
			l-28.056,28.056c2.4-11.064,4.168-24.648,4.168-40.856C129.312,269.344,113.216,245.24,97.568,230.216z M169.312,353.312
			c-12.176,0-22.912,1.424-32.12,3.432l27.36-27.36c12.832,0.392,61.088,3.12,86.936,21.648l7.336,44.032
			C239.952,375.936,209.256,353.312,169.312,353.312z M275.008,394.84l-9.32-55.936c7.696-13.36,16.896-25.448,27.512-35.888
			l-11.216-11.408c-7.376,7.256-14.08,15.288-20.192,23.864l-4.12-24.696c3.976-6.728,18.072-27.768,41.496-33.68l26.712,3.56
			c-7.424,3.544-15.568,8.128-23.992,14.136l9.296,13.032c23.968-17.104,45.672-21.624,50.24-22.432l25.976,3.464
			C354.24,285.216,300.232,321.928,275.008,394.84z"/>
	</g>
</g>
</svg>