<?xml version="1.0" encoding="iso-8859-1"?>
<!-- Uploaded to: SVG Repo, www.svgrepo.com, Generator: SVG Repo Mixer Tools -->
<svg height="800px" width="800px" version="1.1" id="Layer_1" xmlns="http://www.w3.org/2000/svg" xmlns:xlink="http://www.w3.org/1999/xlink" 
	 viewBox="0 0 511.998 511.998" xml:space="preserve">
<g>
	<path style="fill:#F95428;" d="M392.319,334.648c-20.196,28.19-45.814,50.072-74.756,63.063v-21.821h-30.324v31.829
		c-10.153,2.195-20.584,3.348-31.234,3.348c-27.037,0-52.716-7.375-75.823-20.609c-23.119-13.246-43.679-32.338-60.503-55.809
		c28.881,6.684,58.126,11.196,87.504,13.585v30.082h32.75v-28.323C291.011,351.351,342.223,346.244,392.319,334.648z"/>
	<polygon style="fill:#F95428;" points="256.004,261.748 287.53,316.368 224.467,316.368 	"/>
	<polygon style="fill:#F95428;" points="370.303,211.821 398.202,290.022 289.664,267.885 	"/>
	<polygon style="fill:#F95428;" points="222.344,267.885 113.794,290.022 141.693,211.821 	"/>
</g>
<path style="fill:#9AD14B;" d="M330.542,94.235l19.59,12.287v0.036c-0.643-0.024-1.298-0.036-1.941-0.036
	c-11.742,0-23.034,3.336-33.6,9.51c-17.503-14.677-37.433-22.986-58.587-22.986s-41.084,8.309-58.587,22.986
	c-10.565-6.174-21.858-9.51-33.6-9.51c-0.655,0-1.298,0.012-1.953,0.036v-0.036l19.602-12.287
	c13.428-8.406,24.223-19.978,31.659-33.418c7.436-13.428,11.511-28.723,11.511-44.577h62.723
	C287.36,47.948,303.674,77.411,330.542,94.235z"/>
<path style="fill:#90BC42;" d="M209.911,106.523c-0.655,0-1.298,0.012-1.953,0.036v-0.036l19.602-12.287
	c13.428-8.406,19.954-62.141,19.954-77.995h-22.877c0,15.854-4.076,31.149-11.511,44.577c-7.436,13.44-18.231,25.012-31.659,33.418
	l-19.602,12.287v0.036c0.655-0.024,1.298-0.036,1.953-0.036c11.742,0,23.035,3.336,33.6,9.51c4.234-3.552,8.615-6.721,13.117-9.499
	C210.326,106.531,210.118,106.523,209.911,106.523z"/>
<path style="fill:#F7B239;" d="M395.339,125.809c3.797-0.813,7.666-1.225,11.584-1.225c53.007,0,95.983,76.03,95.983,169.817
	s-42.976,169.817-95.983,169.817c-3.918,0-7.787-0.412-11.584-1.225c-14.216,12.348-30.227,19.286-47.148,19.286
	c-11.742,0-23.034-3.336-33.6-9.51c-17.503,14.677-37.433,22.986-58.587,22.986s-41.084-8.309-58.587-22.986
	c-10.565,6.174-21.858,9.51-33.6,9.51c-16.921,0-32.932-6.938-47.149-19.286c-3.797,0.813-7.666,1.225-11.584,1.225
	c-53.007,0-95.983-76.03-95.983-169.817s42.976-169.817,95.983-169.817c3.918,0,7.787,0.412,11.584,1.225
	c13.67-11.875,28.99-18.741,45.196-19.25c0.655-0.024,1.298-0.036,1.953-0.036c11.742,0,23.034,3.336,33.6,9.51
	c17.503-14.677,37.433-22.986,58.587-22.986s41.084,8.309,58.587,22.986c10.565-6.174,21.858-9.51,33.6-9.51
	c0.643,0,1.298,0.012,1.941,0.036C366.337,107.056,381.669,113.922,395.339,125.809z M398.202,290.022l-27.899-78.201
	l-80.639,56.064L398.202,290.022z M317.563,397.711c28.942-12.991,54.56-34.873,74.756-63.063
	c-50.096,11.596-101.308,16.703-152.387,15.344v28.323h-32.75v-30.082c-29.378-2.39-58.623-6.902-87.504-13.585
	c16.824,23.471,37.384,42.563,60.503,55.809c23.107,13.234,48.786,20.609,75.823,20.609c10.65,0,21.082-1.152,31.234-3.348v-31.829
	h30.324V397.711z M287.53,316.368l-31.525-54.62l-31.537,54.62H287.53z M113.794,290.022l108.55-22.137l-80.651-56.064
	L113.794,290.022z"/>
<path style="fill:#E09B2D;" d="M84.974,294.401c0-133.099,87.43-181.892,97.497-185.01c-6.056-1.881-12.287-2.869-18.653-2.869
	c-0.655,0-1.298,0.012-1.953,0.036c-16.205,0.509-31.525,7.375-45.196,19.25c-3.797-0.813-7.666-1.225-11.584-1.225
	c-53.007,0-95.983,76.03-95.983,169.817s42.976,169.817,95.983,169.817c3.918,0,7.787-0.412,11.584-1.225
	c14.216,12.348,30.227,19.286,47.149,19.286c6.355,0,12.576-0.985,18.624-2.86C172.385,476.298,84.974,434.634,84.974,294.401z"/>
<g>
	<path style="fill:#333333;" d="M482.709,169.844c-19.813-35.054-46.729-54.36-75.788-54.36c-3.057,0-6.115,0.238-9.142,0.671
		c-13.77-10.99-28.932-17.445-44.733-18.549L335.367,86.53c-24.36-15.263-38.904-41.538-38.904-70.286
		c0-5.024-4.073-9.097-9.097-9.097h-62.73c-5.024,0-9.097,4.073-9.097,9.097c0,28.748-14.544,55.022-38.904,70.286l-17.677,11.076
		c-15.803,1.104-30.965,7.559-44.735,18.549c-3.028-0.433-6.086-0.671-9.141-0.671c-29.061,0-55.975,19.306-75.788,54.36
		C10.403,203.261,0,247.496,0,294.399s10.403,91.137,29.291,124.556c19.813,35.054,46.729,54.358,75.788,54.358
		c3.055,0,6.112-0.237,9.137-0.67c15.177,12.112,32.042,18.731,49.595,18.731c11.153,0,22.099-2.619,32.626-7.776
		c18.377,13.913,38.848,21.253,59.561,21.253c20.714,0,41.186-7.34,59.561-21.253c10.526,5.158,21.473,7.776,32.626,7.776
		c17.553,0,34.418-6.62,49.595-18.732c3.026,0.433,6.083,0.67,9.139,0.67c29.061,0,55.975-19.306,75.788-54.358
		c18.889-33.419,29.291-77.653,29.291-124.556C512,247.496,501.597,203.261,482.709,169.844z M233.331,25.342h45.338
		c2.752,31.09,19.546,58.976,46.132,76.021c-3.113,1.065-6.193,2.345-9.241,3.837c-15.68-11.871-32.884-18.949-50.464-20.769V55.06
		c0-5.024-4.073-9.097-9.097-9.097c-5.024,0-9.097,4.073-9.097,9.097v29.371c-17.581,1.819-34.786,8.898-50.464,20.769
		c-3.047-1.493-6.128-2.773-9.239-3.837C213.784,84.318,230.579,56.431,233.331,25.342z M466.87,410.001
		c-14.128,24.993-31.831,40.329-50.622,44.16c16.721-20.495,30.219-48.611,38.595-82.262c1.213-4.876-1.755-9.812-6.63-11.025
		c-4.873-1.213-9.811,1.755-11.025,6.63c-15.979,64.196-50.914,105.677-89,105.677c-5.889,0-11.738-1.014-17.496-2.98
		c9.331-9.572,17.849-20.906,25.413-33.854c0.813-1.393,1.242-2.977,1.242-4.589v-0.012c0-5.024-4.073-9.091-9.097-9.091
		c-3.423,0-6.405,1.895-7.958,4.689c-9.171,15.661-19.784,28.597-31.547,38.454c-16.506,13.841-34.252,20.86-52.742,20.86
		c-18.489,0-36.235-7.018-52.744-20.862c-11.805-9.891-22.452-22.887-31.647-38.626c-2.534-4.339-8.105-5.799-12.444-3.267
		c-4.338,2.534-5.8,8.105-3.267,12.444c7.564,12.949,16.082,24.284,25.412,33.854c-5.758,1.966-11.608,2.98-17.497,2.98
		c-38.086,0-73.02-41.48-88.999-105.677c-1.213-4.876-6.151-7.846-11.025-6.63c-4.876,1.213-7.844,6.15-6.63,11.025
		c8.376,33.65,21.874,61.767,38.593,82.262c-18.791-3.831-36.495-19.166-50.621-44.159c-17.372-30.732-26.939-71.787-26.939-115.603
		s9.567-84.871,26.937-115.602c14.128-24.995,31.833-40.332,50.626-44.16c-16.722,20.497-30.223,48.619-38.599,82.275
		c-1.213,4.876,1.755,9.812,6.63,11.025c0.737,0.184,1.476,0.272,2.204,0.272c4.079,0,7.791-2.764,8.821-6.902
		c15.981-64.203,50.915-105.689,88.999-105.689c5.887,0,11.736,1.013,17.491,2.979c-9.341,9.576-17.859,20.919-25.412,33.875
		c-0.81,1.391-1.238,2.972-1.238,4.581v0.012c0,5.024,4.073,9.091,9.097,9.091c3.427,0,6.409-1.897,7.961-4.697
		c9.152-15.661,19.762-28.597,31.544-38.459c16.507-13.841,34.252-20.86,52.742-20.86c18.491,0,36.235,7.018,52.748,20.864
		c11.745,9.831,22.331,22.725,31.466,38.33c1.531,2.869,4.554,4.819,8.034,4.819c5.024,0,9.097-4.079,9.097-9.103
		c0-1.61-0.427-3.191-1.238-4.581c-7.553-12.956-16.071-24.298-25.412-33.875c5.756-1.965,11.605-2.979,17.491-2.979
		c38.084,0,73.019,41.485,89,105.689c1.03,4.137,4.742,6.902,8.821,6.902c0.728,0,1.466-0.089,2.204-0.272
		c4.876-1.213,7.844-6.15,6.63-11.025c-8.377-33.658-21.877-61.778-38.599-82.276c18.794,3.828,36.5,19.165,50.629,44.16
		c17.37,30.731,26.937,71.787,26.937,115.602C493.805,338.215,484.238,379.27,466.87,410.001z"/>
	<path style="fill:#333333;" d="M115.614,298.935l108.545-22.142c3.567-0.728,6.357-3.513,7.092-7.079
		c0.735-3.566-0.728-7.227-3.718-9.305l-80.647-56.063c-2.325-1.617-5.273-2.057-7.97-1.194c-2.698,0.865-4.839,2.938-5.79,5.606
		l-27.899,78.206c-1.104,3.092-0.455,6.539,1.697,9.018c1.747,2.014,4.264,3.136,6.87,3.136
		C114.4,299.12,115.009,299.059,115.614,298.935z M146.265,226.074l53.427,37.14l-71.908,14.669L146.265,226.074z"/>
	<path style="fill:#333333;" d="M378.875,208.76c-0.952-2.669-3.092-4.742-5.79-5.606c-2.699-0.865-5.644-0.423-7.971,1.194
		l-80.647,56.063c-2.99,2.078-4.452,5.739-3.718,9.305c0.734,3.566,3.525,6.351,7.092,7.079l108.545,22.142
		c0.605,0.124,1.214,0.184,1.819,0.184c2.607,0,5.124-1.122,6.87-3.136c2.152-2.479,2.801-5.927,1.697-9.018L378.875,208.76z
		 M312.308,263.214l53.427-37.14l18.481,51.809L312.308,263.214z"/>
	<path style="fill:#333333;" d="M390.269,325.788c-49.143,11.369-99.645,16.453-150.1,15.111c-2.426-0.064-4.829,0.864-6.589,2.576
		c-1.759,1.713-2.751,4.063-2.751,6.517v19.227h-14.556v-20.993c0-4.739-3.639-8.685-8.363-9.068
		c-28.974-2.347-57.971-6.846-86.18-13.372c-3.689-0.854-7.519,0.667-9.619,3.816c-2.1,3.149-2.031,7.271,0.175,10.347
		c36.535,50.978,88.916,80.216,143.713,80.216c11.073,0,22.229-1.198,33.156-3.561c4.187-0.905,7.175-4.608,7.175-8.892v-22.724
		h12.13v12.725c0,3.086,1.564,5.961,4.154,7.637c2.591,1.676,5.853,1.925,8.668,0.662c29.979-13.456,57.099-36.301,78.43-66.065
		c2.205-3.077,2.274-7.198,0.175-10.347C397.787,326.455,393.958,324.933,390.269,325.788z M326.655,382.912v-7.02
		c0-5.024-4.073-9.097-9.097-9.097h-30.324c-5.024,0-9.097,4.073-9.097,9.097v24.285c-7.346,1.191-14.763,1.794-22.137,1.794
		c-41.519,0-81.691-19.114-113.119-53.178c18.247,3.415,36.712,6.014,55.198,7.767v21.758c0,5.024,4.073,9.097,9.097,9.097h32.75
		c5.024,0,9.097-4.073,9.097-9.097v-19.053c40.278,0.458,80.539-3.056,120.098-10.468
		C356.313,362.699,341.978,374.222,326.655,382.912z"/>
	<path style="fill:#333333;" d="M216.59,320.914c1.625,2.815,4.628,4.549,7.878,4.549h63.064c3.251,0,6.253-1.733,7.878-4.549
		c1.625-2.815,1.625-6.282,0-9.097l-31.533-54.614c-1.625-2.815-4.628-4.549-7.878-4.549s-6.253,1.733-7.878,4.549l-31.531,54.614
		C214.964,314.631,214.964,318.099,216.59,320.914z M255.999,279.946l15.775,27.322h-31.55L255.999,279.946z"/>
</g>
</svg>