<svg width="2677" height="1015" viewBox="0 0 2677 1015" fill="none" xmlns="http://www.w3.org/2000/svg">
<path d="M151.288 584L0.626465 57.4541H122.236L209.394 423.311H213.764L309.921 57.4541H414.047L509.946 424.082H514.574L601.732 57.4541H723.341L572.679 584H464.182L363.912 239.74H359.798L259.786 584H151.288Z" fill="#24C8DB"/>
<path d="M1379.71 584V189.09H1485.89V257.994H1490C1497.2 233.483 1509.29 214.972 1526.26 202.46C1543.22 189.776 1562.76 183.434 1584.87 183.434C1590.36 183.434 1596.27 183.777 1602.61 184.463C1608.96 185.148 1614.53 186.091 1619.33 187.291V284.475C1614.18 282.933 1607.07 281.562 1597.99 280.362C1588.9 279.162 1580.59 278.562 1573.05 278.562C1556.94 278.562 1542.54 282.076 1529.86 289.103C1517.34 295.959 1507.4 305.558 1500.03 317.899C1492.83 330.24 1489.23 344.466 1489.23 360.578V584H1379.71Z" fill="#24C8DB"/>
<path d="M1803.09 590.427C1773.1 590.427 1745.93 582.714 1721.59 567.288C1697.42 551.69 1678.22 528.808 1664 498.642C1649.94 468.304 1642.92 431.109 1642.92 387.059C1642.92 341.809 1650.2 304.187 1664.77 274.191C1679.34 244.025 1698.71 221.485 1722.87 206.573C1747.21 191.49 1773.87 183.948 1802.83 183.948C1824.94 183.948 1843.37 187.719 1858.11 195.261C1873.02 202.631 1885.02 211.887 1894.1 223.028C1903.36 233.998 1910.39 244.796 1915.19 255.423H1918.53V57.4541H2027.8V584H1919.81V520.752H1915.19C1910.04 531.722 1902.76 542.606 1893.33 553.404C1884.08 564.031 1871.99 572.858 1857.08 579.886C1842.34 586.913 1824.34 590.427 1803.09 590.427ZM1837.8 503.269C1855.45 503.269 1870.37 498.47 1882.54 488.872C1894.88 479.102 1904.3 465.475 1910.82 447.992C1917.5 430.51 1920.84 410.027 1920.84 386.545C1920.84 363.063 1917.59 342.666 1911.07 325.355C1904.56 308.043 1895.13 294.674 1882.79 285.247C1870.45 275.82 1855.45 271.106 1837.8 271.106C1819.8 271.106 1804.63 275.991 1792.29 285.761C1779.95 295.531 1770.61 309.072 1764.27 326.383C1757.93 343.695 1754.76 363.749 1754.76 386.545C1754.76 409.513 1757.93 429.824 1764.27 447.478C1770.78 464.961 1780.12 478.673 1792.29 488.615C1804.63 498.385 1819.8 503.269 1837.8 503.269Z" fill="#24C8DB"/>
<path d="M2227.37 57.4541V584H2117.85V57.4541H2227.37Z" fill="#24C8DB"/>
<path d="M2495.08 591.713C2454.46 591.713 2419.49 583.485 2390.18 567.031C2361.05 550.405 2338.59 526.923 2322.82 496.585C2307.05 466.075 2299.17 429.995 2299.17 388.345C2299.17 347.723 2307.05 312.071 2322.82 281.39C2338.59 250.709 2360.79 226.799 2389.41 209.659C2418.21 192.519 2451.97 183.948 2490.71 183.948C2516.76 183.948 2541.02 188.148 2563.47 196.546C2586.1 204.774 2605.81 217.2 2622.6 233.826C2639.57 250.452 2652.77 271.363 2662.2 296.559C2671.62 321.584 2676.34 350.894 2676.34 384.488V414.569H2342.88V346.694H2573.24C2573.24 330.925 2569.81 316.956 2562.96 304.786C2556.1 292.617 2546.59 283.104 2534.42 276.248C2522.42 269.221 2508.45 265.707 2492.51 265.707C2475.88 265.707 2461.14 269.563 2448.29 277.277C2435.6 284.818 2425.66 295.017 2418.46 307.872C2411.27 320.555 2407.58 334.696 2407.41 350.294V414.826C2407.41 434.366 2411.01 451.249 2418.21 465.475C2425.58 479.702 2435.95 490.671 2449.32 498.385C2462.69 506.098 2478.54 509.954 2496.88 509.954C2509.05 509.954 2520.19 508.24 2530.3 504.812C2540.42 501.384 2549.07 496.242 2556.27 489.386C2563.47 482.53 2568.96 474.131 2572.73 464.19L2674.02 470.875C2668.88 495.214 2658.34 516.467 2642.4 534.636C2626.63 552.633 2606.24 566.688 2581.21 576.801C2556.36 586.742 2527.65 591.713 2495.08 591.713Z" fill="#24C8DB"/>
<path d="M1740.28 1014.39C1712.01 1014.39 1687.7 1008.4 1667.33 996.422C1647.09 984.323 1631.51 967.552 1620.61 946.109C1609.83 924.667 1604.44 899.99 1604.44 872.078C1604.44 843.807 1609.89 819.01 1620.79 797.688C1631.81 776.245 1647.45 759.534 1667.69 747.555C1687.94 735.456 1712.01 729.406 1739.92 729.406C1764 729.406 1785.09 733.779 1803.17 742.523C1821.26 751.268 1835.58 763.547 1846.12 779.359C1856.66 795.172 1862.47 813.74 1863.55 835.062H1791.32C1789.28 821.286 1783.89 810.206 1775.14 801.82C1766.52 793.315 1755.2 789.062 1741.18 789.062C1729.32 789.062 1718.96 792.297 1710.1 798.766C1701.35 805.115 1694.52 814.398 1689.61 826.617C1684.7 838.836 1682.25 853.63 1682.25 871C1682.25 888.609 1684.64 903.583 1689.43 915.922C1694.34 928.26 1701.23 937.664 1710.1 944.133C1718.96 950.602 1729.32 953.836 1741.18 953.836C1749.93 953.836 1757.77 952.039 1764.72 948.445C1771.79 944.852 1777.6 939.641 1782.15 932.812C1786.82 925.865 1789.88 917.539 1791.32 907.836H1863.55C1862.35 928.919 1856.6 947.487 1846.3 963.539C1836.12 979.471 1822.04 991.93 1804.07 1000.91C1786.1 1009.9 1764.84 1014.39 1740.28 1014.39Z" fill="#FFC131"/>
<path d="M1989.11 641V1009H1912.56V641H1989.11Z" fill="#FFC131"/>
<path d="M2175.13 1014.39C2147.22 1014.39 2123.08 1008.46 2102.71 996.602C2082.47 984.622 2066.84 967.971 2055.82 946.648C2044.79 925.206 2039.28 900.349 2039.28 872.078C2039.28 843.568 2044.79 818.651 2055.82 797.328C2066.84 775.885 2082.47 759.234 2102.71 747.375C2123.08 735.396 2147.22 729.406 2175.13 729.406C2203.04 729.406 2227.12 735.396 2247.36 747.375C2267.73 759.234 2283.42 775.885 2294.44 797.328C2305.46 818.651 2310.97 843.568 2310.97 872.078C2310.97 900.349 2305.46 925.206 2294.44 946.648C2283.42 967.971 2267.73 984.622 2247.36 996.602C2227.12 1008.46 2203.04 1014.39 2175.13 1014.39ZM2175.49 955.094C2188.19 955.094 2198.79 951.5 2207.29 944.312C2215.8 937.005 2222.21 927.063 2226.52 914.484C2230.95 901.906 2233.17 887.591 2233.17 871.539C2233.17 855.487 2230.95 841.172 2226.52 828.594C2222.21 816.016 2215.8 806.073 2207.29 798.766C2198.79 791.458 2188.19 787.805 2175.49 787.805C2162.67 787.805 2151.89 791.458 2143.14 798.766C2134.52 806.073 2127.99 816.016 2123.56 828.594C2119.25 841.172 2117.09 855.487 2117.09 871.539C2117.09 887.591 2119.25 901.906 2123.56 914.484C2127.99 927.063 2134.52 937.005 2143.14 944.312C2151.89 951.5 2162.67 955.094 2175.49 955.094Z" fill="#FFC131"/>
<path d="M2437.29 849.438V1009H2360.75V733H2433.7V781.695H2436.93C2443.04 765.643 2453.28 752.945 2467.66 743.602C2482.03 734.138 2499.46 729.406 2519.95 729.406C2539.11 729.406 2555.83 733.599 2570.08 741.984C2584.34 750.37 2595.42 762.349 2603.32 777.922C2611.23 793.375 2615.18 811.823 2615.18 833.266V1009H2538.64V846.922C2538.76 830.031 2534.44 816.854 2525.7 807.391C2516.95 797.807 2504.91 793.016 2489.58 793.016C2479.28 793.016 2470.17 795.232 2462.27 799.664C2454.48 804.096 2448.37 810.565 2443.94 819.07C2439.63 827.456 2437.41 837.578 2437.29 849.438Z" fill="#FFC131"/>
<path fill-rule="evenodd" clip-rule="evenodd" d="M909.367 191.833L908.627 193.843C901.784 212.406 898.053 232.472 898.053 253.41C898.053 259.676 898.387 265.857 899.037 271.947L899.138 272.89L898.244 273.206C885.591 277.673 873.437 283.622 862.054 290.975L861.403 289.967L862.054 290.975C834.142 309.006 812.027 334.707 798.378 364.989C784.729 395.271 780.122 428.853 785.106 461.694C790.089 494.534 804.449 525.23 826.473 550.11C848.496 574.99 877.235 592.984 909.243 601.93C941.252 610.875 975.163 610.401 1006.9 600.55C1038.64 590.699 1066.87 571.896 1088.17 546.409C1090.91 543.126 1093.53 539.753 1096.01 536.296L1096.32 535.863L1096.85 535.803C1129.85 532.086 1161.8 522.695 1191.33 508.198L1193.84 506.968L1193.01 509.631C1183.32 540.759 1167.54 569.813 1146.44 595.055L1145.52 594.286L1146.44 595.055C1115.76 631.759 1075.12 658.834 1029.42 673.013C983.712 687.193 934.882 687.882 888.795 675C842.707 662.117 801.324 636.205 769.613 600.387C737.902 564.568 717.216 520.356 710.04 473.069C702.864 425.782 709.499 377.437 729.158 333.828C748.817 290.218 780.657 253.213 820.847 227.251C847.307 210.157 876.651 198.338 907.267 192.251L909.367 191.833ZM905.646 195.029C876.079 201.174 847.751 212.727 822.15 229.267L822.15 229.267C782.347 254.978 750.815 291.626 731.346 334.814C711.877 378.002 705.307 425.879 712.413 472.709C719.52 519.538 740.006 563.323 771.41 598.796C802.815 634.268 843.799 659.93 889.441 672.688C935.084 685.446 983.442 684.764 1028.71 670.721C1073.97 656.678 1114.21 629.865 1144.6 593.516C1164.89 569.237 1180.22 541.396 1189.87 511.573C1160.96 525.423 1129.8 534.446 1097.65 538.128C1095.23 541.483 1092.68 544.758 1090.02 547.948L1090.01 547.948C1068.41 573.79 1039.8 592.854 1007.61 602.842C975.433 612.83 941.051 613.311 908.597 604.241C876.144 595.171 847.005 576.926 824.675 551.7C802.346 526.475 787.785 495.352 782.733 462.054C777.68 428.756 782.351 394.706 796.19 364.003C810.029 333.299 832.452 307.241 860.752 288.959C872.025 281.677 884.045 275.752 896.553 271.26C895.958 265.391 895.653 259.439 895.653 253.41C895.653 232.941 899.171 213.289 905.646 195.029Z" fill="#24C8DB"/>
<path fill-rule="evenodd" clip-rule="evenodd" d="M1025.91 5.93243C1071.24 -1.64323 1117.78 3.48507 1160.37 20.7579C1202.95 38.0307 1239.91 66.7654 1267.14 103.771C1294.37 140.776 1310.79 184.601 1314.6 230.381C1318.4 276.161 1309.43 322.095 1288.68 363.085C1267.94 404.075 1236.23 438.51 1197.08 462.566C1172.05 477.944 1144.61 488.699 1116.07 494.455L1114.01 494.87L1114.7 492.885C1120.84 475.178 1124.18 456.157 1124.18 436.356C1124.18 429.172 1123.74 422.098 1122.89 415.145L1122.77 414.184L1123.68 413.866C1135.38 409.794 1146.66 404.458 1157.31 397.913L1157.31 397.913C1184.5 381.207 1206.52 357.287 1220.93 328.822C1235.34 300.357 1241.57 268.452 1238.93 236.663C1236.28 204.873 1224.87 174.433 1205.96 148.733C1187.05 123.032 1161.39 103.081 1131.82 91.0848C1102.24 79.0884 1069.91 75.5211 1038.43 80.784C1006.95 86.0468 977.553 99.9331 953.493 120.893C943.387 129.699 934.386 139.611 926.644 150.398L926.333 150.832L925.802 150.891C892.821 154.553 860.883 163.883 831.345 178.314L828.842 179.537L829.673 176.878C843.373 133.04 868.96 93.8645 903.598 63.6847C938.242 33.4988 980.578 13.5081 1025.91 5.93243ZM1159.46 22.9819C1117.29 5.87588 1071.2 0.797015 1026.3 8.2996C981.411 15.8021 939.484 35.5998 905.174 65.4942L904.386 64.5895L905.174 65.4942C871.571 94.7729 846.569 132.601 832.809 174.943C861.728 161.158 892.873 152.193 925.007 148.565C932.786 137.796 941.805 127.894 951.916 119.084L951.917 119.084C976.31 97.8322 1006.12 83.7528 1038.04 78.4168C1069.96 73.0808 1102.73 76.6977 1132.72 88.8608C1162.71 101.024 1188.72 121.253 1207.9 147.31L1206.93 148.021L1207.9 147.31C1227.07 173.368 1238.64 204.232 1241.32 236.464C1244 268.696 1237.68 301.045 1223.07 329.906C1208.46 358.767 1186.13 383.019 1158.57 399.958C1148.05 406.424 1136.92 411.726 1125.38 415.812C1126.17 422.552 1126.58 429.403 1126.58 436.356C1126.58 455.689 1123.44 474.292 1117.64 491.68C1145.17 485.884 1171.63 475.383 1195.82 460.521C1234.59 436.698 1266 402.595 1286.54 362.001C1307.09 321.408 1315.97 275.918 1312.21 230.58C1308.44 185.242 1292.17 141.841 1265.2 105.193C1238.24 68.5452 1201.64 40.0879 1159.46 22.9819Z" fill="#FFC131"/>
<path fill-rule="evenodd" clip-rule="evenodd" d="M890.812 435.144C890.812 398.995 920.117 369.69 956.266 369.69C992.415 369.69 1021.72 398.995 1021.72 435.144C1021.72 471.293 992.415 500.598 956.266 500.598C920.117 500.598 890.812 471.293 890.812 435.144ZM956.266 372.09C921.443 372.09 893.213 400.321 893.213 435.144C893.213 469.968 921.443 498.198 956.266 498.198C991.09 498.198 1019.32 469.968 1019.32 435.144C1019.32 400.321 991.09 372.09 956.266 372.09Z" fill="#24C8DB"/>
<path fill-rule="evenodd" clip-rule="evenodd" d="M1000.96 251.562C1000.96 215.413 1030.27 186.108 1066.42 186.108C1102.56 186.108 1131.87 215.413 1131.87 251.562C1131.87 287.711 1102.56 317.016 1066.42 317.016C1030.27 317.016 1000.96 287.711 1000.96 251.562ZM1066.42 188.508C1031.59 188.508 1003.36 216.738 1003.36 251.562C1003.36 286.386 1031.59 314.616 1066.42 314.616C1101.24 314.616 1129.47 286.386 1129.47 251.562C1129.47 216.738 1101.24 188.508 1066.42 188.508Z" fill="#FFC131"/>
<path d="M1064.95 315.544C1100.83 315.544 1129.92 286.458 1129.92 250.578C1129.92 214.698 1100.83 185.612 1064.95 185.612C1029.07 185.612 999.986 214.698 999.986 250.578C999.986 286.458 1029.07 315.544 1064.95 315.544Z" fill="#FFC131"/>
<path d="M953.582 371.229C917.703 371.229 888.616 400.316 888.616 436.195C888.616 472.075 917.703 501.161 953.582 501.161C989.462 501.161 1018.55 472.075 1018.55 436.195C1018.55 400.316 989.462 371.229 953.582 371.229Z" fill="#24C8DB"/>
<path d="M1114.91 494.973C1143.64 489.182 1171.24 478.361 1196.42 462.887C1235.82 438.682 1267.73 404.034 1288.6 362.79C1309.48 321.546 1318.5 275.327 1314.67 229.264C1310.84 183.2 1294.32 139.104 1266.92 101.869C1239.52 64.6343 1202.34 35.7215 1159.49 18.3416C1116.63 0.961714 1069.81 -4.19842 1024.2 3.42424C978.585 11.0469 935.986 31.1615 901.127 61.5345C866.275 91.9014 840.53 131.32 826.745 175.429C856.734 160.777 889.161 151.305 922.646 147.586C930.529 136.604 939.692 126.513 949.981 117.547C974.477 96.2076 1004.41 82.0699 1036.46 76.7117C1068.51 71.3536 1101.42 74.9855 1131.53 87.1991C1161.65 99.4126 1187.77 119.725 1207.02 145.891C1226.27 172.057 1237.89 203.048 1240.58 235.414C1243.27 267.779 1236.93 300.262 1222.26 329.243C1207.59 358.224 1185.17 382.576 1157.49 399.585C1146.65 406.249 1135.16 411.681 1123.25 415.827C1124.12 422.905 1124.57 430.107 1124.57 437.42C1124.57 457.578 1121.17 476.944 1114.91 494.973Z" fill="#FFC131"/>
<path d="M904.276 191.8C873.47 197.925 843.945 209.817 817.321 227.017C776.882 253.14 744.844 290.374 725.064 334.254C705.283 378.134 698.607 426.778 705.828 474.357C713.048 521.937 733.862 566.423 765.77 602.464C797.677 638.504 839.317 664.577 885.69 677.539C932.063 690.501 981.196 689.808 1027.19 675.541C1073.17 661.273 1114.06 634.031 1144.93 597.099C1166.16 571.701 1182.04 542.466 1191.79 511.146C1161.81 525.866 1129.37 535.4 1095.86 539.175C1093.34 542.695 1090.67 546.129 1087.88 549.47C1066.19 575.419 1037.46 594.562 1005.14 604.592C972.825 614.621 938.3 615.104 905.712 605.996C873.124 596.889 843.864 578.569 821.442 553.238C799.02 527.908 784.399 496.656 779.326 463.22C774.252 429.785 778.942 395.594 792.839 364.763C806.735 333.932 829.25 307.767 857.668 289.409C869.257 281.923 881.631 275.865 894.513 271.318C893.851 265.118 893.511 258.826 893.511 252.447C893.511 231.132 897.31 210.702 904.276 191.8Z" fill="#24C8DB"/>
</svg>
