<svg width="1215" height="897" viewBox="0 0 1215 897" fill="none" xmlns="http://www.w3.org/2000/svg">
<rect width="1215" height="897" fill="white"/>
<path d="M159.914 205.034C117.315 86.1272 33.3836 115.484 2 0H1215C1069.76 5.37768 1012.27 551.902 857.327 394.409C671.018 205.034 251.076 459.491 159.914 205.034Z" fill="#6C63FF" fill-opacity="0.4"/>
<path d="M414.277 344.942L386.683 363.04L674.063 801.205L701.657 783.107L414.277 344.942Z" fill="#E6E6E6"/>
<path d="M348.583 180.049L412.427 277.391C413.663 279.277 414.1 281.575 413.641 283.783C413.183 285.99 411.866 287.924 409.981 289.161C408.096 290.397 405.797 290.834 403.59 290.375C401.383 289.917 399.448 288.6 398.212 286.715L324.815 174.808C314.852 173.976 304.839 175.62 295.665 179.595L375.634 301.523C376.87 303.408 377.306 305.706 376.847 307.913C376.388 310.12 375.072 312.054 373.187 313.29C371.302 314.526 369.004 314.963 366.797 314.505C364.59 314.046 362.656 312.73 361.419 310.846L281.45 188.918C274.15 195.748 268.652 204.277 265.445 213.747L338.842 325.654C340.078 327.539 340.514 329.837 340.055 332.044C339.596 334.251 338.279 336.185 336.395 337.421C334.51 338.657 332.211 339.094 330.005 338.636C327.798 338.177 325.863 336.862 324.627 334.977L260.782 237.634C259.143 264.776 267.992 296.946 287.386 326.516C323.43 381.472 382.225 406.624 418.709 382.696C455.192 358.768 455.548 294.819 419.504 239.863C400.11 210.293 374.13 189.359 348.583 180.049Z" fill="#E6E6E6"/>
<path d="M538 285H505V809H538V285Z" fill="#E6E6E6"/>
<path d="M521 319C564.63 319 600 265.722 600 200C600 134.278 564.63 81 521 81C477.37 81 442 134.278 442 200C442 265.722 477.37 319 521 319Z" fill="#E6E6E6"/>
<path d="M521 297.911C556.899 297.911 586 254.075 586 200C586 145.925 556.899 102.089 521 102.089C485.101 102.089 456 145.925 456 200C456 254.075 485.101 297.911 521 297.911Z" fill="#CCCCCC"/>
<path d="M613 835.885C814.032 835.885 977 826.535 977 815C977 803.465 814.032 794.115 613 794.115C411.968 794.115 249 803.465 249 815C249 826.535 411.968 835.885 613 835.885Z" fill="#E6E6E6"/>
<path d="M828.268 814.693C691.855 790.105 552.145 790.105 415.732 814.693C413.565 815.086 411.339 814.998 409.209 814.436C407.08 813.874 405.1 812.852 403.409 811.441C401.718 810.031 400.357 808.266 399.422 806.272C398.488 804.278 398.002 802.103 398 799.901V613H846V799.901C845.998 802.103 845.512 804.278 844.578 806.272C843.643 808.266 842.282 810.031 840.591 811.441C838.9 812.852 836.92 813.874 834.791 814.436C832.661 814.998 830.435 815.086 828.268 814.693V814.693Z" fill="#6C63FF"/>
<path d="M805 475C794.656 474.991 784.383 476.71 774.605 480.086C760.343 449.154 737.555 422.931 708.913 404.494C680.272 386.058 646.966 376.174 612.904 376.002C578.843 375.83 545.439 385.377 516.613 403.523C487.786 421.669 464.734 447.66 450.161 478.447C435.811 474.421 420.703 473.904 406.111 476.937C391.519 479.97 377.87 486.466 366.313 495.877C354.756 505.288 345.63 517.339 339.704 531.014C333.778 544.689 331.225 559.588 332.26 574.456C333.296 589.325 337.889 603.726 345.654 616.448C353.418 629.169 364.126 639.839 376.876 647.557C389.626 655.275 404.044 659.817 418.916 660.798C433.787 661.78 448.677 659.173 462.331 653.197C478.741 678.203 501.155 698.7 527.526 712.814C553.897 726.928 583.384 734.21 613.294 733.995C643.203 733.78 672.582 726.074 698.748 711.582C724.913 697.09 747.03 676.273 763.079 651.033C775.617 657.363 789.426 660.771 803.47 661.001C817.514 661.231 831.427 658.277 844.166 652.361C856.905 646.446 868.139 637.721 877.024 626.844C885.91 615.966 892.216 603.217 895.47 589.553C898.724 575.89 898.841 561.667 895.812 547.951C892.783 534.236 886.688 521.385 877.982 510.363C869.277 499.34 858.189 490.432 845.549 484.308C832.909 478.183 819.046 475.001 805 475V475Z" fill="#6C63FF"/>
<path d="M434 555H432C431.932 528.373 437.825 502.068 449.247 478.015L451.055 478.871C439.759 502.657 433.932 528.669 434 555V555Z" fill="#3F3D56"/>
<path d="M792 555H790C790.062 529.276 784.501 503.849 773.706 480.499L775.522 479.661C786.439 503.274 792.063 528.986 792 555V555Z" fill="#3F3D56"/>
<path d="M398.241 699.971L397.759 698.029C398.323 697.89 455.162 683.93 538.459 677.003C615.34 670.61 731.146 669.068 846.244 698.03L845.756 699.97C730.939 671.08 615.387 672.615 538.667 678.993C455.519 685.904 398.804 699.831 398.241 699.971Z" fill="#3F3D56"/>
<path d="M398.241 726.971L397.759 725.029C398.323 724.89 455.162 710.93 538.459 704.003C615.34 697.61 731.146 696.068 846.244 725.03L845.756 726.97C730.939 698.08 615.387 699.617 538.667 705.993C455.519 712.904 398.804 726.831 398.241 726.971Z" fill="#3F3D56"/>
<path d="M398.241 753.971L397.759 752.029C398.323 751.89 455.162 737.93 538.459 731.003C615.34 724.61 731.146 723.068 846.244 752.03L845.756 753.97C730.939 725.08 615.387 726.617 538.667 732.993C455.519 739.904 398.804 753.831 398.241 753.971Z" fill="#3F3D56"/>
<path d="M766.267 607.156L742.037 598.918L765.298 480.189L749.306 478.735C733.712 490.699 712.946 495.39 686.307 491.819L728.952 556.272L707.207 571.622L637.839 488.416C634.712 484.666 633 479.938 633 475.055C633 470.528 634.472 466.124 637.194 462.507C639.916 458.891 643.741 456.257 648.091 455.004L722.168 433.667L808.912 443.359C822.027 463.353 822.54 477.258 802.576 481.27L766.267 607.156Z" fill="#2F2E41"/>
<path d="M741.467 653.344C738.962 653.185 736.53 652.438 734.368 651.163C732.207 649.888 730.376 648.122 729.025 646.006C727.674 643.891 726.841 641.487 726.594 638.99C726.347 636.492 726.692 633.972 727.601 631.633L739.647 600.657C745.766 589.066 754.164 590.517 764.08 600.657L768.926 614.872C769.325 616.043 769.483 617.282 769.391 618.515C769.3 619.748 768.959 620.95 768.391 622.048L756.65 644.749C755.226 647.5 753.033 649.778 750.337 651.305C747.641 652.831 744.559 653.539 741.467 653.344V653.344Z" fill="#2F2E41"/>
<path d="M710.152 612.781C707.647 612.623 705.215 611.875 703.054 610.601C700.892 609.326 699.061 607.559 697.71 605.444C696.36 603.329 695.527 600.925 695.279 598.427C695.032 595.93 695.377 593.409 696.287 591.07L708.333 560.095C714.451 548.503 722.849 549.954 732.765 560.095L737.611 574.31C738.01 575.48 738.169 576.719 738.077 577.952C737.985 579.186 737.645 580.387 737.076 581.486L725.335 604.186C723.912 606.938 721.718 609.216 719.022 610.742C716.326 612.268 713.244 612.977 710.152 612.781Z" fill="#2F2E41"/>
<path d="M725.56 320.269C740.548 320.269 752.698 308.118 752.698 293.131C752.698 278.143 740.548 265.993 725.56 265.993C710.572 265.993 698.422 278.143 698.422 293.131C698.422 308.118 710.572 320.269 725.56 320.269Z" fill="#FFB9B9"/>
<path d="M767.721 331.415L730.406 350.799L722.652 315.907L748.336 299.915L767.721 331.415Z" fill="#FFB9B9"/>
<path d="M812.789 448.205C775.555 436.959 741.771 431.132 717.322 439.967C725.749 416.258 710.194 380.055 693.091 343.045C700.471 333.398 712.237 329.662 725.56 328.022C740.137 338.607 750.301 331.813 758.029 315.423C774.882 314.746 791.124 320.714 806.974 330.93C794.584 370.616 796.814 409.696 812.789 448.205Z" fill="#3F3D56"/>
<path d="M716.837 445.782C710.957 449.247 705.531 455.085 700.36 462.258C691.622 456.909 683.932 450.819 677.874 443.576C673.634 438.44 670.743 432.327 669.463 425.791C668.182 419.255 668.554 412.503 670.544 406.147L687.105 352.325C688.48 347.855 691.152 343.894 694.782 340.944L696.968 339.168L718.775 380.36L696.968 421.067C699.733 428.482 707.883 437.046 716.837 445.782Z" fill="#3F3D56"/>
<path d="M724.343 486.817C722.366 487.719 720.206 488.148 718.035 488.07C715.863 487.993 713.74 487.411 711.832 486.371C709.924 485.331 708.284 483.862 707.042 482.079C705.8 480.296 704.99 478.249 704.676 476.099L701.072 451.424L713.672 444.64L729.663 465.573C730.94 467.245 731.824 469.184 732.249 471.244C732.675 473.305 732.63 475.435 732.119 477.476C731.608 479.517 730.643 481.417 729.297 483.034C727.951 484.652 726.258 485.945 724.343 486.817V486.817Z" fill="#FFB9B9"/>
<path d="M752.94 291.943L748.307 292.081L735.454 273.873C718.984 275.576 705.489 282.731 694.068 293.692L692.91 285.972C691.806 278.61 693.565 271.105 697.825 265.001C702.085 258.896 708.523 254.656 715.813 253.153H715.813C719.643 252.364 723.592 252.354 727.425 253.124C731.259 253.895 734.898 255.43 738.124 257.638C741.351 259.846 744.1 262.682 746.207 265.976C748.313 269.27 749.734 272.955 750.385 276.81L752.94 291.943Z" fill="#2F2E41"/>
<path d="M700.828 462.268C699.927 460.291 699.498 458.131 699.575 455.96C699.653 453.789 700.234 451.665 701.274 449.757C702.314 447.849 703.783 446.209 705.566 444.967C707.349 443.726 709.397 442.915 711.547 442.601L736.221 438.997L743.006 451.597L722.072 467.588C720.4 468.865 718.462 469.749 716.401 470.175C714.34 470.6 712.21 470.555 710.169 470.044C708.128 469.533 706.228 468.568 704.611 467.222C702.994 465.876 701.701 464.183 700.828 462.268V462.268Z" fill="#FFB9B9"/>
<path d="M817.49 439.824C794.015 441.647 768.384 448.967 741.552 459.351C741.219 451.386 738.33 443.739 733.314 437.543C757.684 431.125 779.798 423.592 793.405 411.859L785.167 349.83L803.097 329.476L806.19 331.09C808.759 332.424 811.018 334.284 812.822 336.548C814.625 338.813 815.932 341.431 816.659 344.233C824.23 373.682 827.592 401.898 825.281 428.451C825.579 430.968 824.954 433.509 823.521 435.6C822.089 437.692 819.946 439.192 817.49 439.824V439.824Z" fill="#3F3D56"/>
<path d="M344.886 809.112C323.054 822.767 301.221 822.761 279.389 809.095C278.698 808.669 278.136 808.062 277.766 807.34C277.395 806.618 277.23 805.808 277.288 804.998L284.1 716.437H339.2L346.983 804.967C347.05 805.784 346.89 806.604 346.52 807.336C346.15 808.067 345.584 808.682 344.886 809.112V809.112Z" fill="#3F3D56"/>
<path d="M311.396 727.457C326.752 727.457 339.2 722.972 339.2 717.439C339.2 711.906 326.752 707.421 311.396 707.421C296.04 707.421 283.592 711.906 283.592 717.439C283.592 722.972 296.04 727.457 311.396 727.457Z" fill="#3F3D56"/>
<path d="M333.189 714.057C318.701 724.249 304.675 724.249 291.113 714.057V698.028H333.189V714.057Z" fill="#6C63FF"/>
<path d="M312.151 706.042C323.77 706.042 333.189 702.454 333.189 698.028C333.189 693.601 323.77 690.013 312.151 690.013C300.532 690.013 291.113 693.601 291.113 698.028C291.113 702.454 300.532 706.042 312.151 706.042Z" fill="#6C63FF"/>
<path d="M313.153 698.028C314.259 698.028 315.156 697.579 315.156 697.026C315.156 696.473 314.259 696.024 313.153 696.024C312.046 696.024 311.149 696.473 311.149 697.026C311.149 697.579 312.046 698.028 313.153 698.028Z" fill="#E6E6E6"/>
<path d="M322.614 698.028C323.721 698.028 324.618 697.579 324.618 697.026C324.618 696.473 323.721 696.024 322.614 696.024C321.507 696.024 320.61 696.473 320.61 697.026C320.61 697.579 321.507 698.028 322.614 698.028Z" fill="#E6E6E6"/>
<path d="M317.883 700.393C318.99 700.393 319.887 699.945 319.887 699.391C319.887 698.838 318.99 698.389 317.883 698.389C316.777 698.389 315.88 698.838 315.88 699.391C315.88 699.945 316.777 700.393 317.883 700.393Z" fill="#E6E6E6"/>
<path d="M298.961 700.393C300.068 700.393 300.965 699.945 300.965 699.391C300.965 698.838 300.068 698.389 298.961 698.389C297.855 698.389 296.958 698.838 296.958 699.391C296.958 699.945 297.855 700.393 298.961 700.393Z" fill="#E6E6E6"/>
<path d="M303.692 698.028C304.798 698.028 305.695 697.579 305.695 697.026C305.695 696.473 304.798 696.024 303.692 696.024C302.585 696.024 301.688 696.473 301.688 697.026C301.688 697.579 302.585 698.028 303.692 698.028Z" fill="#E6E6E6"/>
<path d="M308.422 701.576C309.529 701.576 310.426 701.127 310.426 700.574C310.426 700.021 309.529 699.572 308.422 699.572C307.316 699.572 306.419 700.021 306.419 700.574C306.419 701.127 307.316 701.576 308.422 701.576Z" fill="#E6E6E6"/>
<path d="M949.886 809.112C928.054 822.767 906.221 822.761 884.389 809.095C883.698 808.669 883.136 808.062 882.766 807.34C882.395 806.618 882.23 805.808 882.288 804.998L889.1 716.437H944.2L951.983 804.967C952.051 805.784 951.89 806.604 951.52 807.336C951.15 808.067 950.584 808.682 949.886 809.112V809.112Z" fill="#3F3D56"/>
<path d="M916.396 727.457C931.752 727.457 944.2 722.972 944.2 717.439C944.2 711.906 931.752 707.421 916.396 707.421C901.04 707.421 888.592 711.906 888.592 717.439C888.592 722.972 901.04 727.457 916.396 727.457Z" fill="#3F3D56"/>
<path d="M938.189 714.057C923.701 724.249 909.675 724.249 896.113 714.057V698.028H938.189V714.057Z" fill="#6C63FF"/>
<path d="M917.151 706.042C928.77 706.042 938.189 702.454 938.189 698.028C938.189 693.601 928.77 690.013 917.151 690.013C905.532 690.013 896.113 693.601 896.113 698.028C896.113 702.454 905.532 706.042 917.151 706.042Z" fill="#6C63FF"/>
<path d="M918.153 698.028C919.259 698.028 920.156 697.579 920.156 697.026C920.156 696.473 919.259 696.024 918.153 696.024C917.046 696.024 916.149 696.473 916.149 697.026C916.149 697.579 917.046 698.028 918.153 698.028Z" fill="#E6E6E6"/>
<path d="M927.614 698.028C928.721 698.028 929.618 697.579 929.618 697.026C929.618 696.473 928.721 696.024 927.614 696.024C926.507 696.024 925.61 696.473 925.61 697.026C925.61 697.579 926.507 698.028 927.614 698.028Z" fill="#E6E6E6"/>
<path d="M922.883 700.393C923.99 700.393 924.887 699.945 924.887 699.391C924.887 698.838 923.99 698.389 922.883 698.389C921.777 698.389 920.88 698.838 920.88 699.391C920.88 699.945 921.777 700.393 922.883 700.393Z" fill="#E6E6E6"/>
<path d="M903.961 700.393C905.068 700.393 905.965 699.945 905.965 699.391C905.965 698.838 905.068 698.389 903.961 698.389C902.855 698.389 901.958 698.838 901.958 699.391C901.958 699.945 902.855 700.393 903.961 700.393Z" fill="#E6E6E6"/>
<path d="M908.692 698.028C909.798 698.028 910.695 697.579 910.695 697.026C910.695 696.473 909.798 696.024 908.692 696.024C907.585 696.024 906.688 696.473 906.688 697.026C906.688 697.579 907.585 698.028 908.692 698.028Z" fill="#E6E6E6"/>
<path d="M913.422 701.576C914.529 701.576 915.426 701.127 915.426 700.574C915.426 700.021 914.529 699.572 913.422 699.572C912.316 699.572 911.419 700.021 911.419 700.574C911.419 701.127 912.316 701.576 913.422 701.576Z" fill="#E6E6E6"/>
</svg>
