<?xml version="1.0" encoding="utf-8"?>
<!-- Generator: Adobe Illustrator 18.0.0, SVG Export Plug-In . SVG Version: 6.00 Build 0)  -->
<!DOCTYPE svg PUBLIC "-//W3C//DTD SVG 1.1//EN" "http://www.w3.org/Graphics/SVG/1.1/DTD/svg11.dtd">
<svg version="1.1" id="Layer_1" xmlns="http://www.w3.org/2000/svg" xmlns:xlink="http://www.w3.org/1999/xlink" x="0px" y="0px"
	 viewBox="0 0 242.6 566.6" enable-background="new 0 0 242.6 566.6" xml:space="preserve">
<g>
	<g>
		<polygon fill="#DEDEDE" points="127.9,46.5 81.4,23.1 80.1,282.2 121.5,536.2 		"/>
		<polygon fill="#F2F2F2" points="121.5,536.2 121.5,43.2 161.5,23.1 161.5,276.1 		"/>
		<polygon fill="#FAFAFA" points="161.5,23.1 121.5,43.2 81.4,23.1 121.5,3.1 		"/>
	</g>
	<g>
		<polygon fill="#0D0D0D" points="169.9,77 121.5,53.5 121.5,553 162.8,566.6 		"/>
		<polygon fill="#242424" points="162.8,566.6 162.8,73.6 202.9,53.5 202.9,547 		"/>
		<polygon fill="#3B3B3B" points="202.9,53.5 162.8,73.6 121.5,53.5 162.2,33.1 		"/>
	</g>
	<g>
		<polygon fill="#0D0D0D" points="88.9,77.5 40.7,53.5 40.7,553 82,566.6 		"/>
		<polygon fill="#242424" points="82,566.6 82,73.6 122.1,53.5 122.1,547 		"/>
		<polygon fill="#3B3B3B" points="122.1,53.5 81.4,73.9 40.7,53.5 81.4,33.1 		"/>
	</g>
	<g>
		<polygon fill="#DEDEDE" points="128.4,107 81.4,83.9 80.1,583.1 121.5,596.6 		"/>
		<polygon fill="#F2F2F2" points="122.1,596.9 122.1,104 162.2,83.9 162.2,577.3 		"/>
		<polygon fill="#FAFAFA" points="162.2,83.9 122.1,104 81.4,83.9 122.1,63.8 		"/>
	</g>
	<g>
		<polygon fill="#DEDEDE" points="209.4,107.5 162.2,83.9 161.2,583.1 202.5,596.6 		"/>
		<polygon fill="#F2F2F2" points="202.5,596.6 202.5,103.7 242.6,83.6 242.6,577 		"/>
		<polygon fill="#FAFAFA" points="242.6,83.9 202.5,104 162.2,83.9 202.5,63.8 		"/>
	</g>
	<g>
		<polygon fill="#DEDEDE" points="48.2,107.5 1,83.9 0,583.1 41.3,596.6 		"/>
		<polygon fill="#F2F2F2" points="41.3,596.6 41.3,103.7 81.4,83.6 81.4,577 		"/>
		<polygon fill="#FAFAFA" points="81.4,83.9 41.3,104 1,83.9 41.3,63.8 		"/>
	</g>
	<g>
		<polygon fill="#0D0D0D" points="169.7,138.2 121.5,114.3 121.5,613.8 162.8,627.3 		"/>
		<polygon fill="#242424" points="162.8,627.3 162.8,134.4 202.9,114.3 202.9,607.7 		"/>
		<polygon fill="#3B3B3B" points="202.9,114.3 162.8,134.8 121.5,114.3 162.2,93.9 		"/>
	</g>
	<g>
		<polygon fill="#0D0D0D" points="88.9,138.2 40.7,114.3 40.7,613.8 82,627.3 		"/>
		<polygon fill="#242424" points="82,627.3 82,134.4 122.1,114.3 122.1,607.7 		"/>
		<polygon fill="#3B3B3B" points="122.1,114.3 82.1,134.9 41.4,114.5 81.4,93.9 		"/>
	</g>
	<g>
		<polygon fill="#DEDEDE" points="128.4,168 81.4,144.4 80.1,643.6 121.5,657.1 		"/>
		<polygon fill="#F2F2F2" points="121.5,657.1 121.5,164.1 161.5,144 161.5,637.5 		"/>
		<polygon fill="#FAFAFA" points="161.5,144.4 121.5,164.7 81.4,144.4 121.5,124.3 		"/>
	</g>
</g>
</svg>
