<svg width="256" height="256" viewBox="0 0 256 256" fill="none" xmlns="http://www.w3.org/2000/svg">
<path d="M245.21 133.712C251.085 133.998 255.662 139.004 254.888 144.835C252.36 163.889 245.566 182.177 234.958 198.314C222.394 217.425 204.939 232.821 184.409 242.9C163.879 252.979 141.023 257.374 118.218 255.626C95.4142 253.878 73.4949 246.052 54.7403 232.962C35.9857 219.872 21.0809 201.996 11.5764 181.193C2.07178 160.391 -1.68542 137.421 0.695558 114.675C3.07654 91.9279 11.5087 70.2345 25.115 51.851C36.6038 36.3285 51.4272 23.6446 68.4403 14.7011C73.6472 11.9639 79.9239 14.5335 82.2188 19.9499V19.9499C84.5137 25.3662 81.951 31.5712 76.7904 34.3945C63.2628 41.7952 51.461 52.0622 42.2375 64.524C30.8956 79.8481 23.8668 97.9311 21.882 116.892C19.8973 135.853 23.0292 155 30.952 172.341C38.8748 189.681 51.299 204.582 66.9324 215.494C82.5658 226.405 100.837 232.929 119.846 234.386C138.855 235.843 157.907 232.18 175.021 223.778C192.135 215.376 206.685 202.543 217.157 186.612C225.674 173.657 231.242 159.038 233.523 143.789C234.394 137.971 239.334 133.426 245.21 133.712V133.712Z" fill="#344DC8"/>
<path d="M87.73 17.7772C85.7113 12.2519 88.546 6.0903 94.2199 4.53786C110.571 0.0639666 127.685 -1.1266 144.565 1.07637C164.973 3.73983 184.438 11.2853 201.31 23.073C218.181 34.8606 231.962 50.5428 241.482 68.7899C249.357 83.8822 254.125 100.361 255.548 117.254C256.042 123.115 251.231 127.896 245.349 127.901V127.901C239.466 127.906 234.749 123.13 234.158 117.277C232.798 103.814 228.885 90.6983 222.596 78.6439C214.66 63.4336 203.173 50.3612 189.109 40.5353C175.046 30.7094 158.82 24.4197 141.808 22.1995C128.326 20.4399 114.665 21.2775 101.555 24.6313C95.8563 26.0893 89.7486 23.3024 87.73 17.7772V17.7772Z" fill="#1D2E7C"/>
<path d="M106.864 154.2C102.928 154.2 99.544 153.648 96.712 152.544C93.928 151.392 91.768 149.736 90.232 147.576C88.744 145.416 88 142.824 88 139.8C88 137.4 88.48 135.288 89.44 133.464C90.448 131.592 91.816 130.08 93.544 128.928C95.272 127.776 97.24 127.056 99.448 126.768V128.28C96.376 127.608 93.904 126.144 92.032 123.888C90.208 121.584 89.296 118.848 89.296 115.68C89.296 112.8 90.016 110.352 91.456 108.336C92.896 106.272 94.936 104.712 97.576 103.656C100.216 102.552 103.312 102 106.864 102C110.464 102 113.584 102.552 116.224 103.656C118.864 104.712 120.904 106.272 122.344 108.336C123.784 110.352 124.504 112.8 124.504 115.68C124.504 117.792 124.072 119.736 123.208 121.512C122.392 123.288 121.216 124.752 119.68 125.904C118.192 127.056 116.44 127.824 114.424 128.208V126.768C117.784 127.248 120.496 128.664 122.56 131.016C124.672 133.32 125.728 136.248 125.728 139.8C125.728 142.824 124.96 145.416 123.424 147.576C121.936 149.736 119.776 151.392 116.944 152.544C114.16 153.648 110.8 154.2 106.864 154.2ZM106.864 147C110.272 147 112.84 146.352 114.568 145.056C116.296 143.712 117.16 141.744 117.16 139.152C117.16 136.56 116.296 134.616 114.568 133.32C112.84 132.024 110.272 131.376 106.864 131.376C103.504 131.376 100.936 132.024 99.16 133.32C97.432 134.616 96.568 136.56 96.568 139.152C96.568 141.744 97.432 143.712 99.16 145.056C100.936 146.352 103.504 147 106.864 147ZM106.864 124.176C108.784 124.176 110.416 123.888 111.76 123.312C113.104 122.688 114.136 121.8 114.856 120.648C115.576 119.496 115.936 118.152 115.936 116.616C115.936 114.312 115.12 112.512 113.488 111.216C111.904 109.872 109.696 109.2 106.864 109.2C104.032 109.2 101.824 109.872 100.24 111.216C98.656 112.512 97.864 114.312 97.864 116.616C97.864 118.968 98.656 120.816 100.24 122.16C101.824 123.504 104.032 124.176 106.864 124.176Z" fill="#1D2E7C"/>
<path d="M150.468 154.2C147.924 154.2 145.332 153.864 142.692 153.192C140.052 152.52 137.628 151.488 135.42 150.096C134.508 149.52 133.884 148.848 133.548 148.08C133.26 147.264 133.188 146.472 133.332 145.704C133.524 144.888 133.884 144.216 134.412 143.688C134.988 143.112 135.66 142.776 136.428 142.68C137.244 142.584 138.132 142.8 139.092 143.328C140.868 144.336 142.668 145.104 144.492 145.632C146.316 146.16 148.26 146.424 150.324 146.424C152.34 146.424 154.068 146.064 155.508 145.344C156.948 144.624 158.052 143.616 158.82 142.32C159.588 141.024 159.972 139.512 159.972 137.784C159.972 135.096 159.156 132.936 157.524 131.304C155.892 129.624 153.66 128.784 150.828 128.784C149.292 128.784 147.804 129.048 146.364 129.576C144.924 130.056 143.508 130.92 142.116 132.168C141.684 132.552 141.132 132.936 140.46 133.32C139.788 133.656 139.068 133.824 138.3 133.824C137.1 133.824 136.188 133.512 135.564 132.888C134.94 132.264 134.628 131.4 134.628 130.296V106.752C134.628 105.456 134.964 104.472 135.636 103.8C136.356 103.08 137.364 102.72 138.66 102.72H162.348C163.644 102.72 164.628 103.056 165.3 103.728C166.02 104.352 166.38 105.288 166.38 106.536C166.38 107.736 166.02 108.672 165.3 109.344C164.628 110.016 163.644 110.352 162.348 110.352H143.628V126.48H141.252C142.5 124.8 144.156 123.504 146.22 122.592C148.284 121.68 150.54 121.224 152.988 121.224C156.204 121.224 158.988 121.92 161.34 123.312C163.74 124.656 165.588 126.552 166.884 129C168.228 131.4 168.9 134.208 168.9 137.424C168.9 140.736 168.156 143.664 166.668 146.208C165.18 148.704 163.044 150.672 160.26 152.112C157.524 153.504 154.26 154.2 150.468 154.2Z" fill="#1D2E7C"/>
</svg>
